<?xml version="1.0" standalone="no"?>
<!DOCTYPE svg PUBLIC "-//W3C//DTD SVG 1.1//EN" "http://www.w3.org/Graphics/SVG/1.1/DTD/svg11.dtd" >
<svg xmlns="http://www.w3.org/2000/svg" xmlns:xlink="http://www.w3.org/1999/xlink" version="1.1">
<metadata>
Created by FontForge 20170731 at Tue May 17 12:57:02 2016
 By Aleksey,,,
Copyright (c) 2016 by Salvador Rodri'guez y Diego Aravena. All rights reserved.
</metadata>
<defs>
<font id="Fuse-UltraBlack" horiz-adv-x="550" >
  <font-face 
    font-family="Fuse UltraBlack"
    font-weight="900"
    font-stretch="normal"
    units-per-em="1000"
    panose-1="0 0 10 0 0 0 0 0 0 0"
    ascent="750"
    descent="-250"
    x-height="550"
    cap-height="700"
    bbox="-322 -344 1397 1051"
    underline-thickness="50"
    underline-position="-250"
    unicode-range="U+0020-FB02"
  />
<missing-glyph horiz-adv-x="617" 
d="M100 826h417v-826h-417v826zM204 767l105 -270l104 270h-209zM341 413l118 -305v610zM276 413l-117 302v-604zM309 329l-105 -270h209z" />
    <glyph glyph-name="fi" unicode="fi" horiz-adv-x="670" 
d="M72 0v393h-72v130l38 14q34 12 34 47v3q0 86 70 134.5t192 48.5q125 0 219 -23l-24 -159q-84 23 -154 23q-56 0 -79.5 -13t-23.5 -44v-4h369v-550h-222v393h-125v-393h-222z" />
    <glyph glyph-name="fl" unicode="fl" horiz-adv-x="707" 
d="M682 157l22 -156q-62 -21 -121 -21q-79 0 -123.5 43.5t-44.5 127.5v437q-38 17 -80 17q-30 0 -46.5 -13.5t-16.5 -37.5v-4h113v-157h-91v-393h-222v393h-72v130l38 14q34 15 34 47v3q0 82 63 132.5t166 50.5q89 0 154 -20h182v-574q0 -25 19 -25q8 0 26 6z" />
    <glyph glyph-name="f_f" unicode="ff" horiz-adv-x="778" 
d="M724 605q-30 0 -46.5 -13.5t-16.5 -37.5v-4h113v-157h-91v-393h-222v393h-167v-393h-222v393h-72v130l38 14q34 15 34 47v3q0 82 63 132.5t166 50.5q76 0 133 -25l-23 -155q-33 15 -76 15q-30 0 -46.5 -13.5t-16.5 -37.5v-4h155q34 0 34 36v1q0 82 63 132.5t166 50.5
q76 0 133 -25l-23 -155q-33 15 -76 15z" />
    <glyph glyph-name="f_f_i" unicode="ffi" horiz-adv-x="1059" 
d="M72 0v393h-72v130l38 14q34 15 34 47v3q0 82 63 132.5t166 50.5q76 0 133 -25l-23 -155q-33 15 -76 15q-30 0 -46.5 -13.5t-16.5 -37.5v-4h155q34 0 34 36v1q0 86 70 134.5t192 48.5q104 0 219 -23l-24 -159q-84 23 -154 23q-56 0 -79.5 -13t-23.5 -44v-4h369v-550h-222
v393h-125v-393h-222v393h-167v-393h-222z" />
    <glyph glyph-name="f_f_l" unicode="ffl" horiz-adv-x="1096" 
d="M1071 157l22 -156q-61 -21 -121 -21q-82 0 -125 44t-43 127v437q-38 17 -80 17q-30 0 -46.5 -13.5t-16.5 -37.5v-4h113v-157h-91v-393h-222v393h-167v-393h-222v393h-72v130l38 14q34 15 34 47v3q0 82 63 132.5t166 50.5q76 0 133 -25l-23 -155q-33 15 -76 15
q-30 0 -46.5 -13.5t-16.5 -37.5v-4h155q34 0 34 36v1q0 82 63 132.5t166 50.5q89 0 154 -20h182v-574q0 -25 19 -25q10 0 26 6z" />
    <glyph glyph-name=".notdef" horiz-adv-x="617" 
d="M100 826h417v-826h-417v826zM204 767l105 -270l104 270h-209zM341 413l118 -305v610zM276 413l-117 302v-604zM309 329l-105 -270h209z" />
    <glyph glyph-name=".null" horiz-adv-x="0" 
 />
    <glyph glyph-name="nonmarkingreturn" horiz-adv-x="333" 
 />
    <glyph glyph-name="space" unicode=" " horiz-adv-x="210" 
 />
    <glyph glyph-name="exclam" unicode="!" horiz-adv-x="243" 
d="M26 284l-21 416h233l-21 -416h-191zM11 0v209h222v-209h-222z" />
    <glyph glyph-name="quotedbl" unicode="&#x22;" horiz-adv-x="464" 
d="M65 414l-30 284h184l-30 -284h-124zM275 414l-30 284h184l-30 -284h-124z" />
    <glyph glyph-name="numbersign" unicode="#" horiz-adv-x="639" 
d="M606 433h-71l-23 -166h54v-137h-72l-18 -130h-185l18 130h-45l-18 -130h-185l18 130h-46v137h64l23 166h-47v137h65l18 130h185l-18 -130h45l18 130h185l-18 -130h53v-137zM327 267l23 166h-45l-23 -166h45z" />
    <glyph glyph-name="dollar" unicode="$" horiz-adv-x="581" 
d="M571 222q0 -190 -197 -231v-137h-157v128q-138 13 -217 84l92 136q67 -50 141 -50q46 0 72 11t26 31q0 18 -18 31t-46.5 22t-63.5 19t-69.5 26.5t-63 39t-46.5 62t-18 90.5q0 91 55 150.5t156 77.5v134h157v-132q108 -20 176 -80l-89 -132q-69 42 -150 42q-65 0 -65 -32
q0 -20 33.5 -36t81 -32.5t95.5 -40t81.5 -70t33.5 -111.5z" />
    <glyph glyph-name="percent" unicode="%" horiz-adv-x="909" 
d="M208 331q-91 0 -142 50.5t-51 139.5t51 139.5t142 50.5t142 -50.5t51 -139.5t-51 -139.5t-142 -50.5zM301 0h-178l485 700h178zM208 455q43 0 43 66t-43 66t-43 -66t43 -66zM701 -11q-91 0 -142 50.5t-51 139.5t51 139.5t142 50.5t142 -50.5t51 -139.5t-51 -139.5
t-142 -50.5zM701 113q43 0 43 66t-43 66t-43 -66t43 -66z" />
    <glyph glyph-name="ampersand" unicode="&#x26;" horiz-adv-x="854" 
d="M662 166l177 -166h-278l-31 30q-89 -50 -219 -50q-122 0 -196.5 53t-74.5 140q0 68 35 114.5t96 85.5q-94 73 -94 163q0 83 68.5 133.5t180.5 50.5q109 0 176 -46.5t67 -123.5q-1 -64 -33 -109t-88 -83l95 -85q16 39 29 95h197q-17 -50 -49.5 -112t-57.5 -90zM289 538
q0 -32 36 -68q37 34 37 75q0 19 -9.5 30t-25.5 11q-17 0 -27.5 -13t-10.5 -35zM354 130q31 0 62 11l-117 113q-24 -27 -24 -60q0 -30 21 -47t58 -17z" />
    <glyph glyph-name="quotesingle" unicode="'" horiz-adv-x="254" 
d="M65 414l-30 284h184l-30 -284h-124z" />
    <glyph glyph-name="parenleft" unicode="(" horiz-adv-x="319" 
d="M186 -158q-96 109 -141 234t-45 281t45 281t141 234l148 -85q-53 -66 -84.5 -182t-31.5 -248t31.5 -248t84.5 -182z" />
    <glyph glyph-name="parenright" unicode=")" horiz-adv-x="319" 
d="M133 -158l-148 85q53 66 84.5 182t31.5 248t-31.5 248t-84.5 182l148 85q96 -109 141 -234t45 -281t-45 -281t-141 -234z" />
    <glyph glyph-name="asterisk" unicode="*" horiz-adv-x="449" 
d="M177 302l-142 99l102 89l-137 21l59 163l111 -70l-32 122h174l-31 -121l109 69l59 -163l-135 -20l102 -90l-142 -99l-48 118z" />
    <glyph glyph-name="plus" unicode="+" horiz-adv-x="562" 
d="M527 253h-168v-169h-156v169h-168v157h167v170h157v-170h168v-157z" />
    <glyph glyph-name="comma" unicode="," horiz-adv-x="252" 
d="M15 209h222v-174q0 -96 -59 -155t-155 -59l-8 74q40 4 65.5 33t27.5 72h-93v209z" />
    <glyph glyph-name="hyphen" unicode="-" horiz-adv-x="373" 
d="M363 355v-157h-353v157h353z" />
    <glyph glyph-name="period" unicode="." horiz-adv-x="252" 
d="M15 0v209h222v-209h-222z" />
    <glyph glyph-name="slash" unicode="/" horiz-adv-x="505" 
d="M227 -96h-187l238 892h187z" />
    <glyph glyph-name="zero" unicode="0" horiz-adv-x="620" 
d="M310 720q143 0 216.5 -94t73.5 -276t-73.5 -276t-216.5 -94t-216.5 94t-73.5 276t73.5 276t216.5 94zM310 156q36 0 50 43t14 151t-14 151t-50 43t-50 -43t-14 -151t14 -151t50 -43z" />
    <glyph glyph-name="one" unicode="1" horiz-adv-x="538" 
d="M538 165v-165h-484v165h152v308l-114 -59l-107 129l272 157h163v-535h118z" />
    <glyph glyph-name="two" unicode="2" horiz-adv-x="532" 
d="M512 164v-164h-493v150q13 12 56 51.5t63 59t54 55.5t50.5 60t30 54t13.5 55q0 29 -16.5 47t-43.5 18q-67 0 -140 -75l-96 116q47 65 116 97t141 32q119 0 191.5 -56t72.5 -147q0 -79 -45 -155.5t-171 -197.5h217z" />
    <glyph glyph-name="three" unicode="3" horiz-adv-x="536" 
d="M368 385q77 -14 117.5 -63t40.5 -126q0 -100 -76.5 -158t-189.5 -58q-79 0 -150.5 24t-119.5 67l103 125q58 -53 130 -53q35 0 56 17t21 52q0 71 -87 71h-76l-2 81l146 172h-249v164h483v-141z" />
    <glyph glyph-name="four" unicode="4" horiz-adv-x="603" 
d="M301 0v127h-286v143l181 430h218l-172 -410h59l38 97h175v-96h79v-164h-79v-127h-213z" />
    <glyph glyph-name="five" unicode="5" horiz-adv-x="553" 
d="M343 460q85 0 137.5 -61.5t52.5 -162.5q0 -118 -78.5 -187t-196.5 -69q-77 0 -152 26.5t-121 69.5l103 125q73 -61 140 -61q37 0 59 23t22 68q0 41 -22.5 63.5t-63.5 22.5q-44 0 -80 -25l-110 47l18 361h446v-164h-248l-5 -96q44 20 99 20z" />
    <glyph glyph-name="six" unicode="6" horiz-adv-x="593" 
d="M384 469q89 0 144 -64t55 -169q0 -115 -77 -185.5t-203 -70.5q-134 0 -208.5 88.5t-74.5 246.5q0 182 92 293.5t242 111.5q65 0 127 -21.5t98 -56.5l-94 -114q-47 35 -105 35q-97 0 -119 -128q56 34 123 34zM307 131q54 0 54 103q0 51 -12 71t-41 20q-26 0 -55 -17
q1 -102 12.5 -139.5t41.5 -37.5z" />
    <glyph glyph-name="seven" unicode="7" horiz-adv-x="519" 
d="M117 0v109q0 83 33 150l136 277h-276v164h504v-146l-142 -289q-41 -83 -41 -150v-115h-214z" />
    <glyph glyph-name="eight" unicode="8" horiz-adv-x="612" 
d="M304 -20q-130 0 -209.5 55.5t-79.5 146.5q0 53 33.5 97t91.5 69q-99 60 -99 159q0 100 70.5 156.5t195.5 56.5t195 -52.5t70 -145.5q0 -50 -28.5 -90.5t-80.5 -65.5q63 -27 98.5 -68t35.5 -112q0 -93 -80.5 -149.5t-212.5 -56.5zM319 424q38 29 38 85q0 28 -13.5 44
t-36.5 16q-24 0 -37.5 -16t-13.5 -44q0 -53 63 -85zM308 131q33 0 51.5 16t18.5 45q0 30 -25.5 50.5t-77.5 42.5q-40 -34 -40 -83q0 -34 19 -52.5t54 -18.5z" />
    <glyph glyph-name="nine" unicode="9" horiz-adv-x="596" 
d="M293 720q134 0 208.5 -88.5t74.5 -246.5q0 -182 -92 -293.5t-242 -111.5q-68 0 -133.5 22t-103.5 59l95 115q54 -39 116 -39q97 0 119 128q-56 -34 -123 -34q-89 0 -144 64t-55 169q0 115 77 185.5t203 70.5zM235 466q0 -51 12 -71t41 -20q26 0 55 17q-1 102 -12.5 139.5
t-41.5 37.5q-54 0 -54 -103z" />
    <glyph glyph-name="colon" unicode=":" horiz-adv-x="252" 
d="M15 316v209h222v-209h-222zM15 0v209h222v-209h-222z" />
    <glyph glyph-name="semicolon" unicode=";" horiz-adv-x="252" 
d="M15 316v209h222v-209h-222zM23 -179l-8 74q40 4 65.5 33t27.5 72h-93v209h222v-174q0 -96 -59 -155t-155 -59z" />
    <glyph glyph-name="less" unicode="&#x3c;" horiz-adv-x="492" 
d="M404 72l-384 160v202l384 160l68 -146l-283 -115l283 -115z" />
    <glyph glyph-name="equal" unicode="=" horiz-adv-x="461" 
d="M426 529v-157h-391v157h391zM425 293v-157h-390v157h390z" />
    <glyph glyph-name="greater" unicode="&#x3e;" horiz-adv-x="492" 
d="M88 72l-68 146l283 115l-283 115l68 146l384 -160v-202z" />
    <glyph glyph-name="question" unicode="?" horiz-adv-x="471" 
d="M117 283q0 54 12.5 93t30.5 58t36 32t30.5 26.5t12.5 31.5q0 24 -36 24q-24 0 -53 -13.5t-50 -36.5l-100 136q39 38 104.5 61.5t133.5 23.5q105 0 169 -46.5t64 -122.5q0 -48 -16.5 -84.5t-39.5 -57.5t-46.5 -39t-40 -39t-16.5 -47h-195zM104 0v209h222v-209h-222z" />
    <glyph glyph-name="at" unicode="@" horiz-adv-x="1026" 
d="M522 -230q-221 0 -356.5 126.5t-135.5 334.5q0 220 135.5 354.5t356.5 134.5q213 0 343.5 -109.5t130.5 -288.5q0 -151 -65 -240t-172 -89q-54 0 -90.5 27.5t-49.5 78.5q-21 -44 -58.5 -69t-81.5 -25q-100 0 -147 61.5t-47 192.5q0 119 67.5 191t178.5 72
q46 0 98.5 -16.5t90.5 -42.5v-259q0 -48 5 -64t21 -16q35 0 48 40.5t13 151.5q0 124 -72.5 188t-212.5 64q-136 0 -219.5 -92.5t-83.5 -244.5q0 -145 80 -227t223 -82q112 0 189 31l95 -130q-51 -24 -129 -38.5t-155 -14.5zM509 136q16 0 28 18v223q-8 4 -18 4
q-41 0 -41 -119q0 -76 6 -101t25 -25z" />
    <glyph glyph-name="A" unicode="A" horiz-adv-x="609" 
d="M-30 0l177 700h315l177 -700h-240l-21 126h-147l-21 -126h-240zM258 285h93l-45 266h-3z" />
    <glyph glyph-name="B" unicode="B" horiz-adv-x="627" 
d="M271 0h-241v700h229q169 0 249 -47t80 -147q0 -87 -112 -134v-3q65 -20 103 -64t38 -97q0 -105 -89.5 -156.5t-256.5 -51.5zM261 424h26q67 0 67 62q0 61 -67 61h-26v-123zM308 180q75 0 75 58q0 57 -75 57h-47v-115h47z" />
    <glyph glyph-name="C" unicode="C" horiz-adv-x="562" 
d="M468 200l99 -146q-83 -74 -213 -74q-162 0 -253 97.5t-91 272.5t91 272.5t253 97.5q130 0 213 -74l-99 -146q-45 39 -104 39q-114 0 -114 -189t114 -189q59 0 104 39z" />
    <glyph glyph-name="D" unicode="D" horiz-adv-x="657" 
d="M295 0h-265v700h265q173 0 262.5 -89t89.5 -261t-89.5 -261t-262.5 -89zM310 181q53 0 76.5 37t23.5 131t-23.5 131t-76.5 37h-49v-336h49z" />
    <glyph glyph-name="E" unicode="E" horiz-adv-x="514" 
d="M30 0v700h466v-173h-235v-96h198v-153h-198v-105h234v-173h-465z" />
    <glyph glyph-name="F" unicode="F" horiz-adv-x="473" 
d="M468 539h-207v-135h171v-153h-171v-251h-231v700h438v-161z" />
    <glyph glyph-name="G" unicode="G" horiz-adv-x="650" 
d="M620 409v-345q-43 -38 -116.5 -61t-149.5 -23q-162 0 -253 97.5t-91 272.5t95.5 272.5t265.5 97.5q134 0 232 -87l-99 -136q-59 52 -120 52q-134 0 -134 -199q0 -98 29.5 -148.5t84.5 -50.5q19 0 41 5v105h-51v148h266z" />
    <glyph glyph-name="H" unicode="H" horiz-adv-x="652" 
d="M391 700h231v-700h-231v277h-130v-277h-231v700h231v-254h130v254z" />
    <glyph glyph-name="I" unicode="I" horiz-adv-x="291" 
d="M261 700v-700h-231v700h231z" />
    <glyph glyph-name="J" unicode="J" horiz-adv-x="483" 
d="M197 -20q-58 0 -112.5 20.5t-84.5 53.5l99 146q37 -39 74 -39q49 0 49 62v304h-161v173h392l-1 -467q-1 -114 -71 -183.5t-184 -69.5z" />
    <glyph glyph-name="K" unicode="K" horiz-adv-x="656" 
d="M430 0l-118 278h-51v-278h-231v700h231v-269h54l119 269h226l-153 -309l174 -391h-251z" />
    <glyph glyph-name="L" unicode="L" horiz-adv-x="500" 
d="M495 173v-173h-465v700h231v-527h234z" />
    <glyph glyph-name="M" unicode="M" horiz-adv-x="799" 
d="M30 0v700h287l83 -479l82 479h287v-700h-203v227q0 137 16 247h-3l-98 -474h-163l-98 474h-3q16 -110 16 -247v-227h-203z" />
    <glyph glyph-name="N" unicode="N" horiz-adv-x="643" 
d="M30 0v700h286l115 -515h3q-22 166 -22 246v269h201v-700h-289l-104 461h-3q14 -96 14 -207v-254h-201z" />
    <glyph glyph-name="O" unicode="O" horiz-adv-x="688" 
d="M344 720q161 0 247.5 -97t86.5 -273t-86.5 -273t-247.5 -97t-247.5 97t-86.5 273t86.5 273t247.5 97zM344 156q50 0 72 45t22 149t-22 149t-72 45t-72 -45t-22 -149t22 -149t72 -45z" />
    <glyph glyph-name="P" unicode="P" horiz-adv-x="617" 
d="M30 0v700h231q170 0 258 -60.5t88 -177.5q0 -125 -87 -189.5t-257 -64.5h-2v-208h-231zM261 371h46q75 0 75 78q0 81 -75 81h-46v-159z" />
    <glyph glyph-name="Q" unicode="Q" horiz-adv-x="696" 
d="M606 -171q-80 68 -154.5 109.5t-115.5 41.5q-154 0 -240 97.5t-86 272.5q0 176 86.5 273t247.5 97t247.5 -97t86.5 -273q0 -95 -37 -169.5t-104 -118.5v-3q161 -49 184 -59zM344 156q50 0 72 45t22 149t-22 149t-72 45t-72 -45t-22 -149t22 -149t72 -45z" />
    <glyph glyph-name="R" unicode="R" horiz-adv-x="624" 
d="M650 0h-243l-143 270h-3v-270h-231v700h231q174 0 260 -52.5t86 -168.5q0 -72 -32 -124t-89 -73zM261 544v-143h46q75 0 75 74q0 69 -75 69h-46z" />
    <glyph glyph-name="S" unicode="S" horiz-adv-x="601" 
d="M296 -20q-171 0 -296 96l97 143q43 -27 99.5 -47t97.5 -20q57 0 57 42q0 26 -22 39t-87 35q-46 16 -75.5 30t-66 39.5t-55.5 64.5t-19 89q0 110 79.5 169.5t223.5 59.5q65 0 129.5 -19.5t107.5 -51.5l-95 -140q-67 35 -140 35q-65 0 -65 -32q0 -19 18 -28.5t76 -27.5
q28 -8 44 -13.5t43.5 -17t44.5 -22.5t38 -29.5t33 -39t20 -49.5t8 -63q-1 -119 -85.5 -180.5t-209.5 -61.5z" />
    <glyph glyph-name="T" unicode="T" horiz-adv-x="554" 
d="M162 0v527h-157v173h544v-173h-156v-527h-231z" />
    <glyph glyph-name="U" unicode="U" horiz-adv-x="640" 
d="M620 700v-444q0 -136 -76 -206t-224 -70t-224 70t-76 206v444h231v-459q0 -94 69 -94t69 94v459h231z" />
    <glyph glyph-name="V" unicode="V" horiz-adv-x="584" 
d="M142 0l-172 700h239l83 -522h3l80 522h239l-165 -700h-307z" />
    <glyph glyph-name="W" unicode="W" horiz-adv-x="864" 
d="M82 0l-87 700h246l6 -352l-2 -169h3l69 521h240l63 -521h3l4 182v339h242l-91 -700h-299l-49 465h-3l-54 -465h-291z" />
    <glyph glyph-name="X" unicode="X" horiz-adv-x="639" 
d="M-15 0l191 363l-169 337h241l68 -197l81 197h239l-180 -337l198 -363h-245l-93 211l-86 -211h-245z" />
    <glyph glyph-name="Y" unicode="Y" horiz-adv-x="625" 
d="M197 0v256l-217 444h250l83 -260l82 260h250l-217 -446v-254h-231z" />
    <glyph glyph-name="Z" unicode="Z" horiz-adv-x="553" 
d="M5 0v173l275 354h-269v173h525v-182l-269 -345h276v-173h-538z" />
    <glyph glyph-name="bracketleft" unicode="[" horiz-adv-x="312" 
d="M216 28h96v-157h-307v958h307v-157h-96v-644z" />
    <glyph glyph-name="backslash" unicode="\" horiz-adv-x="505" 
d="M278 -96l-238 892h187l238 -892h-187z" />
    <glyph glyph-name="bracketright" unicode="]" horiz-adv-x="312" 
d="M0 -129v157h96v644h-96v157h307v-958h-307z" />
    <glyph glyph-name="asciicircum" unicode="^" horiz-adv-x="549" 
d="M0 550l162 297h225l162 -297h-212l-62 139l-63 -139h-212z" />
    <glyph glyph-name="underscore" unicode="_" horiz-adv-x="517" 
d="M517 -40v-157l-517 3v157z" />
    <glyph glyph-name="grave" unicode="`" horiz-adv-x="502" 
d="M402 608h-171l-131 176h197z" />
    <glyph glyph-name="a" unicode="a" horiz-adv-x="544" 
d="M263 570q256 0 256 -184v-386h-201v43q-29 -29 -70 -46t-79 -17q-71 0 -115 47.5t-44 124.5t59 124.5t155 47.5h79v29q0 54 -79 54q-63 0 -105 -32l-90 124q44 32 108 51.5t126 19.5zM303 156v68h-39q-39 0 -39 -49q0 -40 34 -40q25 0 44 21z" />
    <glyph glyph-name="b" unicode="b" horiz-adv-x="602" 
d="M372 -20q-40 0 -78 18.5t-63 50.5v-49h-201v750h222v-254q25 34 64.5 54t82.5 20q88 0 138 -78t50 -217t-57 -217t-158 -78zM308 150q53 0 53 125t-53 125q-34 0 -56 -38v-175q22 -37 56 -37z" />
    <glyph glyph-name="c" unicode="c" horiz-adv-x="488" 
d="M304 -20q-130 0 -209.5 81t-79.5 214t79.5 214t209.5 81q131 0 204 -73l-99 -135q-24 31 -69 31q-49 0 -72 -28.5t-23 -89.5t23 -89.5t72 -28.5q45 0 69 31l99 -135q-73 -73 -204 -73z" />
    <glyph glyph-name="d" unicode="d" horiz-adv-x="602" 
d="M224 -20q-98 0 -153.5 78t-55.5 217t57 217t158 78q67 0 120 -47v227h222v-750h-201v48q-62 -68 -147 -68zM294 150q34 0 56 38v175q-22 37 -56 37q-53 0 -53 -125t53 -125z" />
    <glyph glyph-name="e" unicode="e" horiz-adv-x="576" 
d="M556 206h-315q25 -62 111 -62q62 0 116 31l82 -112q-39 -38 -106.5 -60.5t-139.5 -22.5q-136 0 -212.5 78t-76.5 217t76.5 217t212.5 78q124 0 193 -74t69 -206q0 -41 -10 -84zM233 331h119q-1 42 -16 66t-40 24q-51 0 -63 -90z" />
    <glyph glyph-name="f" unicode="f" horiz-adv-x="389" 
d="M72 0v393h-72v130l38 14q34 15 34 47v3q0 82 63 132.5t166 50.5q76 0 133 -25l-23 -155q-33 15 -76 15q-30 0 -46.5 -13.5t-16.5 -37.5v-4h113v-157h-91v-393h-222z" />
    <glyph glyph-name="g" unicode="g" horiz-adv-x="604" 
d="M280 -250q-60 0 -120 15t-97 40l23 156q113 -48 179 -48q87 0 87 83v48q-56 -64 -149 -64q-88 0 -138 78t-50 217t57 217t158 78q39 0 76 -18t63 -48v46h205v-540q0 -128 -74.5 -194t-219.5 -66zM294 150q36 0 58 42v167q-22 41 -58 41q-53 0 -53 -125t53 -125z" />
    <glyph glyph-name="h" unicode="h" horiz-adv-x="569" 
d="M393 570q71 0 111 -43.5t40 -120.5v-406h-222v365q0 35 -27 35q-25 0 -43 -32v-368h-222v750h222v-254q25 34 63 54t78 20z" />
    <glyph glyph-name="i" unicode="i" horiz-adv-x="282" 
d="M29 596v154h224v-154h-224zM30 0v550h222v-550h-222z" />
    <glyph glyph-name="j" unicode="j" horiz-adv-x="285" 
d="M32 596v154h224v-154h-224zM-45 -250l-23 155q101 48 101 129v516h222v-498q0 -123 -83 -209.5t-217 -92.5z" />
    <glyph glyph-name="k" unicode="k" horiz-adv-x="575" 
d="M30 0v750h222v-418h25l95 218h221l-129 -263l131 -287h-225l-97 214h-21v-214h-222z" />
    <glyph glyph-name="l" unicode="l" horiz-adv-x="317" 
d="M292 157l22 -156q-62 -21 -121 -21q-79 0 -123.5 43.5t-44.5 127.5v599h222v-574q0 -25 19 -25q8 0 26 6z" />
    <glyph glyph-name="m" unicode="m" horiz-adv-x="832" 
d="M656 570q71 0 111 -43.5t40 -120.5v-406h-222v365q0 35 -25 35q-18 0 -30 -24v-376h-222v365q0 35 -19 35q-21 0 -37 -28v-372h-222v550h212v-69q23 40 65 64.5t86 24.5q87 0 121 -82q24 37 63 59.5t79 22.5z" />
    <glyph glyph-name="n" unicode="n" horiz-adv-x="569" 
d="M393 570q68 0 109.5 -45t41.5 -119v-406h-222v365q0 35 -25 35q-27 0 -45 -39v-361h-222v550h212v-69q23 40 65 64.5t86 24.5z" />
    <glyph glyph-name="o" unicode="o" horiz-adv-x="598" 
d="M299 570q134 0 209 -78t75 -217t-75 -217t-209 -78t-209 78t-75 217t75 217t209 78zM299 150q58 0 58 125t-58 125t-58 -125t58 -125z" />
    <glyph glyph-name="p" unicode="p" horiz-adv-x="602" 
d="M399 570q88 0 138 -78t50 -217t-57 -217t-158 -78q-67 0 -120 47v-257h-222v780h212v-69q23 40 66 64.5t91 24.5zM308 150q53 0 53 125t-53 125q-34 0 -56 -38v-175q22 -37 56 -37z" />
    <glyph glyph-name="q" unicode="q" horiz-adv-x="604" 
d="M352 -230v274q-56 -64 -149 -64q-88 0 -138 78t-50 217t57 217t158 78q39 0 76 -18t63 -48v46h205v-780h-222zM294 150q36 0 58 42v167q-22 41 -58 41q-53 0 -53 -125t53 -125z" />
    <glyph glyph-name="r" unicode="r" horiz-adv-x="416" 
d="M427 550l-31 -213q-24 11 -54 11q-65 0 -90 -59v-289h-222v550h212v-67q41 87 120 87q38 0 65 -20z" />
    <glyph glyph-name="s" unicode="s" horiz-adv-x="505" 
d="M236 387q0 -12 15 -19t61 -20q88 -24 122 -48q61 -43 61 -126q0 -87 -73 -140.5t-192 -53.5q-70 0 -136.5 22t-105.5 57l90 123q61 -43 138 -43q52 0 52 23q0 11 -11.5 16.5t-45.5 14.5q-37 10 -63 20.5t-60 31.5t-52.5 55.5t-18.5 79.5q0 91 63.5 140.5t179.5 49.5
q57 0 120 -18.5t109 -49.5l-92 -125q-47 34 -111 34q-50 0 -50 -24z" />
    <glyph glyph-name="t" unicode="t" horiz-adv-x="417" 
d="M270 -20q-94 0 -149 51t-55 150v212h-66v130l36 13q16 6 24.5 15.5t12.5 34.5l13 79h202v-115h120v-157h-120v-191q0 -51 44 -51q23 0 67 13l23 -156q-86 -28 -152 -28z" />
    <glyph glyph-name="u" unicode="u" horiz-adv-x="562" 
d="M310 550h222v-550h-205v69q-23 -40 -65 -64.5t-86 -24.5q-68 0 -109.5 45t-41.5 119v406h222v-365q0 -35 25 -35q23 0 38 26v374z" />
    <glyph glyph-name="v" unicode="v" horiz-adv-x="552" 
d="M146 0l-161 550h234l58 -360h3l58 360h229l-161 -550h-260z" />
    <glyph glyph-name="w" unicode="w" horiz-adv-x="806" 
d="M107 0l-112 550h228l26 -314h3l48 314h212l42 -311h3l27 311h227l-107 -550h-246l-51 292h-3l-48 -292h-249z" />
    <glyph glyph-name="x" unicode="x" horiz-adv-x="555" 
d="M-20 0l158 276l-150 274h235l56 -153l61 153h229l-150 -274l156 -276h-234l-62 164l-70 -164h-229z" />
    <glyph glyph-name="y" unicode="y" horiz-adv-x="553" 
d="M340 550h233l-169 -575q-34 -116 -124.5 -170.5t-249.5 -54.5l-22 149q99 5 145 28.5t59 72.5h-85l-147 550h234l57 -353z" />
    <glyph glyph-name="z" unicode="z" horiz-adv-x="498" 
d="M5 1v121l233 255h-221v173h466v-167l-194 -209h196v-173h-480z" />
    <glyph glyph-name="braceleft" unicode="{" horiz-adv-x="345" 
d="M268 53q0 -27 11 -39t36 -12v-149q-146 0 -199.5 37t-53.5 140v141q0 45 -11 64.5t-36 19.5v186q25 0 36 19.5t11 64.5v141q0 103 53.5 140t199.5 37v-149q-25 0 -36 -12t-11 -39v-130q0 -129 -124 -163v-3q124 -35 124 -164v-130z" />
    <glyph glyph-name="bar" unicode="|" horiz-adv-x="350" 
d="M70 -106v917h210v-917h-210z" />
    <glyph glyph-name="braceright" unicode="}" horiz-adv-x="345" 
d="M30 -147v149q25 0 36 12t11 39v130q0 129 124 164v3q-124 31 -124 163v130q0 27 -11 39t-36 12v149q146 0 199.5 -37t53.5 -140v-141q0 -45 11 -64.5t36 -19.5v-186q-25 0 -36 -19.5t-11 -64.5v-141q0 -103 -53.5 -140t-199.5 -37z" />
    <glyph glyph-name="asciitilde" unicode="~" horiz-adv-x="538" 
d="M350 203q-41 0 -98 30t-76 30q-18 0 -37 -14t-30 -34l-109 60q29 68 78.5 109t102.5 41q50 0 107.5 -30t76.5 -30q34 0 64 43l109 -57q-26 -67 -78 -107.5t-110 -40.5z" />
    <glyph glyph-name="exclamdown" unicode="&#xa1;" horiz-adv-x="243" 
d="M11 287v209h222v-209h-222zM5 -204l21 416h191l21 -416h-233z" />
    <glyph glyph-name="cent" unicode="&#xa2;" horiz-adv-x="488" 
d="M404 188l99 -135q-54 -54 -145 -68v-155h-157v164q-89 27 -140 101.5t-51 179.5t51 179.5t140 101.5v164h157v-155q91 -14 145 -68l-99 -135q-24 31 -69 31q-49 0 -72 -28.5t-23 -89.5t23 -89.5t72 -28.5q45 0 69 31z" />
    <glyph glyph-name="sterling" unicode="&#xa3;" horiz-adv-x="528" 
d="M320 298q-3 -67 -63 -136h261v-162h-484v154q73 75 76 144h-95v114h68q-20 53 -20 91q0 91 72 154t185 63q67 0 124.5 -15t86.5 -40l-92 -125q-37 20 -87 20q-32 0 -51.5 -20t-19.5 -50q0 -22 18 -78h171v-114h-150z" />
    <glyph glyph-name="currency" unicode="&#xa4;" horiz-adv-x="538" 
d="M498 343q0 -63 -27 -117l62 -62l-83 -83l-63 62q-52 -27 -118 -27q-67 0 -118 28l-63 -63l-83 83l63 62q-28 51 -28 117q0 65 28 118l-63 62l83 83l64 -63q52 27 117 27t117 -27l64 63l83 -83l-63 -62q28 -53 28 -118zM269 261q74 0 74 82t-74 82t-74 -82t74 -82z" />
    <glyph glyph-name="yen" unicode="&#xa5;" horiz-adv-x="635" 
d="M655 700l-170 -341h69v-105h-121v-52h121v-105h-121v-97h-231v97h-121v105h121v52h-121v105h70l-171 341h252l86 -264l85 264h252z" />
    <glyph glyph-name="brokenbar" unicode="&#xa6;" horiz-adv-x="350" 
d="M70 445v366h210v-366h-210zM70 -105v366h210v-366h-210z" />
    <glyph glyph-name="section" unicode="&#xa7;" horiz-adv-x="574" 
d="M469 199q40 -38 40 -105q0 -87 -70 -140.5t-185 -53.5q-47 0 -103.5 18t-102.5 48l68 133q53 -40 128 -40q46 0 46 25q0 15 -26.5 26t-63.5 21t-74.5 24.5t-64 47t-26.5 79.5q0 80 76 137q-46 39 -46 107q0 87 70 140.5t185 53.5q43 0 97 -16t94 -42l-69 -134
q-42 33 -112 33q-46 0 -46 -25q0 -13 19 -22t47 -14.5t61.5 -17t61.5 -28t47 -50t19 -80.5q0 -73 -70 -125zM222 339q0 -15 7 -27t15 -19t27.5 -14.5t30 -10.5t36.5 -10q14 12 14 30q0 7 -2 13t-6.5 11t-9 9t-13.5 8.5t-15.5 7.5t-18 6.5t-19 6t-21 6.5t-21.5 6
q-4 -14 -4 -23z" />
    <glyph glyph-name="dieresis" unicode="&#xa8;" horiz-adv-x="625" 
d="M100 597v153h182v-153h-182zM343 597v153h182v-153h-182z" />
    <glyph glyph-name="copyright" unicode="&#xa9;" horiz-adv-x="760" 
d="M381 99q-148 0 -242 92.5t-94 238.5q0 145 94 237.5t242 92.5q147 0 240.5 -92.5t93.5 -237.5q0 -146 -93.5 -238.5t-240.5 -92.5zM397 226q68 0 127 46l-58 79q-21 -12 -47 -12q-62 0 -62 91t62 91q23 0 46 -13l59 80q-59 46 -127 46q-85 0 -137.5 -56t-52.5 -148
t52.5 -148t137.5 -56z" />
    <glyph glyph-name="ordfeminine" unicode="&#xaa;" horiz-adv-x="504" 
d="M183 259q-69 0 -111 37t-42 97q0 62 55 100t145 38h32v18q0 13 -14.5 21.5t-37.5 8.5q-61 0 -117 -29l-31 127q83 34 181 34q106 0 156 -30t50 -94v-311h-137v45q-50 -62 -129 -62zM240 391q12 0 22 7v38h-3q-35 0 -35 -26q0 -19 16 -19z" />
    <glyph glyph-name="guillemotleft" unicode="&#xab;" horiz-adv-x="674" 
d="M213 29l-193 206v136l193 206l143 -99l-131 -175l131 -175zM511 29l-193 206v136l193 206l143 -99l-131 -175l131 -175z" />
    <glyph glyph-name="logicalnot" unicode="&#xac;" horiz-adv-x="521" 
d="M329 89l-1 164h-293v157h450l1 -321h-157z" />
    <glyph glyph-name="uni00AD" unicode="&#xad;" horiz-adv-x="373" 
d="M363 355v-157h-353v157h353z" />
    <glyph glyph-name="registered" unicode="&#xae;" horiz-adv-x="574" 
d="M287 212q-115 0 -188.5 74t-73.5 189t73.5 188.5t188.5 73.5t188.5 -73.5t73.5 -188.5t-73.5 -189t-188.5 -74zM272 331v111h2l58 -111h100l-65 113q48 24 48 85q0 48 -35.5 69.5t-107.5 21.5h-96v-289h96zM272 496v59h19q31 0 31 -28q0 -31 -31 -31h-19z" />
    <glyph glyph-name="macron" unicode="&#xaf;" horiz-adv-x="522" 
d="M426 752v-138h-330v138h330z" />
    <glyph glyph-name="degree" unicode="&#xb0;" horiz-adv-x="405" 
d="M203 364q-83 0 -133 49t-50 129t50 129t133 49q82 0 132 -49t50 -129t-50 -129t-132 -49zM203 490q24 0 38.5 14.5t14.5 37.5q0 24 -14.5 38.5t-38.5 14.5q-23 0 -37.5 -14.5t-14.5 -38.5q0 -23 14.5 -37.5t37.5 -14.5z" />
    <glyph glyph-name="plusminus" unicode="&#xb1;" horiz-adv-x="562" 
d="M203 219v169h-168v157h167v170h157v-170h168v-157h-168v-169h-156zM35 0v157h492v-157h-492z" />
    <glyph glyph-name="uni00B2" unicode="&#xb2;" horiz-adv-x="390" 
d="M366 536v-116h-329v105q5 5 38 31t48 40t39 38t34.5 44t10.5 37q0 29 -34 29q-27 0 -51 -16.5t-37 -43.5l-71 86q26 39 77 63t108 24q77 0 123.5 -36t46.5 -94q0 -87 -157 -191h154z" />
    <glyph glyph-name="uni00B3" unicode="&#xb3;" horiz-adv-x="391" 
d="M274 656q102 -27 102 -120q0 -59 -53.5 -95t-140.5 -36q-48 0 -96 16.5t-80 45.5l75 91q35 -36 88 -36q44 0 44 31q0 37 -58 37h-50l-1 44l78 96h-153v116h328v-90z" />
    <glyph glyph-name="acute" unicode="&#xb4;" horiz-adv-x="502" 
d="M100 608l105 176h197l-131 -176h-171z" />
    <glyph glyph-name="paragraph" unicode="&#xb6;" horiz-adv-x="837" 
d="M747 700v-930h-193v780h-69v-780h-193v363q-120 15 -186 89t-66 194q0 134 81.5 209t227.5 75h398z" />
    <glyph glyph-name="periodcentered" unicode="&#xb7;" horiz-adv-x="252" 
d="M15 210v209h222v-209h-222z" />
    <glyph glyph-name="cedilla" unicode="&#xb8;" horiz-adv-x="474" 
d="M223 -250q-73 0 -123 33l31 100q39 -21 73 -21q42 0 42 23q0 19 -60 19h-36v16l30 96h94l6 -53q94 -19 94 -101q0 -50 -41.5 -81t-109.5 -31z" />
    <glyph glyph-name="uni00B9" unicode="&#xb9;" horiz-adv-x="431" 
d="M336 531h85v-111h-369v111h130v173l-88 -57l-79 95l181 104h140v-315z" />
    <glyph glyph-name="ordmasculine" unicode="&#xba;" horiz-adv-x="498" 
d="M249 711q108 0 168.5 -59.5t60.5 -166.5t-60.5 -166.5t-168.5 -59.5t-168.5 59.5t-60.5 166.5t60.5 166.5t168.5 59.5zM249 392q34 0 34 93t-34 93t-34 -93t34 -93z" />
    <glyph glyph-name="guillemotright" unicode="&#xbb;" horiz-adv-x="674" 
d="M163 29l-143 99l131 175l-131 175l143 99l193 -206v-136zM461 29l-143 99l131 175l-131 175l143 99l193 -206v-136z" />
    <glyph glyph-name="onequarter" unicode="&#xbc;" horiz-adv-x="1045" 
d="M336 385h85v-111h-369v111h130v173l-88 -57l-79 95l181 104h140v-315zM321 0l364 700h154l-364 -700h-154zM845 0v73h-196v101l108 252h151l-101 -242h37l26 56h121v-56h44v-111h-44v-73h-146z" />
    <glyph glyph-name="onehalf" unicode="&#xbd;" horiz-adv-x="1065" 
d="M336 385h85v-111h-369v111h130v173l-88 -57l-79 95l181 104h140v-315zM321 0l364 700h154l-364 -700h-154zM713 0v105q5 5 38 31t48 40t39 38t34.5 44t10.5 37q0 29 -34 29q-27 0 -51 -16.5t-37 -43.5l-71 86q26 39 77 63t108 24q76 0 123 -35.5t47 -94.5
q0 -87 -157 -191h154v-116h-329z" />
    <glyph glyph-name="threequarters" unicode="&#xbe;" horiz-adv-x="976" 
d="M191 259q-48 0 -96 16.5t-80 45.5l75 91q35 -36 88 -36q44 0 44 31q0 37 -58 37h-50l-1 44l78 96h-153v116h328v-90l-83 -100q102 -27 102 -120q0 -59 -53.5 -95t-140.5 -36zM252 0l364 700h154l-364 -700h-154zM776 0v73h-196v101l108 252h151l-101 -242h37l26 56h121
v-56h44v-111h-44v-73h-146z" />
    <glyph glyph-name="questiondown" unicode="&#xbf;" horiz-adv-x="471" 
d="M145 260v209h222v-209h-222zM233 -250q-105 0 -169 46.5t-64 122.5q0 48 16.5 84.5t40 57.5t46.5 39t39.5 39t16.5 47h195q0 -54 -12.5 -93t-30.5 -58t-36 -32t-30.5 -26.5t-12.5 -31.5q0 -24 36 -24q24 0 53 13.5t50 36.5l100 -136q-39 -38 -104.5 -61.5t-133.5 -23.5z
" />
    <glyph glyph-name="Agrave" unicode="&#xc0;" horiz-adv-x="609" 
d="M252 745l-131 176h197l105 -176h-171zM-30 0l177 700h315l177 -700h-240l-21 126h-147l-21 -126h-240zM258 285h93l-45 266h-3z" />
    <glyph glyph-name="Aacute" unicode="&#xc1;" horiz-adv-x="609" 
d="M184 745l105 176h197l-131 -176h-171zM-30 0l177 700h315l177 -700h-240l-21 126h-147l-21 -126h-240zM258 285h93l-45 266h-3z" />
    <glyph glyph-name="Acircumflex" unicode="&#xc2;" horiz-adv-x="609" 
d="M86 745l138 176h162l138 -176h-186l-33 59l-33 -59h-186zM-30 0l177 700h315l177 -700h-240l-21 126h-147l-21 -126h-240zM258 285h93l-45 266h-3z" />
    <glyph glyph-name="Atilde" unicode="&#xc3;" horiz-adv-x="609" 
d="M360 739q-31 0 -63 21t-47 21q-35 0 -54 -40l-98 44q22 71 60.5 111t83.5 40q40 0 75 -21.5t49 -21.5q28 0 47 42l99 -35q-15 -76 -55 -118.5t-97 -42.5zM-30 0l177 700h315l177 -700h-240l-21 126h-147l-21 -126h-240zM258 285h93l-45 266h-3z" />
    <glyph glyph-name="Adieresis" unicode="&#xc4;" horiz-adv-x="609" 
d="M92 750v179h182v-179h-182zM335 750v179h182v-179h-182zM-30 0l177 700h315l177 -700h-240l-21 126h-147l-21 -126h-240zM258 285h93l-45 266h-3z" />
    <glyph glyph-name="Aring" unicode="&#xc5;" horiz-adv-x="609" 
d="M462 700l177 -700h-240l-21 126h-147l-21 -126h-240l177 700h25q-17 32 -17 70q0 62 44 106t106 44t106 -44t44 -106q0 -38 -17 -70h24zM305 820q-21 0 -35.5 -15t-14.5 -35q0 -21 14.5 -36t35.5 -15t35.5 15t14.5 36q0 20 -14.5 35t-35.5 15zM258 285h93l-45 266h-3z
" />
    <glyph glyph-name="AE" unicode="&#xc6;" horiz-adv-x="828" 
d="M-30 0l234 700h614v-161h-255l13 -108h205v-153h-187l14 -117h210v-161h-421l-10 126h-144l-33 -126h-240zM287 285h89l-19 256h-3z" />
    <glyph glyph-name="Ccedilla" unicode="&#xc7;" horiz-adv-x="562" 
d="M567 54q-83 -74 -213 -74h-3l2 -17q94 -19 94 -101q0 -50 -41.5 -81t-109.5 -31q-74 0 -123 33l31 100q39 -21 73 -21q42 0 42 23q0 19 -60 19h-36v16l23 73q-113 29 -174.5 121.5t-61.5 235.5q0 175 91 272.5t253 97.5q130 0 213 -74l-99 -146q-45 39 -104 39
q-114 0 -114 -189t114 -189q59 0 104 39z" />
    <glyph glyph-name="Egrave" unicode="&#xc8;" horiz-adv-x="514" 
d="M211 745l-131 176h197l105 -176h-171zM30 0v700h466v-173h-235v-96h198v-153h-198v-105h234v-173h-465z" />
    <glyph glyph-name="Eacute" unicode="&#xc9;" horiz-adv-x="514" 
d="M143 745l105 176h197l-131 -176h-171zM30 0v700h466v-173h-235v-96h198v-153h-198v-105h234v-173h-465z" />
    <glyph glyph-name="Ecircumflex" unicode="&#xca;" horiz-adv-x="514" 
d="M45 745l138 176h162l138 -176h-186l-33 59l-33 -59h-186zM30 0v700h466v-173h-235v-96h198v-153h-198v-105h234v-173h-465z" />
    <glyph glyph-name="Edieresis" unicode="&#xcb;" horiz-adv-x="514" 
d="M51 750v179h182v-179h-182zM294 750v179h182v-179h-182zM30 0v700h466v-173h-235v-96h198v-153h-198v-105h234v-173h-465z" />
    <glyph glyph-name="Igrave" unicode="&#xcc;" horiz-adv-x="291" 
d="M93 745l-131 176h197l105 -176h-171zM261 700v-700h-231v700h231z" />
    <glyph glyph-name="Iacute" unicode="&#xcd;" horiz-adv-x="291" 
d="M25 745l105 176h197l-131 -176h-171zM261 700v-700h-231v700h231z" />
    <glyph glyph-name="Icircumflex" unicode="&#xce;" horiz-adv-x="291" 
d="M-73 745l138 176h162l138 -176h-186l-33 59l-33 -59h-186zM261 700v-700h-231v700h231z" />
    <glyph glyph-name="Idieresis" unicode="&#xcf;" horiz-adv-x="291" 
d="M-67 750v179h182v-179h-182zM176 750v179h182v-179h-182zM261 700v-700h-231v700h231z" />
    <glyph glyph-name="Eth" unicode="&#xd0;" horiz-adv-x="657" 
d="M295 700q173 0 262.5 -89t89.5 -261t-89.5 -261t-262.5 -89h-265v283h-60v138h60v279h265zM310 181q53 0 76.5 37t23.5 131t-23.5 131t-76.5 37h-49v-96h100v-138h-100v-102h49z" />
    <glyph glyph-name="Ntilde" unicode="&#xd1;" horiz-adv-x="643" 
d="M377 739q-31 0 -63 21t-47 21q-35 0 -54 -40l-98 44q22 71 60.5 111t83.5 40q40 0 75 -21.5t49 -21.5q28 0 47 42l99 -35q-15 -76 -55 -118.5t-97 -42.5zM30 0v700h286l115 -515h3q-22 166 -22 246v269h201v-700h-289l-104 461h-3q14 -96 14 -207v-254h-201z" />
    <glyph glyph-name="Ograve" unicode="&#xd2;" horiz-adv-x="688" 
d="M291 745l-131 176h197l105 -176h-171zM344 720q161 0 247.5 -97t86.5 -273t-86.5 -273t-247.5 -97t-247.5 97t-86.5 273t86.5 273t247.5 97zM344 156q50 0 72 45t22 149t-22 149t-72 45t-72 -45t-22 -149t22 -149t72 -45z" />
    <glyph glyph-name="Oacute" unicode="&#xd3;" horiz-adv-x="688" 
d="M223 745l105 176h197l-131 -176h-171zM344 720q161 0 247.5 -97t86.5 -273t-86.5 -273t-247.5 -97t-247.5 97t-86.5 273t86.5 273t247.5 97zM344 156q50 0 72 45t22 149t-22 149t-72 45t-72 -45t-22 -149t22 -149t72 -45z" />
    <glyph glyph-name="Ocircumflex" unicode="&#xd4;" horiz-adv-x="688" 
d="M125 745l138 176h162l138 -176h-186l-33 59l-33 -59h-186zM344 720q161 0 247.5 -97t86.5 -273t-86.5 -273t-247.5 -97t-247.5 97t-86.5 273t86.5 273t247.5 97zM344 156q50 0 72 45t22 149t-22 149t-72 45t-72 -45t-22 -149t22 -149t72 -45z" />
    <glyph glyph-name="Otilde" unicode="&#xd5;" horiz-adv-x="688" 
d="M399 739q-31 0 -63 21t-47 21q-35 0 -54 -40l-98 44q22 71 60.5 111t83.5 40q40 0 75 -21.5t49 -21.5q28 0 47 42l99 -35q-15 -76 -55 -118.5t-97 -42.5zM344 720q161 0 247.5 -97t86.5 -273t-86.5 -273t-247.5 -97t-247.5 97t-86.5 273t86.5 273t247.5 97zM344 156
q50 0 72 45t22 149t-22 149t-72 45t-72 -45t-22 -149t22 -149t72 -45z" />
    <glyph glyph-name="Odieresis" unicode="&#xd6;" horiz-adv-x="688" 
d="M131 750v179h182v-179h-182zM374 750v179h182v-179h-182zM344 720q161 0 247.5 -97t86.5 -273t-86.5 -273t-247.5 -97t-247.5 97t-86.5 273t86.5 273t247.5 97zM344 156q50 0 72 45t22 149t-22 149t-72 45t-72 -45t-22 -149t22 -149t72 -45z" />
    <glyph glyph-name="multiply" unicode="&#xd7;" horiz-adv-x="529" 
d="M153 80l-111 111l112 113l-114 114l111 111l113 -113l112 113l111 -111l-112 -113l114 -114l-111 -111l-113 113z" />
    <glyph glyph-name="Oslash" unicode="&#xd8;" horiz-adv-x="688" 
d="M547 663q131 -91 131 -313q0 -176 -86.5 -273t-247.5 -97h-20l-31 -98h-189l47 148q-141 90 -141 320q0 176 86.5 273t247.5 97q22 0 32 -1l32 99h188zM344 544q-50 0 -72 -45t-22 -149q0 -95 19 -142l89 335q-5 1 -14 1zM344 156q50 2 72 46.5t22 147.5q0 78 -11 119
l-87 -313h4z" />
    <glyph glyph-name="Ugrave" unicode="&#xd9;" horiz-adv-x="640" 
d="M267 745l-131 176h197l105 -176h-171zM620 700v-444q0 -136 -76 -206t-224 -70t-224 70t-76 206v444h231v-459q0 -94 69 -94t69 94v459h231z" />
    <glyph glyph-name="Uacute" unicode="&#xda;" horiz-adv-x="640" 
d="M199 745l105 176h197l-131 -176h-171zM620 700v-444q0 -136 -76 -206t-224 -70t-224 70t-76 206v444h231v-459q0 -94 69 -94t69 94v459h231z" />
    <glyph glyph-name="Ucircumflex" unicode="&#xdb;" horiz-adv-x="640" 
d="M101 745l138 176h162l138 -176h-186l-33 59l-33 -59h-186zM620 700v-444q0 -136 -76 -206t-224 -70t-224 70t-76 206v444h231v-459q0 -94 69 -94t69 94v459h231z" />
    <glyph glyph-name="Udieresis" unicode="&#xdc;" horiz-adv-x="640" 
d="M107 750v179h182v-179h-182zM350 750v179h182v-179h-182zM620 700v-444q0 -136 -76 -206t-224 -70t-224 70t-76 206v444h231v-459q0 -94 69 -94t69 94v459h231z" />
    <glyph glyph-name="Yacute" unicode="&#xdd;" horiz-adv-x="625" 
d="M192 745l105 176h197l-131 -176h-171zM197 0v256l-217 444h250l83 -260l82 260h250l-217 -446v-254h-231z" />
    <glyph glyph-name="Thorn" unicode="&#xde;" horiz-adv-x="617" 
d="M30 0v700h231v-86h2q170 -1 257 -65.5t87 -188.5t-87 -188.5t-257 -65.5h-2v-106h-231zM261 269h46q65 0 65 91t-65 91h-46v-182z" />
    <glyph glyph-name="germandbls" unicode="&#xdf;" horiz-adv-x="710" 
d="M473 -20q-84 0 -160 54l90 123q18 -10 40 -10q20 0 32.5 9t12.5 23t-10 25.5t-21.5 18t-34.5 16.5q-31 14 -52 28.5t-39.5 46.5t-18.5 76t23.5 82t61.5 58v15q0 29 -14 46t-37 17q-24 0 -38.5 -16t-14.5 -42v-550h-222l1 393h-72v130l38 14q35 12 35 41v3q1 85 76.5 137
t198.5 52q129 0 208 -69t79 -181v-73h-56q-73 0 -73 -39q0 -10 5.5 -18.5t17.5 -15.5t22 -12t29.5 -13t30.5 -13q104 -49 104 -162q0 -87 -66.5 -140.5t-175.5 -53.5z" />
    <glyph glyph-name="agrave" unicode="&#xe0;" horiz-adv-x="544" 
d="M381 608h-171l-131 176h197zM263 570q256 0 256 -184v-386h-201v43q-29 -29 -70 -46t-79 -17q-71 0 -115 47.5t-44 124.5t59 124.5t155 47.5h79v29q0 54 -79 54q-63 0 -105 -32l-90 124q44 32 108 51.5t126 19.5zM303 156v68h-39q-39 0 -39 -49q0 -40 34 -40q25 0 44 21z
" />
    <glyph glyph-name="aacute" unicode="&#xe1;" horiz-adv-x="544" 
d="M477 784l-131 -176h-171l105 176h197zM263 570q256 0 256 -184v-386h-201v43q-29 -29 -70 -46t-79 -17q-71 0 -115 47.5t-44 124.5t59 124.5t155 47.5h79v29q0 54 -79 54q-63 0 -105 -32l-90 124q44 32 108 51.5t126 19.5zM303 156v68h-39q-39 0 -39 -49q0 -40 34 -40
q25 0 44 21z" />
    <glyph glyph-name="acircumflex" unicode="&#xe2;" horiz-adv-x="544" 
d="M268 657l-33 -59h-186l138 176h162l138 -176h-186zM263 570q256 0 256 -184v-386h-201v43q-29 -29 -70 -46t-79 -17q-71 0 -115 47.5t-44 124.5t59 124.5t155 47.5h79v29q0 54 -79 54q-63 0 -105 -32l-90 124q44 32 108 51.5t126 19.5zM303 156v68h-39q-39 0 -39 -49
q0 -40 34 -40q25 0 44 21z" />
    <glyph glyph-name="atilde" unicode="&#xe3;" horiz-adv-x="544" 
d="M234 640q-35 0 -54 -40l-98 44q22 71 60.5 111t83.5 40q40 0 75 -21.5t49 -21.5q28 0 47 42l99 -35q-15 -76 -55 -118.5t-97 -42.5q-31 0 -63 21t-47 21zM263 570q256 0 256 -184v-386h-201v43q-29 -29 -70 -46t-79 -17q-71 0 -115 47.5t-44 124.5t59 124.5t155 47.5h79
v29q0 54 -79 54q-63 0 -105 -32l-90 124q44 32 108 51.5t126 19.5zM303 156v68h-39q-39 0 -39 -49q0 -40 34 -40q25 0 44 21z" />
    <glyph glyph-name="adieresis" unicode="&#xe4;" horiz-adv-x="544" 
d="M247 750v-153h-182v153h182zM490 750v-153h-182v153h182zM263 570q256 0 256 -184v-386h-201v43q-29 -29 -70 -46t-79 -17q-71 0 -115 47.5t-44 124.5t59 124.5t155 47.5h79v29q0 54 -79 54q-63 0 -105 -32l-90 124q44 32 108 51.5t126 19.5zM303 156v68h-39
q-39 0 -39 -49q0 -40 34 -40q25 0 44 21z" />
    <glyph glyph-name="aring" unicode="&#xe5;" horiz-adv-x="544" 
d="M278 584q-62 0 -106 44.5t-44 106.5t44 106t106 44t106 -44t44 -106t-44 -106.5t-106 -44.5zM278 785q-21 0 -35.5 -15t-14.5 -35q0 -21 14.5 -36t35.5 -15t35.5 15t14.5 36q0 20 -14.5 35t-35.5 15zM263 570q256 0 256 -184v-386h-201v43q-29 -29 -70 -46t-79 -17
q-71 0 -115 47.5t-44 124.5t59 124.5t155 47.5h79v29q0 54 -79 54q-63 0 -105 -32l-90 124q44 32 108 51.5t126 19.5zM303 156v68h-39q-39 0 -39 -49q0 -40 34 -40q25 0 44 21z" />
    <glyph glyph-name="ae" unicode="&#xe6;" horiz-adv-x="864" 
d="M187 -20q-86 0 -131.5 45t-45.5 126q0 78 59.5 125.5t157.5 47.5h76v35q0 23 -20.5 35.5t-57.5 12.5q-58 0 -106 -32l-90 124q42 31 106.5 51t128.5 20q113 0 180 -47q67 47 148 47q124 0 193 -74t69 -206q0 -41 -10 -84h-315q25 -62 111 -62q61 0 116 31l82 -112
q-40 -37 -107.5 -60t-138.5 -23q-132 0 -208 73q-78 -73 -197 -73zM521 331h119q-1 42 -16 66t-40 24q-51 0 -63 -90zM259 135q34 0 57 36q-7 28 -10 53h-37q-44 0 -44 -51q0 -18 9.5 -28t24.5 -10z" />
    <glyph glyph-name="ccedilla" unicode="&#xe7;" horiz-adv-x="488" 
d="M409 188l99 -135q-70 -70 -194 -73l2 -17q94 -19 94 -101q0 -50 -41.5 -81t-109.5 -31q-73 0 -123 33l31 100q39 -21 73 -21q42 0 42 23q0 19 -60 19h-36v16l23 73q-90 27 -142 101.5t-52 180.5q0 133 79.5 214t209.5 81q131 0 204 -73l-99 -135q-24 31 -69 31
q-49 0 -72 -28.5t-23 -89.5t23 -89.5t72 -28.5q45 0 69 31z" />
    <glyph glyph-name="egrave" unicode="&#xe8;" horiz-adv-x="576" 
d="M392 608h-171l-131 176h197zM556 206h-315q25 -62 111 -62q62 0 116 31l82 -112q-39 -38 -106.5 -60.5t-139.5 -22.5q-136 0 -212.5 78t-76.5 217t76.5 217t212.5 78q124 0 193 -74t69 -206q0 -41 -10 -84zM233 331h119q-1 42 -16 66t-40 24q-51 0 -63 -90z" />
    <glyph glyph-name="eacute" unicode="&#xe9;" horiz-adv-x="576" 
d="M488 784l-131 -176h-171l105 176h197zM556 206h-315q25 -62 111 -62q62 0 116 31l82 -112q-39 -38 -106.5 -60.5t-139.5 -22.5q-136 0 -212.5 78t-76.5 217t76.5 217t212.5 78q124 0 193 -74t69 -206q0 -41 -10 -84zM233 331h119q-1 42 -16 66t-40 24q-51 0 -63 -90z" />
    <glyph glyph-name="ecircumflex" unicode="&#xea;" horiz-adv-x="576" 
d="M279 657l-33 -59h-186l138 176h162l138 -176h-186zM556 206h-315q25 -62 111 -62q62 0 116 31l82 -112q-39 -38 -106.5 -60.5t-139.5 -22.5q-136 0 -212.5 78t-76.5 217t76.5 217t212.5 78q124 0 193 -74t69 -206q0 -41 -10 -84zM233 331h119q-1 42 -16 66t-40 24
q-51 0 -63 -90z" />
    <glyph glyph-name="edieresis" unicode="&#xeb;" horiz-adv-x="576" 
d="M258 750v-153h-182v153h182zM501 750v-153h-182v153h182zM556 206h-315q25 -62 111 -62q62 0 116 31l82 -112q-39 -38 -106.5 -60.5t-139.5 -22.5q-136 0 -212.5 78t-76.5 217t76.5 217t212.5 78q124 0 193 -74t69 -206q0 -41 -10 -84zM233 331h119q-1 42 -16 66t-40 24
q-51 0 -63 -90z" />
    <glyph glyph-name="igrave" unicode="&#xec;" horiz-adv-x="282" 
d="M244 608h-171l-131 176h197zM252 550v-550h-222v550h222z" />
    <glyph glyph-name="iacute" unicode="&#xed;" horiz-adv-x="282" 
d="M38 608l105 176h197l-131 -176h-171zM252 550v-550h-222v550h222z" />
    <glyph glyph-name="icircumflex" unicode="&#xee;" horiz-adv-x="282" 
d="M-88 598l138 176h162l138 -176h-186l-33 59l-33 -59h-186zM252 550v-550h-222v550h222z" />
    <glyph glyph-name="idieresis" unicode="&#xef;" horiz-adv-x="282" 
d="M-72 597v153h182v-153h-182zM171 597v153h182v-153h-182zM252 550v-550h-222v550h222z" />
    <glyph glyph-name="eth" unicode="&#xf0;" horiz-adv-x="596" 
d="M367 680q102 -64 158 -159t56 -208q0 -157 -75 -245t-208 -88t-208 74t-75 206q0 112 63 180.5t166 68.5q41 0 76 -13q-20 40 -59 68l-40 -44l-122 73l23 26q-40 8 -63 11l43 140q68 -9 130 -29l63 70l110 -90zM355 272q0 61 -2 87q-27 11 -48 11q-29 0 -46.5 -30.5
t-17.5 -79.5t15.5 -79.5t41.5 -30.5t41.5 33.5t15.5 88.5z" />
    <glyph glyph-name="ntilde" unicode="&#xf1;" horiz-adv-x="569" 
d="M234 640q-35 0 -54 -40l-98 44q22 71 60.5 111t83.5 40q40 0 75 -21.5t49 -21.5q28 0 47 42l99 -35q-15 -76 -55 -118.5t-97 -42.5q-31 0 -63 21t-47 21zM393 570q68 0 109.5 -45t41.5 -119v-406h-222v365q0 35 -25 35q-27 0 -45 -39v-361h-222v550h212v-69
q23 40 65 64.5t86 24.5z" />
    <glyph glyph-name="ograve" unicode="&#xf2;" horiz-adv-x="598" 
d="M402 608h-171l-131 176h197zM299 570q134 0 209 -78t75 -217t-75 -217t-209 -78t-209 78t-75 217t75 217t209 78zM299 150q58 0 58 125t-58 125t-58 -125t58 -125z" />
    <glyph glyph-name="oacute" unicode="&#xf3;" horiz-adv-x="598" 
d="M196 608l105 176h197l-131 -176h-171zM299 570q134 0 209 -78t75 -217t-75 -217t-209 -78t-209 78t-75 217t75 217t209 78zM299 150q58 0 58 125t-58 125t-58 -125t58 -125z" />
    <glyph glyph-name="ocircumflex" unicode="&#xf4;" horiz-adv-x="598" 
d="M70 598l138 176h162l138 -176h-186l-33 59l-33 -59h-186zM299 570q134 0 209 -78t75 -217t-75 -217t-209 -78t-209 78t-75 217t75 217t209 78zM299 150q58 0 58 125t-58 125t-58 -125t58 -125z" />
    <glyph glyph-name="otilde" unicode="&#xf5;" horiz-adv-x="598" 
d="M354 598q-31 0 -63 21t-47 21q-35 0 -54 -40l-98 44q22 71 60.5 111t83.5 40q40 0 75 -21.5t49 -21.5q28 0 47 42l99 -35q-15 -76 -55 -118.5t-97 -42.5zM299 570q134 0 209 -78t75 -217t-75 -217t-209 -78t-209 78t-75 217t75 217t209 78zM299 150q58 0 58 125t-58 125
t-58 -125t58 -125z" />
    <glyph glyph-name="odieresis" unicode="&#xf6;" horiz-adv-x="598" 
d="M86 597v153h182v-153h-182zM329 597v153h182v-153h-182zM299 570q134 0 209 -78t75 -217t-75 -217t-209 -78t-209 78t-75 217t75 217t209 78zM299 150q58 0 58 125t-58 125t-58 -125t58 -125z" />
    <glyph glyph-name="divide" unicode="&#xf7;" horiz-adv-x="474" 
d="M124 505v176h224v-176h-224zM15 262v157h444v-157h-444zM124 0v176h224v-176h-224z" />
    <glyph glyph-name="oslash" unicode="&#xf8;" horiz-adv-x="598" 
d="M583 275q0 -139 -75 -217t-208 -78l-20 -62h-189l35 109q-111 76 -111 248q0 139 75 217t209 78h1l19 61h189l-35 -109q110 -76 110 -247zM299 400q-58 0 -58 -125q0 -35 4 -55l60 180h-6zM299 150q58 0 58 125q0 36 -4 57l-63 -181q3 -1 9 -1z" />
    <glyph glyph-name="ugrave" unicode="&#xf9;" horiz-adv-x="562" 
d="M384 608h-171l-131 176h197zM310 550h222v-550h-205v69q-23 -40 -65 -64.5t-86 -24.5q-68 0 -109.5 45t-41.5 119v406h222v-365q0 -35 25 -35q23 0 38 26v374z" />
    <glyph glyph-name="uacute" unicode="&#xfa;" horiz-adv-x="562" 
d="M480 784l-131 -176h-171l105 176h197zM310 550h222v-550h-205v69q-23 -40 -65 -64.5t-86 -24.5q-68 0 -109.5 45t-41.5 119v406h222v-365q0 -35 25 -35q23 0 38 26v374z" />
    <glyph glyph-name="ucircumflex" unicode="&#xfb;" horiz-adv-x="562" 
d="M271 657l-33 -59h-186l138 176h162l138 -176h-186zM310 550h222v-550h-205v69q-23 -40 -65 -64.5t-86 -24.5q-68 0 -109.5 45t-41.5 119v406h222v-365q0 -35 25 -35q23 0 38 26v374z" />
    <glyph glyph-name="udieresis" unicode="&#xfc;" horiz-adv-x="562" 
d="M250 750v-153h-182v153h182zM493 750v-153h-182v153h182zM310 550h222v-550h-205v69q-23 -40 -65 -64.5t-86 -24.5q-68 0 -109.5 45t-41.5 119v406h222v-365q0 -35 25 -35q23 0 38 26v374z" />
    <glyph glyph-name="yacute" unicode="&#xfd;" horiz-adv-x="553" 
d="M476 784l-131 -176h-171l105 176h197zM340 550h233l-169 -575q-34 -116 -124.5 -170.5t-249.5 -54.5l-22 149q99 5 145 28.5t59 72.5h-85l-147 550h234l57 -353z" />
    <glyph glyph-name="thorn" unicode="&#xfe;" horiz-adv-x="602" 
d="M399 570q88 0 138 -78t50 -217t-57 -217t-158 -78q-67 0 -120 47v-257h-222v980h222v-254q25 34 64.5 54t82.5 20zM308 150q53 0 53 125t-53 125q-34 0 -56 -38v-175q22 -37 56 -37z" />
    <glyph glyph-name="ydieresis" unicode="&#xff;" horiz-adv-x="553" 
d="M246 750v-153h-182v153h182zM489 750v-153h-182v153h182zM340 550h233l-169 -575q-34 -116 -124.5 -170.5t-249.5 -54.5l-22 149q99 5 145 28.5t59 72.5h-85l-147 550h234l57 -353z" />
    <glyph glyph-name="Amacron" unicode="&#x100;" horiz-adv-x="609" 
d="M140 767v138h330v-138h-330zM-30 0l177 700h315l177 -700h-240l-21 126h-147l-21 -126h-240zM258 285h93l-45 266h-3z" />
    <glyph glyph-name="amacron" unicode="&#x101;" horiz-adv-x="544" 
d="M443 752v-138h-330v138h330zM263 570q256 0 256 -184v-386h-201v43q-29 -29 -70 -46t-79 -17q-71 0 -115 47.5t-44 124.5t59 124.5t155 47.5h79v29q0 54 -79 54q-63 0 -105 -32l-90 124q44 32 108 51.5t126 19.5zM303 156v68h-39q-39 0 -39 -49q0 -40 34 -40q25 0 44 21z
" />
    <glyph glyph-name="Abreve" unicode="&#x102;" horiz-adv-x="609" 
d="M381 935h117q0 -86 -53 -139t-140 -53t-140 53t-53 139h117q0 -29 21 -47t55 -18t55 18t21 47zM-30 0l177 700h315l177 -700h-240l-21 126h-147l-21 -126h-240zM258 285h93l-45 266h-3z" />
    <glyph glyph-name="abreve" unicode="&#x103;" horiz-adv-x="544" 
d="M278 602q-87 0 -140 53t-53 139h117q0 -29 21 -47t55 -18t55 18t21 47h117q0 -86 -53 -139t-140 -53zM263 570q256 0 256 -184v-386h-201v43q-29 -29 -70 -46t-79 -17q-71 0 -115 47.5t-44 124.5t59 124.5t155 47.5h79v29q0 54 -79 54q-63 0 -105 -32l-90 124
q44 32 108 51.5t126 19.5zM303 156v68h-39q-39 0 -39 -49q0 -40 34 -40q25 0 44 21z" />
    <glyph glyph-name="Aogonek" unicode="&#x104;" horiz-adv-x="609" 
d="M592 0q-58 -11 -93.5 -37.5t-35.5 -58.5q0 -17 12.5 -27.5t32.5 -10.5q46 0 74 14l-12 -120q-37 -10 -94 -10q-64 0 -102.5 34.5t-38.5 90.5q0 72 64 125l-21 126h-147l-21 -126h-240l177 700h315l177 -700h-47zM258 285h93l-45 266h-3z" />
    <glyph glyph-name="aogonek" unicode="&#x105;" horiz-adv-x="544" 
d="M263 570q256 0 256 -184v-386h-9q-58 -11 -93.5 -37.5t-35.5 -58.5q0 -17 12.5 -27.5t32.5 -10.5q46 0 74 14l-12 -120q-37 -10 -94 -10q-64 0 -102.5 34.5t-38.5 90.5q0 72 65 126v42q-29 -29 -70 -46t-79 -17q-71 0 -115 47.5t-44 124.5t59 124.5t155 47.5h79v29
q0 54 -79 54q-63 0 -105 -32l-90 124q44 32 108 51.5t126 19.5zM303 156v68h-39q-39 0 -39 -49q0 -40 34 -40q25 0 44 21z" />
    <glyph glyph-name="Cacute" unicode="&#x106;" horiz-adv-x="562" 
d="M192 745l105 176h197l-131 -176h-171zM468 200l99 -146q-83 -74 -213 -74q-162 0 -253 97.5t-91 272.5t91 272.5t253 97.5q130 0 213 -74l-99 -146q-45 39 -104 39q-114 0 -114 -189t114 -189q59 0 104 39z" />
    <glyph glyph-name="cacute" unicode="&#x107;" horiz-adv-x="488" 
d="M180 608l105 176h197l-131 -176h-171zM304 -20q-130 0 -209.5 81t-79.5 214t79.5 214t209.5 81q131 0 204 -73l-99 -135q-24 31 -69 31q-49 0 -72 -28.5t-23 -89.5t23 -89.5t72 -28.5q45 0 69 31l99 -135q-73 -73 -204 -73z" />
    <glyph glyph-name="Cdotaccent" unicode="&#x10a;" horiz-adv-x="562" 
d="M222 750v179h182v-179h-182zM468 200l99 -146q-83 -74 -213 -74q-162 0 -253 97.5t-91 272.5t91 272.5t253 97.5q130 0 213 -74l-99 -146q-45 39 -104 39q-114 0 -114 -189t114 -189q59 0 104 39z" />
    <glyph glyph-name="cdotaccent" unicode="&#x10b;" horiz-adv-x="488" 
d="M192 618v179h182v-179h-182zM304 -20q-130 0 -209.5 81t-79.5 214t79.5 214t209.5 81q131 0 204 -73l-99 -135q-24 31 -69 31q-49 0 -72 -28.5t-23 -89.5t23 -89.5t72 -28.5q45 0 69 31l99 -135q-73 -73 -204 -73z" />
    <glyph glyph-name="Ccaron" unicode="&#x10c;" horiz-adv-x="562" 
d="M232 745l-138 176h186l33 -59l33 59h186l-138 -176h-162zM468 200l99 -146q-83 -74 -213 -74q-162 0 -253 97.5t-91 272.5t91 272.5t253 97.5q130 0 213 -74l-99 -146q-45 39 -104 39q-114 0 -114 -189t114 -189q59 0 104 39z" />
    <glyph glyph-name="ccaron" unicode="&#x10d;" horiz-adv-x="488" 
d="M202 598l-138 176h186l33 -59l33 59h186l-138 -176h-162zM304 -20q-130 0 -209.5 81t-79.5 214t79.5 214t209.5 81q131 0 204 -73l-99 -135q-24 31 -69 31q-49 0 -72 -28.5t-23 -89.5t23 -89.5t72 -28.5q45 0 69 31l99 -135q-73 -73 -204 -73z" />
    <glyph glyph-name="Dcaron" unicode="&#x10e;" horiz-adv-x="657" 
d="M228 745l-138 176h186l33 -59l33 59h186l-138 -176h-162zM295 0h-265v700h265q173 0 262.5 -89t89.5 -261t-89.5 -261t-262.5 -89zM310 181q53 0 76.5 37t23.5 131t-23.5 131t-76.5 37h-49v-336h49z" />
    <glyph glyph-name="dcaron" unicode="&#x10f;" horiz-adv-x="807" 
d="M224 -20q-98 0 -153.5 78t-55.5 217t57 217t158 78q67 0 120 -47v227h222v-750h-201v48q-62 -68 -147 -68zM626 478l9 254h155l-41 -254h-123zM294 150q34 0 56 38v175q-22 37 -56 37q-53 0 -53 -125t53 -125z" />
    <glyph glyph-name="Dcroat" unicode="&#x110;" horiz-adv-x="657" 
d="M295 700q173 0 262.5 -89t89.5 -261t-89.5 -261t-262.5 -89h-265v283h-60v138h60v279h265zM310 181q53 0 76.5 37t23.5 131t-23.5 131t-76.5 37h-49v-96h100v-138h-100v-102h49z" />
    <glyph glyph-name="dcroat" unicode="&#x111;" horiz-adv-x="608" 
d="M618 694v-105h-46v-589h-201v48q-62 -68 -147 -68q-98 0 -153.5 78t-55.5 217t57 217t158 78q67 0 120 -47v66h-122v105h122v56h222v-56h46zM350 188v175q-22 37 -56 37q-53 0 -53 -125t53 -125q34 0 56 38z" />
    <glyph glyph-name="Emacron" unicode="&#x112;" horiz-adv-x="514" 
d="M99 767v138h330v-138h-330zM30 0v700h466v-173h-235v-96h198v-153h-198v-105h234v-173h-465z" />
    <glyph glyph-name="emacron" unicode="&#x113;" horiz-adv-x="576" 
d="M454 752v-138h-330v138h330zM556 206h-315q25 -62 111 -62q62 0 116 31l82 -112q-39 -38 -106.5 -60.5t-139.5 -22.5q-136 0 -212.5 78t-76.5 217t76.5 217t212.5 78q124 0 193 -74t69 -206q0 -41 -10 -84zM233 331h119q-1 42 -16 66t-40 24q-51 0 -63 -90z" />
    <glyph glyph-name="Edotaccent" unicode="&#x116;" horiz-adv-x="514" 
d="M173 750v179h182v-179h-182zM30 0v700h466v-173h-235v-96h198v-153h-198v-105h234v-173h-465z" />
    <glyph glyph-name="edotaccent" unicode="&#x117;" horiz-adv-x="576" 
d="M380 797v-179h-182v179h182zM556 206h-315q25 -62 111 -62q62 0 116 31l82 -112q-39 -38 -106.5 -60.5t-139.5 -22.5q-136 0 -212.5 78t-76.5 217t76.5 217t212.5 78q124 0 193 -74t69 -206q0 -41 -10 -84zM233 331h119q-1 42 -16 66t-40 24q-51 0 -63 -90z" />
    <glyph glyph-name="Eogonek" unicode="&#x118;" horiz-adv-x="514" 
d="M496 527h-235v-96h198v-153h-198v-105h234v-173q-58 -11 -93.5 -37.5t-35.5 -58.5q0 -17 12.5 -27.5t32.5 -10.5q46 0 74 14l-12 -120q-37 -10 -94 -10q-64 0 -102.5 34.5t-38.5 90.5q0 72 64 125h-272v700h466v-173z" />
    <glyph glyph-name="eogonek" unicode="&#x119;" horiz-adv-x="576" 
d="M556 206h-315q25 -62 111 -62q62 0 116 31l82 -112q-54 -53 -157 -74q-41 -14 -64.5 -36.5t-23.5 -48.5q0 -17 12.5 -27.5t32.5 -10.5q46 0 74 14l-12 -120q-37 -10 -94 -10q-64 0 -102.5 34.5t-38.5 90.5q0 64 50 112q-102 21 -157 96t-55 192q0 139 76.5 217t212.5 78
q124 0 193 -74t69 -206q0 -41 -10 -84zM233 331h119q-1 42 -16 66t-40 24q-51 0 -63 -90z" />
    <glyph glyph-name="Ecaron" unicode="&#x11a;" horiz-adv-x="514" 
d="M183 745l-138 176h186l33 -59l33 59h186l-138 -176h-162zM30 0v700h466v-173h-235v-96h198v-153h-198v-105h234v-173h-465z" />
    <glyph glyph-name="ecaron" unicode="&#x11b;" horiz-adv-x="576" 
d="M370 598h-162l-138 176h186l33 -59l33 59h186zM556 206h-315q25 -62 111 -62q62 0 116 31l82 -112q-39 -38 -106.5 -60.5t-139.5 -22.5q-136 0 -212.5 78t-76.5 217t76.5 217t212.5 78q124 0 193 -74t69 -206q0 -41 -10 -84zM233 331h119q-1 42 -16 66t-40 24
q-51 0 -63 -90z" />
    <glyph glyph-name="Gbreve" unicode="&#x11e;" horiz-adv-x="650" 
d="M408 935h117q0 -86 -53 -139t-140 -53t-140 53t-53 139h117q0 -29 21 -47t55 -18t55 18t21 47zM620 409v-345q-43 -38 -116.5 -61t-149.5 -23q-162 0 -253 97.5t-91 272.5t95.5 272.5t265.5 97.5q134 0 232 -87l-99 -136q-59 52 -120 52q-134 0 -134 -199
q0 -98 29.5 -148.5t84.5 -50.5q19 0 41 5v105h-51v148h266z" />
    <glyph glyph-name="gbreve" unicode="&#x11f;" horiz-adv-x="604" 
d="M362 794h117q0 -86 -53 -139t-140 -53t-140 53t-53 139h117q0 -29 21 -47t55 -18t55 18t21 47zM280 -250q-60 0 -120 15t-97 40l23 156q113 -48 179 -48q87 0 87 83v48q-56 -64 -149 -64q-88 0 -138 78t-50 217t57 217t158 78q39 0 76 -18t63 -48v46h205v-540
q0 -128 -74.5 -194t-219.5 -66zM294 150q36 0 58 42v167q-22 41 -58 41q-53 0 -53 -125t53 -125z" />
    <glyph glyph-name="Gdotaccent" unicode="&#x120;" horiz-adv-x="650" 
d="M241 750v179h182v-179h-182zM620 409v-345q-43 -38 -116.5 -61t-149.5 -23q-162 0 -253 97.5t-91 272.5t95.5 272.5t265.5 97.5q134 0 232 -87l-99 -136q-59 52 -120 52q-134 0 -134 -199q0 -98 29.5 -148.5t84.5 -50.5q19 0 41 5v105h-51v148h266z" />
    <glyph glyph-name="gdotaccent" unicode="&#x121;" horiz-adv-x="604" 
d="M195 618v179h182v-179h-182zM280 -250q-60 0 -120 15t-97 40l23 156q113 -48 179 -48q87 0 87 83v48q-56 -64 -149 -64q-88 0 -138 78t-50 217t57 217t158 78q39 0 76 -18t63 -48v46h205v-540q0 -128 -74.5 -194t-219.5 -66zM294 150q36 0 58 42v167q-22 41 -58 41
q-53 0 -53 -125t53 -125z" />
    <glyph glyph-name="Gcommaaccent" unicode="&#x122;" horiz-adv-x="650" 
d="M620 409v-345q-43 -38 -116.5 -61t-149.5 -23q-162 0 -253 97.5t-91 272.5t95.5 272.5t265.5 97.5q134 0 232 -87l-99 -136q-59 52 -120 52q-134 0 -134 -199q0 -98 29.5 -148.5t84.5 -50.5q19 0 41 5v105h-51v148h266zM245 -344l-8 74q89 10 93 93h-93v129h222v-94
q0 -95 -58.5 -148.5t-155.5 -53.5z" />
    <glyph glyph-name="gcommaaccent" unicode="&#x123;" horiz-adv-x="604" 
d="M413 914l8 -74q-89 -10 -93 -93h93v-129h-222v94q0 95 58.5 148.5t155.5 53.5zM280 -250q-60 0 -120 15t-97 40l23 156q113 -48 179 -48q87 0 87 83v48q-56 -64 -149 -64q-88 0 -138 78t-50 217t57 217t158 78q39 0 76 -18t63 -48v46h205v-540q0 -128 -74.5 -194
t-219.5 -66zM294 150q36 0 58 42v167q-22 41 -58 41q-53 0 -53 -125t53 -125z" />
    <glyph glyph-name="Hbar" unicode="&#x126;" horiz-adv-x="652" 
d="M669 606v-109h-47v-497h-231v277h-130v-277h-231v497h-47v109h47v94h231v-94h130v94h231v-94h47zM391 446v51h-130v-51h130z" />
    <glyph glyph-name="hbar" unicode="&#x127;" horiz-adv-x="569" 
d="M393 570q71 0 111 -43.5t40 -120.5v-406h-222v365q0 35 -27 35q-25 0 -43 -32v-368h-222v589h-60v105h60v56h222v-56h137v-105h-137v-93q25 34 63 54t78 20z" />
    <glyph glyph-name="Imacron" unicode="&#x12a;" horiz-adv-x="291" 
d="M-19 767v138h330v-138h-330zM261 700v-700h-231v700h231z" />
    <glyph glyph-name="imacron" unicode="&#x12b;" horiz-adv-x="282" 
d="M306 752v-138h-330v138h330zM252 550v-550h-222v550h222z" />
    <glyph glyph-name="Iogonek" unicode="&#x12e;" horiz-adv-x="291" 
d="M30 700h231v-700h-38q-58 -11 -93.5 -37.5t-35.5 -58.5q0 -17 12.5 -27.5t32.5 -10.5q46 0 74 14l-12 -120q-37 -10 -94 -10q-64 0 -102.5 34.5t-38.5 90.5q0 72 64 125v700z" />
    <glyph glyph-name="iogonek" unicode="&#x12f;" horiz-adv-x="282" 
d="M29 750h224v-154h-224v154zM30 0v550h222v-550h-14q-58 -11 -93.5 -37.5t-35.5 -58.5q0 -17 12.5 -27.5t32.5 -10.5q46 0 74 14l-12 -120q-37 -10 -94 -10q-64 0 -102.5 34.5t-38.5 90.5q0 72 64 125h-15z" />
    <glyph glyph-name="Idotaccent" unicode="&#x130;" horiz-adv-x="291" 
d="M55 750v179h182v-179h-182zM261 700v-700h-231v700h231z" />
    <glyph glyph-name="dotlessi" unicode="&#x131;" horiz-adv-x="282" 
d="M252 550v-550h-222v550h222z" />
    <glyph glyph-name="IJ" unicode="&#x132;" horiz-adv-x="774" 
d="M261 700v-700h-231v700h231zM488 -20q-58 0 -112.5 20.5t-84.5 53.5l99 146q37 -39 74 -39q49 0 49 62v304h-161v173h392l-1 -467q-1 -114 -71 -183.5t-184 -69.5z" />
    <glyph glyph-name="ij" unicode="&#x133;" horiz-adv-x="567" 
d="M29 596v154h224v-154h-224zM314 596v154h224v-154h-224zM30 0v550h222v-550h-222zM237 -250l-23 155q101 48 101 129v516h222v-498q0 -123 -83 -209.5t-217 -92.5z" />
    <glyph glyph-name="Kcommaaccent" unicode="&#x136;" horiz-adv-x="656" 
d="M261 278v-278h-231v700h231v-269h54l119 269h226l-153 -309l174 -391h-251l-118 278h-51zM213 -177v129h222v-94q0 -95 -58.5 -148.5t-155.5 -53.5l-8 74q89 10 93 93h-93z" />
    <glyph glyph-name="kcommaaccent" unicode="&#x137;" horiz-adv-x="575" 
d="M30 0v750h222v-418h25l95 218h221l-129 -263l131 -287h-225l-97 214h-21v-214h-222zM198 -344l-8 74q89 10 93 93h-93v129h222v-94q0 -95 -58.5 -148.5t-155.5 -53.5z" />
    <glyph glyph-name="kgreenlandic" unicode="&#x138;" horiz-adv-x="575" 
d="M30 0v550h222v-218h25l95 218h221l-129 -263l131 -287h-225l-97 214h-21v-214h-222z" />
    <glyph glyph-name="Lacute" unicode="&#x139;" horiz-adv-x="500" 
d="M25 745l105 176h197l-131 -176h-171zM495 173v-173h-465v700h231v-527h234z" />
    <glyph glyph-name="lacute" unicode="&#x13a;" horiz-adv-x="317" 
d="M40 795l105 176h197l-131 -176h-171zM292 157l22 -156q-62 -21 -121 -21q-79 0 -123.5 43.5t-44.5 127.5v599h222v-574q0 -25 19 -25q8 0 26 6z" />
    <glyph glyph-name="Lcommaaccent" unicode="&#x13b;" horiz-adv-x="500" 
d="M495 173v-173h-465v700h231v-527h234zM152 -344l-8 74q89 10 93 93h-93v129h222v-94q0 -95 -58.5 -148.5t-155.5 -53.5z" />
    <glyph glyph-name="lcommaaccent" unicode="&#x13c;" horiz-adv-x="317" 
d="M292 157l22 -156q-62 -21 -121 -21q-79 0 -123.5 43.5t-44.5 127.5v599h222v-574q0 -25 19 -25q8 0 26 6zM57 -344l-8 74q89 10 93 93h-93v129h222v-94q0 -95 -58.5 -148.5t-155.5 -53.5z" />
    <glyph glyph-name="Lcaron" unicode="&#x13d;" horiz-adv-x="500" 
d="M335 457l9 254h155l-41 -254h-123zM495 173v-173h-465v700h231v-527h234z" />
    <glyph glyph-name="lcaron" unicode="&#x13e;" horiz-adv-x="502" 
d="M292 157l22 -156q-62 -21 -121 -21q-79 0 -123.5 43.5t-44.5 127.5v599h222v-574q0 -25 19 -25q8 0 26 6zM321 478l9 254h155l-41 -254h-123z" />
    <glyph glyph-name="Ldot" unicode="&#x13f;" horiz-adv-x="500" 
d="M495 173v-173h-465v700h231v-527h234zM294 279v209h222v-209h-222z" />
    <glyph glyph-name="ldot" unicode="&#x140;" horiz-adv-x="518" 
d="M292 157l22 -156q-62 -21 -121 -21q-79 0 -123.5 43.5t-44.5 127.5v599h222v-574q0 -25 19 -25q8 0 26 6zM291 298v209h222v-209h-222z" />
    <glyph glyph-name="Lslash" unicode="&#x141;" horiz-adv-x="500" 
d="M30 0v184l-33 -21l-71 122l104 67v348h231v-197l83 54l71 -122l-154 -101v-161h234v-173h-465z" />
    <glyph glyph-name="lslash" unicode="&#x142;" horiz-adv-x="421" 
d="M336 151q8 0 26 6l22 -156q-62 -21 -121 -21q-79 0 -123.5 43.5t-44.5 127.5v83l-45 -26l-71 122l116 67v353h222v-225l53 30l71 -122l-124 -71v-186q0 -25 19 -25z" />
    <glyph glyph-name="Nacute" unicode="&#x143;" horiz-adv-x="643" 
d="M201 745l105 176h197l-131 -176h-171zM30 0v700h286l115 -515h3q-22 166 -22 246v269h201v-700h-289l-104 461h-3q14 -96 14 -207v-254h-201z" />
    <glyph glyph-name="nacute" unicode="&#x144;" horiz-adv-x="569" 
d="M488 784l-131 -176h-171l105 176h197zM393 570q68 0 109.5 -45t41.5 -119v-406h-222v365q0 35 -25 35q-27 0 -45 -39v-361h-222v550h212v-69q23 40 65 64.5t86 24.5z" />
    <glyph glyph-name="Ncommaaccent" unicode="&#x145;" horiz-adv-x="643" 
d="M30 0v700h286l115 -515h3q-22 166 -22 246v269h201v-700h-289l-104 461h-3q14 -96 14 -207v-254h-201zM218 -344l-8 74q89 10 93 93h-93v129h222v-94q0 -95 -58.5 -148.5t-155.5 -53.5z" />
    <glyph glyph-name="ncommaaccent" unicode="&#x146;" horiz-adv-x="569" 
d="M393 570q68 0 109.5 -45t41.5 -119v-406h-222v365q0 35 -25 35q-27 0 -45 -39v-361h-222v550h212v-69q23 40 65 64.5t86 24.5zM173 -177v129h222v-94q0 -95 -58.5 -148.5t-155.5 -53.5l-8 74q89 10 93 93h-93z" />
    <glyph glyph-name="Ncaron" unicode="&#x147;" horiz-adv-x="643" 
d="M241 745l-138 176h186l33 -59l33 59h186l-138 -176h-162zM30 0v700h286l115 -515h3q-22 166 -22 246v269h201v-700h-289l-104 461h-3q14 -96 14 -207v-254h-201z" />
    <glyph glyph-name="ncaron" unicode="&#x148;" horiz-adv-x="569" 
d="M370 598h-162l-138 176h186l33 -59l33 59h186zM393 570q68 0 109.5 -45t41.5 -119v-406h-222v365q0 35 -25 35q-27 0 -45 -39v-361h-222v550h212v-69q23 40 65 64.5t86 24.5z" />
    <glyph glyph-name="Eng" unicode="&#x14a;" horiz-adv-x="643" 
d="M412 700h201v-697v-3q-1 -112 -71.5 -181t-183.5 -69q-58 0 -112.5 20.5t-84.5 53.5l99 146q37 -39 74 -39q26 0 37 16t12 53h-59l-104 461h-3q14 -96 14 -207v-254h-201v700h286l115 -515h3q-22 166 -22 246v269z" />
    <glyph glyph-name="eng" unicode="&#x14b;" horiz-adv-x="569" 
d="M264 -250l-43 155q101 48 101 129v331q0 35 -25 35q-27 0 -45 -39v-361h-222v550h212v-69q23 40 65 64.5t86 24.5q68 0 109.5 -45t41.5 -119v-354q0 -121 -77 -204t-203 -98z" />
    <glyph glyph-name="Omacron" unicode="&#x14c;" horiz-adv-x="688" 
d="M179 767v138h330v-138h-330zM344 720q161 0 247.5 -97t86.5 -273t-86.5 -273t-247.5 -97t-247.5 97t-86.5 273t86.5 273t247.5 97zM344 156q50 0 72 45t22 149t-22 149t-72 45t-72 -45t-22 -149t22 -149t72 -45z" />
    <glyph glyph-name="omacron" unicode="&#x14d;" horiz-adv-x="598" 
d="M464 752v-138h-330v138h330zM299 570q134 0 209 -78t75 -217t-75 -217t-209 -78t-209 78t-75 217t75 217t209 78zM299 150q58 0 58 125t-58 125t-58 -125t58 -125z" />
    <glyph glyph-name="Ohungarumlaut" unicode="&#x150;" horiz-adv-x="688" 
d="M146 745l105 176h187l-124 -176h-168zM366 745l105 176h187l-124 -176h-168zM344 720q161 0 247.5 -97t86.5 -273t-86.5 -273t-247.5 -97t-247.5 97t-86.5 273t86.5 273t247.5 97zM344 156q50 0 72 45t22 149t-22 149t-72 45t-72 -45t-22 -149t22 -149t72 -45z" />
    <glyph glyph-name="ohungarumlaut" unicode="&#x151;" horiz-adv-x="598" 
d="M101 608l105 176h187l-124 -176h-168zM321 608l105 176h187l-124 -176h-168zM299 570q134 0 209 -78t75 -217t-75 -217t-209 -78t-209 78t-75 217t75 217t209 78zM299 150q58 0 58 125t-58 125t-58 -125t58 -125z" />
    <glyph glyph-name="OE" unicode="&#x152;" horiz-adv-x="902" 
d="M892 539h-263q17 -46 25 -108h202v-153h-201q-8 -68 -26 -117h263v-161h-421q-55 -20 -127 -20q-161 0 -247.5 97t-86.5 273t86.5 273t247.5 97q72 0 127 -20h421v-161zM344 156q50 0 72 45t22 149t-22 149t-72 45t-72 -45t-22 -149t22 -149t72 -45z" />
    <glyph glyph-name="oe" unicode="&#x153;" horiz-adv-x="918" 
d="M908 290q0 -41 -10 -84h-315q25 -62 111 -62q54 0 108 27l66 -125q-36 -30 -97 -48t-125 -18q-94 0 -175 57q-77 -57 -172 -57q-134 0 -209 78t-75 217t75 217t209 78q93 0 172 -57q79 57 175 57q124 0 193 -74t69 -206zM575 331h119q-1 42 -16 66t-40 24
q-24 0 -43 -25.5t-20 -64.5zM299 150q58 0 58 125t-58 125t-58 -125t58 -125z" />
    <glyph glyph-name="Racute" unicode="&#x154;" horiz-adv-x="624" 
d="M487 921l-131 -176h-171l105 176h197zM650 0h-243l-143 270h-3v-270h-231v700h231q174 0 260 -52.5t86 -168.5q0 -72 -32 -124t-89 -73zM261 544v-143h46q75 0 75 74q0 69 -75 69h-46z" />
    <glyph glyph-name="racute" unicode="&#x155;" horiz-adv-x="416" 
d="M112 608l105 176h197l-131 -176h-171zM427 550l-31 -213q-24 11 -54 11q-65 0 -90 -59v-289h-222v550h212v-67q41 87 120 87q38 0 65 -20z" />
    <glyph glyph-name="Rcommaaccent" unicode="&#x156;" horiz-adv-x="624" 
d="M261 270v-270h-231v700h231q174 0 260 -52.5t86 -168.5q0 -72 -32 -124t-89 -73l164 -282h-243l-143 270h-3zM261 544v-143h46q75 0 75 74q0 69 -75 69h-46zM203 -177v129h222v-94q0 -95 -58.5 -148.5t-155.5 -53.5l-8 74q89 10 93 93h-93z" />
    <glyph glyph-name="rcommaaccent" unicode="&#x157;" horiz-adv-x="416" 
d="M427 550l-31 -213q-24 11 -54 11q-65 0 -90 -59v-289h-222v550h212v-67q41 87 120 87q38 0 65 -20zM39 -344l-8 74q89 10 93 93h-93v129h222v-94q0 -95 -58.5 -148.5t-155.5 -53.5z" />
    <glyph glyph-name="Rcaron" unicode="&#x158;" horiz-adv-x="624" 
d="M387 745h-162l-138 176h186l33 -59l33 59h186zM650 0h-243l-143 270h-3v-270h-231v700h231q174 0 260 -52.5t86 -168.5q0 -72 -32 -124t-89 -73zM261 544v-143h46q75 0 75 74q0 69 -75 69h-46z" />
    <glyph glyph-name="rcaron" unicode="&#x159;" horiz-adv-x="416" 
d="M134 598l-138 176h186l33 -59l33 59h186l-138 -176h-162zM427 550l-31 -213q-24 11 -54 11q-65 0 -90 -59v-289h-222v550h212v-67q41 87 120 87q38 0 65 -20z" />
    <glyph glyph-name="Sacute" unicode="&#x15a;" horiz-adv-x="601" 
d="M188 745l105 176h197l-131 -176h-171zM296 -20q-171 0 -296 96l97 143q43 -27 99.5 -47t97.5 -20q57 0 57 42q0 26 -22 39t-87 35q-46 16 -75.5 30t-66 39.5t-55.5 64.5t-19 89q0 110 79.5 169.5t223.5 59.5q65 0 129.5 -19.5t107.5 -51.5l-95 -140q-67 35 -140 35
q-65 0 -65 -32q0 -19 18 -28.5t76 -27.5q28 -8 44 -13.5t43.5 -17t44.5 -22.5t38 -29.5t33 -39t20 -49.5t8 -63q-1 -119 -85.5 -180.5t-209.5 -61.5z" />
    <glyph glyph-name="sacute" unicode="&#x15b;" horiz-adv-x="505" 
d="M150 608l105 176h197l-131 -176h-171zM236 387q0 -12 15 -19t61 -20q88 -24 122 -48q61 -43 61 -126q0 -87 -73 -140.5t-192 -53.5q-70 0 -136.5 22t-105.5 57l90 123q61 -43 138 -43q52 0 52 23q0 11 -11.5 16.5t-45.5 14.5q-37 10 -63 20.5t-60 31.5t-52.5 55.5
t-18.5 79.5q0 91 63.5 140.5t179.5 49.5q57 0 120 -18.5t109 -49.5l-92 -125q-47 34 -111 34q-50 0 -50 -24z" />
    <glyph glyph-name="Scedilla" unicode="&#x15e;" horiz-adv-x="601" 
d="M360 456q28 -8 44 -13.5t43.5 -17t44.5 -22.5t38 -29.5t33 -39t20 -49.5t8 -63q-1 -100 -62 -159.5t-159 -76.5l3 -23q94 -19 94 -101q0 -50 -41.5 -81t-109.5 -31q-74 0 -123 33l31 100q39 -21 73 -21q42 0 42 23q0 19 -60 19h-36v16l19 61q-151 10 -262 95l97 143
q43 -27 99.5 -47t97.5 -20q57 0 57 42q0 26 -22 39t-87 35q-46 16 -75.5 30t-66 39.5t-55.5 64.5t-19 89q0 110 79.5 169.5t223.5 59.5q65 0 129.5 -19.5t107.5 -51.5l-95 -140q-67 35 -140 35q-65 0 -65 -32q0 -19 18 -28.5t76 -27.5z" />
    <glyph glyph-name="scedilla" unicode="&#x15f;" horiz-adv-x="505" 
d="M495 174q0 -74 -53.5 -124.5t-144.5 -64.5l3 -22q94 -19 94 -101q0 -50 -41.5 -81t-109.5 -31q-73 0 -123 33l31 100q39 -21 73 -21q42 0 42 23q0 19 -60 19h-36v16l19 62q-60 6 -114 26.5t-87 50.5l90 123q61 -43 138 -43q52 0 52 23q0 11 -11.5 16.5t-45.5 14.5
q-37 10 -63 20.5t-60 31.5t-52.5 55.5t-18.5 79.5q0 91 63.5 140.5t179.5 49.5q57 0 120 -18.5t109 -49.5l-92 -125q-47 34 -111 34q-50 0 -50 -24q0 -12 15 -19t61 -20q88 -24 122 -48q61 -43 61 -126z" />
    <glyph glyph-name="Scaron" unicode="&#x160;" horiz-adv-x="601" 
d="M228 745l-138 176h186l33 -59l33 59h186l-138 -176h-162zM296 -20q-171 0 -296 96l97 143q43 -27 99.5 -47t97.5 -20q57 0 57 42q0 26 -22 39t-87 35q-46 16 -75.5 30t-66 39.5t-55.5 64.5t-19 89q0 110 79.5 169.5t223.5 59.5q65 0 129.5 -19.5t107.5 -51.5l-95 -140
q-67 35 -140 35q-65 0 -65 -32q0 -19 18 -28.5t76 -27.5q28 -8 44 -13.5t43.5 -17t44.5 -22.5t38 -29.5t33 -39t20 -49.5t8 -63q-1 -119 -85.5 -180.5t-209.5 -61.5z" />
    <glyph glyph-name="scaron" unicode="&#x161;" horiz-adv-x="505" 
d="M172 598l-138 176h186l33 -59l33 59h186l-138 -176h-162zM236 387q0 -12 15 -19t61 -20q88 -24 122 -48q61 -43 61 -126q0 -87 -73 -140.5t-192 -53.5q-70 0 -136.5 22t-105.5 57l90 123q61 -43 138 -43q52 0 52 23q0 11 -11.5 16.5t-45.5 14.5q-37 10 -63 20.5t-60 31.5
t-52.5 55.5t-18.5 79.5q0 91 63.5 140.5t179.5 49.5q57 0 120 -18.5t109 -49.5l-92 -125q-47 34 -111 34q-50 0 -50 -24z" />
    <glyph glyph-name="uni0162" unicode="&#x162;" horiz-adv-x="554" 
d="M393 527v-527h-59l4 -37q94 -19 94 -101q0 -50 -41.5 -81t-109.5 -31q-74 0 -123 33l31 100q39 -21 73 -21q42 0 42 23q0 19 -60 19h-36v16l25 80h-71v527h-157v173h544v-173h-156z" />
    <glyph glyph-name="uni0163" unicode="&#x163;" horiz-adv-x="417" 
d="M297 -37q94 -19 94 -101q0 -50 -41.5 -81t-109.5 -31q-74 0 -123 33l31 100q39 -21 73 -21q42 0 42 23q0 19 -60 19h-36v16l22 72q-123 39 -123 189v212h-66v130l36 13q16 6 24.5 15.5t12.5 34.5l13 79h202v-115h120v-157h-120v-191q0 -51 44 -51q23 0 67 13l23 -156
q-67 -22 -127 -27z" />
    <glyph glyph-name="Tcaron" unicode="&#x164;" horiz-adv-x="554" 
d="M196 745l-138 176h186l33 -59l33 59h186l-138 -176h-162zM162 0v527h-157v173h544v-173h-156v-527h-231z" />
    <glyph glyph-name="tcaron" unicode="&#x165;" horiz-adv-x="417" 
d="M301 603l9 254h155l-41 -254h-123zM270 -20q-94 0 -149 51t-55 150v212h-66v130l36 13q16 6 24.5 15.5t12.5 34.5l13 79h202v-115h120v-157h-120v-191q0 -51 44 -51q23 0 67 13l23 -156q-86 -28 -152 -28z" />
    <glyph glyph-name="Tbar" unicode="&#x166;" horiz-adv-x="554" 
d="M549 527h-156v-115h108v-118h-108v-294h-231v294h-109v118h109v115h-157v173h544v-173z" />
    <glyph glyph-name="tbar" unicode="&#x167;" horiz-adv-x="429" 
d="M399 164l23 -156q-86 -28 -152 -28q-94 0 -149 51t-55 150v66h-66v105h66v41h-66v130l36 13q16 6 24.5 15.5t12.5 34.5l13 79h202v-115h120v-157h-120v-41h120v-105h-120v-45q0 -51 44 -51q23 0 67 13z" />
    <glyph glyph-name="Utilde" unicode="&#x168;" horiz-adv-x="640" 
d="M375 739q-31 0 -63 21t-47 21q-35 0 -54 -40l-98 44q22 71 60.5 111t83.5 40q40 0 75 -21.5t49 -21.5q28 0 47 42l99 -35q-15 -76 -55 -118.5t-97 -42.5zM620 700v-444q0 -136 -76 -206t-224 -70t-224 70t-76 206v444h231v-459q0 -94 69 -94t69 94v459h231z" />
    <glyph glyph-name="utilde" unicode="&#x169;" horiz-adv-x="562" 
d="M226 640q-35 0 -54 -40l-98 44q22 71 60.5 111t83.5 40q40 0 75 -21.5t49 -21.5q28 0 47 42l99 -35q-15 -76 -55 -118.5t-97 -42.5q-31 0 -63 21t-47 21zM310 550h222v-550h-205v69q-23 -40 -65 -64.5t-86 -24.5q-68 0 -109.5 45t-41.5 119v406h222v-365q0 -35 25 -35
q23 0 38 26v374z" />
    <glyph glyph-name="Umacron" unicode="&#x16a;" horiz-adv-x="640" 
d="M155 767v138h330v-138h-330zM620 700v-444q0 -136 -76 -206t-224 -70t-224 70t-76 206v444h231v-459q0 -94 69 -94t69 94v459h231z" />
    <glyph glyph-name="umacron" unicode="&#x16b;" horiz-adv-x="562" 
d="M446 752v-138h-330v138h330zM310 550h222v-550h-205v69q-23 -40 -65 -64.5t-86 -24.5q-68 0 -109.5 45t-41.5 119v406h222v-365q0 -35 25 -35q23 0 38 26v374z" />
    <glyph glyph-name="Uring" unicode="&#x16e;" horiz-adv-x="640" 
d="M453 700h167v-444q0 -136 -76 -206t-224 -70t-224 70t-76 206v444h167q-17 32 -17 70q0 62 44 106t106 44t106 -44t44 -106q0 -38 -17 -70zM320 820q-21 0 -35.5 -15t-14.5 -35q0 -21 14.5 -36t35.5 -15t35.5 15t14.5 36q0 20 -14.5 35t-35.5 15zM320 147q69 0 69 94v395
q-32 -17 -69 -17t-69 17v-395q0 -94 69 -94z" />
    <glyph glyph-name="uring" unicode="&#x16f;" horiz-adv-x="562" 
d="M281 584q-62 0 -106 44.5t-44 106.5t44 106t106 44t106 -44t44 -106t-44 -106.5t-106 -44.5zM281 785q-21 0 -35.5 -15t-14.5 -35q0 -21 14.5 -36t35.5 -15t35.5 15t14.5 36q0 20 -14.5 35t-35.5 15zM310 550h222v-550h-205v69q-23 -40 -65 -64.5t-86 -24.5
q-68 0 -109.5 45t-41.5 119v406h222v-365q0 -35 25 -35q23 0 38 26v374z" />
    <glyph glyph-name="Uhungarumlaut" unicode="&#x170;" horiz-adv-x="640" 
d="M122 745l105 176h187l-124 -176h-168zM342 745l105 176h187l-124 -176h-168zM620 700v-444q0 -136 -76 -206t-224 -70t-224 70t-76 206v444h231v-459q0 -94 69 -94t69 94v459h231z" />
    <glyph glyph-name="uhungarumlaut" unicode="&#x171;" horiz-adv-x="562" 
d="M375 784l-124 -176h-168l105 176h187zM471 608h-168l105 176h187zM310 176v374h222v-550h-205v69q-23 -40 -65 -64.5t-86 -24.5q-68 0 -109.5 45t-41.5 119v406h222v-365q0 -35 25 -35q23 0 38 26z" />
    <glyph glyph-name="Uogonek" unicode="&#x172;" horiz-adv-x="640" 
d="M389 700h231v-444q0 -228 -209 -268q-39 -14 -62 -36.5t-23 -47.5q0 -17 12.5 -27.5t32.5 -10.5q46 0 74 14l-12 -120q-37 -10 -94 -10q-64 0 -102.5 34.5t-38.5 90.5q0 62 48 110q-226 33 -226 271v444h231v-459q0 -94 69 -94t69 94v459z" />
    <glyph glyph-name="uogonek" unicode="&#x173;" horiz-adv-x="562" 
d="M310 550h222v-550h-12q-58 -11 -93.5 -37.5t-35.5 -58.5q0 -17 12.5 -27.5t32.5 -10.5q46 0 74 14l-12 -120q-37 -10 -94 -10q-64 0 -102.5 34.5t-38.5 90.5q0 72 64 125v69q-23 -40 -65 -64.5t-86 -24.5q-68 0 -109.5 45t-41.5 119v406h222v-365q0 -35 25 -35
q23 0 38 26v374z" />
    <glyph glyph-name="Wcircumflex" unicode="&#x174;" horiz-adv-x="864" 
d="M212 745l138 176h162l138 -176h-186l-33 59l-33 -59h-186zM82 0l-87 700h246l6 -352l-2 -169h3l69 521h240l63 -521h3l4 182v339h242l-91 -700h-299l-49 465h-3l-54 -465h-291z" />
    <glyph glyph-name="wcircumflex" unicode="&#x175;" horiz-adv-x="806" 
d="M174 598l138 176h162l138 -176h-186l-33 59l-33 -59h-186zM107 0l-112 550h228l26 -314h3l48 314h212l42 -311h3l27 311h227l-107 -550h-246l-51 292h-3l-48 -292h-249z" />
    <glyph glyph-name="Ycircumflex" unicode="&#x176;" horiz-adv-x="625" 
d="M94 745l138 176h162l138 -176h-186l-33 59l-33 -59h-186zM197 0v256l-217 444h250l83 -260l82 260h250l-217 -446v-254h-231z" />
    <glyph glyph-name="ycircumflex" unicode="&#x177;" horiz-adv-x="553" 
d="M267 657l-33 -59h-186l138 176h162l138 -176h-186zM340 550h233l-169 -575q-34 -116 -124.5 -170.5t-249.5 -54.5l-22 149q99 5 145 28.5t59 72.5h-85l-147 550h234l57 -353z" />
    <glyph glyph-name="Ydieresis" unicode="&#x178;" horiz-adv-x="625" 
d="M100 750v179h182v-179h-182zM343 750v179h182v-179h-182zM197 0v256l-217 444h250l83 -260l82 260h250l-217 -446v-254h-231z" />
    <glyph glyph-name="Zacute" unicode="&#x179;" horiz-adv-x="553" 
d="M163 745l105 176h197l-131 -176h-171zM5 0v173l275 354h-269v173h525v-182l-269 -345h276v-173h-538z" />
    <glyph glyph-name="zacute" unicode="&#x17a;" horiz-adv-x="498" 
d="M149 608l105 176h197l-131 -176h-171zM5 1v121l233 255h-221v173h466v-167l-194 -209h196v-173h-480z" />
    <glyph glyph-name="Zdotaccent" unicode="&#x17b;" horiz-adv-x="553" 
d="M193 750v179h182v-179h-182zM5 0v173l275 354h-269v173h525v-182l-269 -345h276v-173h-538z" />
    <glyph glyph-name="zdotaccent" unicode="&#x17c;" horiz-adv-x="498" 
d="M161 618v179h182v-179h-182zM5 1v121l233 255h-221v173h466v-167l-194 -209h196v-173h-480z" />
    <glyph glyph-name="Zcaron" unicode="&#x17d;" horiz-adv-x="553" 
d="M203 745l-138 176h186l33 -59l33 59h186l-138 -176h-162zM5 0v173l275 354h-269v173h525v-182l-269 -345h276v-173h-538z" />
    <glyph glyph-name="zcaron" unicode="&#x17e;" horiz-adv-x="498" 
d="M171 598l-138 176h186l33 -59l33 59h186l-138 -176h-162zM5 1v121l233 255h-221v173h466v-167l-194 -209h196v-173h-480z" />
    <glyph glyph-name="florin" unicode="&#x192;" horiz-adv-x="389" 
d="M45 -250l-74 155q101 48 101 129v359h-72v130l38 14q34 14 34 50v5q1 80 64.5 129t164.5 49q74 0 126 -23l-34 -151q-27 9 -58 9q-30 0 -46.5 -13.5t-16.5 -37.5v-4h113v-157h-91v-341q0 -130 -63 -206.5t-186 -95.5z" />
    <glyph glyph-name="uni01CA" unicode="&#x1ca;" horiz-adv-x="1126" 
d="M30 0v700h286l115 -515h3q-22 166 -22 246v269h201v-700h-289l-104 461h-3q14 -96 14 -207v-254h-201zM840 -20q-58 0 -112.5 20.5t-84.5 53.5l99 146q37 -39 74 -39q49 0 49 62v304h-161v173h392l-1 -467q-1 -114 -71 -183.5t-184 -69.5z" />
    <glyph glyph-name="uni01CC" unicode="&#x1cc;" horiz-adv-x="854" 
d="M601 750h224v-154h-224v154zM544 0h-222v365q0 35 -25 35q-27 0 -45 -39v-361h-222v550h212v-69q23 40 65 64.5t86 24.5q68 0 109.5 -45t41.5 -119v-406zM602 34v516h222v-498q0 -123 -83 -209.5t-217 -92.5l-23 155q101 48 101 129z" />
    <glyph glyph-name="uni01EA" unicode="&#x1ea;" horiz-adv-x="688" 
d="M426 -13q-83 -31 -83 -83q0 -17 12.5 -27.5t32.5 -10.5q46 0 74 14l-12 -120q-37 -10 -94 -10q-64 0 -102.5 34.5t-38.5 90.5q0 62 50 112q-124 22 -189.5 116t-65.5 247q0 176 86.5 273t247.5 97t247.5 -97t86.5 -273q0 -152 -64.5 -245.5t-187.5 -117.5zM344 544
q-50 0 -72 -45t-22 -149t22 -149t72 -45t72 45t22 149t-22 149t-72 45z" />
    <glyph glyph-name="uni01EB" unicode="&#x1eb;" horiz-adv-x="598" 
d="M360 -15q-76 -31 -76 -81q0 -17 12.5 -27.5t32.5 -10.5q46 0 74 14l-12 -120q-37 -10 -94 -10q-64 0 -102.5 34.5t-38.5 90.5q0 65 53 116q-93 23 -143.5 96.5t-50.5 187.5q0 139 75 217t209 78t209 -78t75 -217q0 -122 -58 -197.5t-165 -92.5zM299 400q-58 0 -58 -125
t58 -125t58 125t-58 125z" />
    <glyph glyph-name="AEacute" unicode="&#x1fc;" horiz-adv-x="828" 
d="M298 745l105 176h197l-131 -176h-171zM-30 0l234 700h614v-161h-255l13 -108h205v-153h-187l14 -117h210v-161h-421l-10 126h-144l-33 -126h-240zM287 285h89l-19 256h-3z" />
    <glyph glyph-name="aeacute" unicode="&#x1fd;" horiz-adv-x="864" 
d="M329 608l105 176h197l-131 -176h-171zM187 -20q-86 0 -131.5 45t-45.5 126q0 78 59.5 125.5t157.5 47.5h76v35q0 23 -20.5 35.5t-57.5 12.5q-58 0 -106 -32l-90 124q42 31 106.5 51t128.5 20q113 0 180 -47q67 47 148 47q124 0 193 -74t69 -206q0 -41 -10 -84h-315
q25 -62 111 -62q61 0 116 31l82 -112q-40 -37 -107.5 -60t-138.5 -23q-132 0 -208 73q-78 -73 -197 -73zM521 331h119q-1 42 -16 66t-40 24q-51 0 -63 -90zM259 135q34 0 57 36q-7 28 -10 53h-37q-44 0 -44 -51q0 -18 9.5 -28t24.5 -10z" />
    <glyph glyph-name="Oslashacute" unicode="&#x1fe;" horiz-adv-x="688" 
d="M501 981l-131 -176h-171l105 176h197zM547 663q131 -91 131 -313q0 -176 -86.5 -273t-247.5 -97h-20l-31 -98h-189l47 148q-141 90 -141 320q0 176 86.5 273t247.5 97q22 0 32 -1l32 99h188zM344 544q-50 0 -72 -45t-22 -149q0 -95 19 -142l89 335q-5 1 -14 1zM344 156
q50 2 72 46.5t22 147.5q0 78 -11 119l-87 -313h4z" />
    <glyph glyph-name="oslashacute" unicode="&#x1ff;" horiz-adv-x="598" 
d="M421 784l-131 -176h-171l105 176h197zM583 275q0 -139 -75 -217t-208 -78l-20 -62h-189l35 109q-111 76 -111 248q0 139 75 217t209 78h1l19 61h189l-35 -109q110 -76 110 -247zM299 400q-58 0 -58 -125q0 -35 4 -55l60 180h-6zM299 150q58 0 58 125q0 36 -4 57l-63 -181
q3 -1 9 -1z" />
    <glyph glyph-name="Scommaaccent" unicode="&#x218;" horiz-adv-x="601" 
d="M296 -20q-171 0 -296 96l97 143q43 -27 99.5 -47t97.5 -20q57 0 57 42q0 26 -22 39t-87 35q-46 16 -75.5 30t-66 39.5t-55.5 64.5t-19 89q0 110 79.5 169.5t223.5 59.5q65 0 129.5 -19.5t107.5 -51.5l-95 -140q-67 35 -140 35q-65 0 -65 -32q0 -19 18 -28.5t76 -27.5
q28 -8 44 -13.5t43.5 -17t44.5 -22.5t38 -29.5t33 -39t20 -49.5t8 -63q-1 -119 -85.5 -180.5t-209.5 -61.5zM207 -344l-8 74q89 10 93 93h-93v129h222v-94q0 -95 -58.5 -148.5t-155.5 -53.5z" />
    <glyph glyph-name="scommaaccent" unicode="&#x219;" horiz-adv-x="505" 
d="M236 387q0 -12 15 -19t61 -20q88 -24 122 -48q61 -43 61 -126q0 -87 -73 -140.5t-192 -53.5q-70 0 -136.5 22t-105.5 57l90 123q61 -43 138 -43q52 0 52 23q0 11 -11.5 16.5t-45.5 14.5q-37 10 -63 20.5t-60 31.5t-52.5 55.5t-18.5 79.5q0 91 63.5 140.5t179.5 49.5
q57 0 120 -18.5t109 -49.5l-92 -125q-47 34 -111 34q-50 0 -50 -24zM134 -344l-8 74q89 10 93 93h-93v129h222v-94q0 -95 -58.5 -148.5t-155.5 -53.5z" />
    <glyph glyph-name="uni021A" unicode="&#x21a;" horiz-adv-x="554" 
d="M162 0v527h-157v173h544v-173h-156v-527h-231zM172 -344l-8 74q89 10 93 93h-93v129h222v-94q0 -95 -58.5 -148.5t-155.5 -53.5z" />
    <glyph glyph-name="uni021B" unicode="&#x21b;" horiz-adv-x="417" 
d="M270 -20q-94 0 -149 51t-55 150v212h-66v130l36 13q16 6 24.5 15.5t12.5 34.5l13 79h202v-115h120v-157h-120v-191q0 -51 44 -51q23 0 67 13l23 -156q-86 -28 -152 -28zM131 -344l-8 74q89 10 93 93h-93v129h222v-94q0 -95 -58.5 -148.5t-155.5 -53.5z" />
    <glyph glyph-name="circumflex" unicode="&#x2c6;" horiz-adv-x="638" 
d="M100 598l138 176h162l138 -176h-186l-33 59l-33 -59h-186z" />
    <glyph glyph-name="caron" unicode="&#x2c7;" horiz-adv-x="638" 
d="M238 598l-138 176h186l33 -59l33 59h186l-138 -176h-162z" />
    <glyph glyph-name="breve" unicode="&#x2d8;" horiz-adv-x="586" 
d="M369 794h117q0 -86 -53 -139t-140 -53t-140 53t-53 139h117q0 -29 21 -47t55 -18t55 18t21 47z" />
    <glyph glyph-name="dotaccent" unicode="&#x2d9;" horiz-adv-x="382" 
d="M100 618v179h182v-179h-182z" />
    <glyph glyph-name="ring" unicode="&#x2da;" horiz-adv-x="500" 
d="M250 584q-62 0 -106 44.5t-44 106.5t44 106t106 44t106 -44t44 -106t-44 -106.5t-106 -44.5zM250 684q21 0 35.5 15t14.5 36q0 20 -14.5 35t-35.5 15t-35.5 -15t-14.5 -35q0 -21 14.5 -36t35.5 -15z" />
    <glyph glyph-name="ogonek" unicode="&#x2db;" horiz-adv-x="457" 
d="M241 -250q-64 0 -102.5 34.5t-38.5 90.5q0 70 61 123t161 69l35 -67q-58 -11 -93.5 -37.5t-35.5 -58.5q0 -17 12.5 -27.5t32.5 -10.5q46 0 74 14l-12 -120q-37 -10 -94 -10z" />
    <glyph glyph-name="tilde" unicode="&#x2dc;" horiz-adv-x="614" 
d="M362 598q-31 0 -63 21t-47 21q-35 0 -54 -40l-98 44q22 71 60.5 111t83.5 40q40 0 75 -21.5t49 -21.5q28 0 47 42l99 -35q-15 -76 -55 -118.5t-97 -42.5z" />
    <glyph glyph-name="hungarumlaut" unicode="&#x2dd;" horiz-adv-x="712" 
d="M100 608l105 176h187l-124 -176h-168zM320 608l105 176h187l-124 -176h-168z" />
    <glyph glyph-name="uni0326" unicode="&#x326;" horiz-adv-x="0" 
d="M-314 -344l-8 74q89 10 93 93h-93v129h222v-94q0 -95 -58.5 -148.5t-155.5 -53.5z" />
    <glyph glyph-name="Wgrave" unicode="&#x1e80;" horiz-adv-x="864" 
d="M378 745l-131 176h197l105 -176h-171zM82 0l-87 700h246l6 -352l-2 -169h3l69 521h240l63 -521h3l4 182v339h242l-91 -700h-299l-49 465h-3l-54 -465h-291z" />
    <glyph glyph-name="wgrave" unicode="&#x1e81;" horiz-adv-x="806" 
d="M506 608h-171l-131 176h197zM107 0l-112 550h228l26 -314h3l48 314h212l42 -311h3l27 311h227l-107 -550h-246l-51 292h-3l-48 -292h-249z" />
    <glyph glyph-name="Wacute" unicode="&#x1e82;" horiz-adv-x="864" 
d="M310 745l105 176h197l-131 -176h-171zM82 0l-87 700h246l6 -352l-2 -169h3l69 521h240l63 -521h3l4 182v339h242l-91 -700h-299l-49 465h-3l-54 -465h-291z" />
    <glyph glyph-name="wacute" unicode="&#x1e83;" horiz-adv-x="806" 
d="M300 608l105 176h197l-131 -176h-171zM107 0l-112 550h228l26 -314h3l48 314h212l42 -311h3l27 311h227l-107 -550h-246l-51 292h-3l-48 -292h-249z" />
    <glyph glyph-name="Wdieresis" unicode="&#x1e84;" horiz-adv-x="864" 
d="M218 750v179h182v-179h-182zM461 750v179h182v-179h-182zM82 0l-87 700h246l6 -352l-2 -169h3l69 521h240l63 -521h3l4 182v339h242l-91 -700h-299l-49 465h-3l-54 -465h-291z" />
    <glyph glyph-name="wdieresis" unicode="&#x1e85;" horiz-adv-x="806" 
d="M190 597v153h182v-153h-182zM433 597v153h182v-153h-182zM107 0l-112 550h228l26 -314h3l48 314h212l42 -311h3l27 311h227l-107 -550h-246l-51 292h-3l-48 -292h-249z" />
    <glyph glyph-name="uni1E9E" unicode="&#x1e9e;" horiz-adv-x="683" 
d="M504 398q169 -33 169 -202q0 -97 -67.5 -156.5t-177.5 -59.5q-87 0 -141 23l32 159q30 -16 56 -16q28 0 43.5 16.5t15.5 46.5q-1 34 -26 55t-88 39l-2 99l92 139q-43 17 -82 17q-65 0 -65 -60l-2 -498h-231l2 485q1 115 74.5 175t215.5 60q136 0 287 -53v-130z" />
    <glyph glyph-name="Ygrave" unicode="&#x1ef2;" horiz-adv-x="625" 
d="M260 745l-131 176h197l105 -176h-171zM197 0v256l-217 444h250l83 -260l82 260h250l-217 -446v-254h-231z" />
    <glyph glyph-name="ygrave" unicode="&#x1ef3;" horiz-adv-x="553" 
d="M380 608h-171l-131 176h197zM340 550h233l-169 -575q-34 -116 -124.5 -170.5t-249.5 -54.5l-22 149q99 5 145 28.5t59 72.5h-85l-147 550h234l57 -353z" />
    <glyph glyph-name="uni1EF8" unicode="&#x1ef8;" horiz-adv-x="625" 
d="M368 739q-31 0 -63 21t-47 21q-35 0 -54 -40l-98 44q22 71 60.5 111t83.5 40q40 0 75 -21.5t49 -21.5q28 0 47 42l99 -35q-15 -76 -55 -118.5t-97 -42.5zM197 0v256l-217 444h250l83 -260l82 260h250l-217 -446v-254h-231z" />
    <glyph glyph-name="uni1EF9" unicode="&#x1ef9;" horiz-adv-x="553" 
d="M222 640q-35 0 -54 -40l-98 44q22 71 60.5 111t83.5 40q40 0 75 -21.5t49 -21.5q28 0 47 42l99 -35q-15 -76 -55 -118.5t-97 -42.5q-31 0 -63 21t-47 21zM340 550h233l-169 -575q-34 -116 -124.5 -170.5t-249.5 -54.5l-22 149q99 5 145 28.5t59 72.5h-85l-147 550h234
l57 -353z" />
    <glyph glyph-name="endash" unicode="&#x2013;" horiz-adv-x="410" 
d="M400 355v-157h-390v157h390z" />
    <glyph glyph-name="emdash" unicode="&#x2014;" horiz-adv-x="799" 
d="M789 355v-157h-779v157h779z" />
    <glyph glyph-name="quoteleft" unicode="&#x2018;" horiz-adv-x="252" 
d="M15 381v174q0 96 59 155t155 59l8 -74q-40 -4 -65.5 -33t-27.5 -72h93v-209h-222z" />
    <glyph glyph-name="quoteright" unicode="&#x2019;" horiz-adv-x="252" 
d="M23 381l-8 74q40 4 65.5 33t27.5 72h-93v209h222v-174q0 -96 -59 -155t-155 -59z" />
    <glyph glyph-name="quotesinglbase" unicode="&#x201a;" horiz-adv-x="252" 
d="M23 -179l-8 74q40 4 65.5 33t27.5 72h-93v209h222v-174q0 -96 -59 -155t-155 -59z" />
    <glyph glyph-name="quotedblleft" unicode="&#x201c;" horiz-adv-x="505" 
d="M15 381v174q0 96 59 155t155 59l8 -74q-40 -4 -65.5 -33t-27.5 -72h93v-209h-222zM268 381v174q0 96 59 155t155 59l8 -74q-40 -4 -65.5 -33t-27.5 -72h93v-209h-222z" />
    <glyph glyph-name="quotedblright" unicode="&#x201d;" horiz-adv-x="505" 
d="M23 381l-8 74q40 4 65.5 33t27.5 72h-93v209h222v-174q0 -96 -59 -155t-155 -59zM276 381l-8 74q40 4 65.5 33t27.5 72h-93v209h222v-174q0 -96 -59 -155t-155 -59z" />
    <glyph glyph-name="quotedblbase" unicode="&#x201e;" horiz-adv-x="505" 
d="M23 -179l-8 74q40 4 65.5 33t27.5 72h-93v209h222v-174q0 -96 -59 -155t-155 -59zM276 -179l-8 74q40 4 65.5 33t27.5 72h-93v209h222v-174q0 -96 -59 -155t-155 -59z" />
    <glyph glyph-name="dagger" unicode="&#x2020;" horiz-adv-x="547" 
d="M537 550v-178l-170 8l9 -380h-205l9 380l-170 -8v178l169 -8l-8 138h205l-9 -138z" />
    <glyph glyph-name="daggerdbl" unicode="&#x2021;" horiz-adv-x="547" 
d="M537 372l-171 8v-78l171 8v-178l-169 8l8 -140h-205l8 140l-169 -8v178l171 -8v78l-171 -8v178l169 -8l-8 136h205l-9 -136l170 8v-178z" />
    <glyph glyph-name="bullet" unicode="&#x2022;" horiz-adv-x="362" 
d="M181 182q-73 0 -117 43.5t-44 114.5t44 114t117 43q68 0 114.5 -43.5t46.5 -113.5q0 -71 -44 -114.5t-117 -43.5z" />
    <glyph glyph-name="ellipsis" unicode="&#x2026;" horiz-adv-x="763" 
d="M15 0v209h222v-209h-222zM271 0v209h222v-209h-222zM526 0v209h222v-209h-222z" />
    <glyph glyph-name="perthousand" unicode="&#x2030;" horiz-adv-x="1319" 
d="M208 331q-91 0 -142 50.5t-51 139.5t51 139.5t142 50.5t142 -50.5t51 -139.5t-51 -139.5t-142 -50.5zM301 0h-178l485 700h178zM208 455q43 0 43 66t-43 66t-43 -66t43 -66zM701 -11q-91 0 -142 50.5t-51 139.5t51 139.5t142 50.5t142 -50.5t51 -139.5t-51 -139.5
t-142 -50.5zM1111 -11q-91 0 -142 50.5t-51 139.5t51 139.5t142 50.5t142 -50.5t51 -139.5t-51 -139.5t-142 -50.5zM701 113q43 0 43 66t-43 66t-43 -66t43 -66zM1111 113q43 0 43 66t-43 66t-43 -66t43 -66z" />
    <glyph glyph-name="guilsinglleft" unicode="&#x2039;" horiz-adv-x="376" 
d="M213 29l-193 206v136l193 206l143 -99l-131 -175l131 -175z" />
    <glyph glyph-name="guilsinglright" unicode="&#x203a;" horiz-adv-x="376" 
d="M163 29l-143 99l131 175l-131 175l143 99l193 -206v-136z" />
    <glyph glyph-name="fraction" unicode="&#x2044;" horiz-adv-x="184" 
d="M-167 0l364 700h154l-364 -700h-154z" />
    <glyph glyph-name="uni2070" unicode="&#x2070;" horiz-adv-x="406" 
d="M203 857q91 0 142 -60t51 -166t-51 -166t-142 -60t-142 60t-51 166t51 166t142 60zM203 517q18 0 24 23t6 91t-6 91t-24 23t-24 -23t-6 -91t6 -91t24 -23z" />
    <glyph glyph-name="uni2074" unicode="&#x2074;" horiz-adv-x="406" 
d="M206 420v73h-196v101l108 252h151l-101 -242h37l26 56h121v-56h44v-111h-44v-73h-146z" />
    <glyph glyph-name="uni2075" unicode="&#x2075;" horiz-adv-x="394" 
d="M249 711q61 0 95.5 -37.5t34.5 -104.5q0 -77 -53 -120.5t-148 -43.5q-53 0 -100 20t-71 53l73 89q13 -21 38 -34t51 -13q48 0 48 52q0 41 -38 41q-26 0 -49 -15l-92 21l14 227h290v-103h-161l-3 -47q36 15 71 15z" />
    <glyph glyph-name="uni2076" unicode="&#x2076;" horiz-adv-x="401" 
d="M257 710q63 0 98.5 -37t35.5 -103q0 -74 -51.5 -119.5t-135.5 -45.5q-95 0 -144.5 52.5t-49.5 153.5q0 116 58.5 181t163.5 65q95 0 150 -45l-68 -82q-36 21 -71 21q-28 0 -42 -13.5t-19 -48.5q38 21 75 21zM206 513q14 0 19.5 12.5t5.5 44.5q0 27 -6.5 36t-25.5 9
q-10 0 -20 -2q0 -60 5.5 -80t21.5 -20z" />
    <glyph glyph-name="uni2077" unicode="&#x2077;" horiz-adv-x="403" 
d="M116 412v84q0 64 30 116l69 122h-178v112h331v-121l-70 -124q-28 -49 -28 -105v-84h-154z" />
    <glyph glyph-name="uni2078" unicode="&#x2078;" horiz-adv-x="402" 
d="M198 405q-87 0 -140 35.5t-53 94.5q0 37 21 63.5t57 36.5q-61 37 -61 97q0 56 49.5 90.5t129.5 34.5t129.5 -31t49.5 -81q0 -61 -69 -99q86 -37 86 -109q0 -59 -55 -95.5t-144 -36.5zM206 688q23 22 23 40q0 33 -28 33t-28 -33q0 -24 33 -40zM206 511q37 0 37 30
q0 22 -60 48q-23 -16 -23 -44q0 -34 46 -34z" />
    <glyph glyph-name="uni2079" unicode="&#x2079;" horiz-adv-x="399" 
d="M192 857q91 0 146.5 -52.5t55.5 -138.5q0 -118 -63 -189.5t-167 -71.5q-39 0 -83 13t-73 35l68 83q42 -25 77 -25q29 0 45.5 13.5t23.5 47.5q-41 -20 -83 -20q-63 0 -98.5 37t-35.5 103q0 74 51.5 119.5t135.5 45.5zM165 696q0 -21 9.5 -35t24.5 -14q16 0 28 3
q-1 57 -8.5 78t-24.5 21q-29 0 -29 -53z" />
    <glyph glyph-name="uni2080" unicode="&#x2080;" horiz-adv-x="406" 
d="M203 287q91 0 142 -60t51 -166t-51 -166t-142 -60t-142 60t-51 166t51 166t142 60zM203 -53q18 0 24 23t6 91t-6 91t-24 23t-24 -23t-6 -91t6 -91t24 -23z" />
    <glyph glyph-name="uni2081" unicode="&#x2081;" horiz-adv-x="431" 
d="M336 -39h85v-111h-369v111h130v173l-88 -57l-79 95l181 104h140v-315z" />
    <glyph glyph-name="uni2082" unicode="&#x2082;" horiz-adv-x="390" 
d="M366 -34v-116h-329v105q5 5 38 31t48 40t39 38t34.5 44t10.5 37q0 29 -34 29q-27 0 -51 -16.5t-37 -43.5l-71 86q26 39 77 63t108 24q77 0 123.5 -35.5t46.5 -94.5q0 -87 -157 -191h154z" />
    <glyph glyph-name="uni2083" unicode="&#x2083;" horiz-adv-x="391" 
d="M274 86q102 -27 102 -120q0 -59 -53.5 -95t-140.5 -36q-48 0 -96 16.5t-80 45.5l75 91q35 -36 88 -36q44 0 44 31q0 37 -58 37h-50l-1 44l78 96h-153v116h328v-90z" />
    <glyph glyph-name="uni2084" unicode="&#x2084;" horiz-adv-x="406" 
d="M206 -150v73h-196v101l108 252h151l-101 -242h37l26 56h121v-56h44v-111h-44v-73h-146z" />
    <glyph glyph-name="uni2085" unicode="&#x2085;" horiz-adv-x="394" 
d="M249 141q61 0 95.5 -37.5t34.5 -104.5q0 -77 -53 -120.5t-148 -43.5q-53 0 -100 20t-71 53l73 89q13 -21 38 -34t51 -13q48 0 48 52q0 41 -38 41q-26 0 -49 -15l-92 21l14 227h290v-103h-161l-3 -47q36 15 71 15z" />
    <glyph glyph-name="uni2086" unicode="&#x2086;" horiz-adv-x="401" 
d="M257 140q63 0 98.5 -37t35.5 -103q0 -74 -51.5 -119.5t-135.5 -45.5q-95 0 -144.5 52.5t-49.5 153.5q0 116 58.5 181t163.5 65q95 0 150 -45l-68 -82q-36 21 -71 21q-28 0 -42 -13.5t-19 -48.5q38 21 75 21zM206 -57q14 0 19.5 12.5t5.5 44.5q0 27 -6.5 36t-25.5 9
q-10 0 -20 -2q0 -60 5.5 -80t21.5 -20z" />
    <glyph glyph-name="uni2087" unicode="&#x2087;" horiz-adv-x="403" 
d="M116 -150v84q0 63 30 116l69 122h-178v112h331v-121l-70 -124q-28 -49 -28 -105v-84h-154z" />
    <glyph glyph-name="uni2088" unicode="&#x2088;" horiz-adv-x="402" 
d="M198 -165q-87 0 -140 35.5t-53 94.5q0 37 21 63.5t57 36.5q-61 37 -61 97q0 56 49.5 90.5t129.5 34.5t129.5 -31t49.5 -81q0 -61 -69 -99q86 -37 86 -109q0 -59 -55 -95.5t-144 -36.5zM206 118q23 22 23 40q0 33 -28 33t-28 -33q0 -24 33 -40zM206 -59q37 0 37 30
q0 22 -60 48q-23 -16 -23 -44q0 -34 46 -34z" />
    <glyph glyph-name="uni2089" unicode="&#x2089;" horiz-adv-x="399" 
d="M192 287q91 0 146.5 -52.5t55.5 -138.5q0 -118 -63 -189.5t-167 -71.5q-39 0 -83 13t-73 35l68 83q42 -25 77 -25q29 0 45.5 13.5t23.5 47.5q-41 -20 -83 -20q-63 0 -98.5 37t-35.5 103q0 74 51.5 119.5t135.5 45.5zM165 126q0 -21 9.5 -35t24.5 -14q16 0 28 3
q-1 57 -8.5 78t-24.5 21q-29 0 -29 -53z" />
    <glyph glyph-name="Euro" unicode="&#x20ac;" horiz-adv-x="617" 
d="M307 224q30 -93 112 -93q87 0 169 52v-156q-69 -47 -179 -47q-130 0 -215 63.5t-114 180.5h-85v105h70v21v21h-70v105h85q29 117 114 180.5t215 63.5q63 0 122 -17.5t91 -46.5l-95 -140q-34 32 -108 32q-75 0 -107 -72h186v-105h-207v-21v-21h207v-105h-191z" />
    <glyph glyph-name="uni20B9" unicode="&#x20b9;" horiz-adv-x="570" 
d="M550 700v-114h-81q17 -22 24 -44h57v-114h-55q-12 -42 -48 -84t-81 -61l181 -283h-242l-167 270h-103v114h155q54 0 76 44h-231v114h231q-23 44 -76 44h-155v114h515z" />
    <glyph glyph-name="uni20BA" unicode="&#x20ba;" horiz-adv-x="613" 
d="M613 148q-32 -67 -116.5 -107.5t-189.5 -40.5h-197v194l-54 -25l-41 89l95 44v51l-53 -25l-42 89l95 44v239h217v-138l117 55l41 -89l-158 -74v-50l116 54l42 -89l-158 -74v-132h25q50 0 95 31t76 87z" />
    <glyph glyph-name="uni2116" unicode="&#x2116;" horiz-adv-x="1161" 
d="M893 255q-109 0 -176 64t-67 168t67 168t176 64t176 -64t67 -168t-67 -168t-176 -64zM30 0v700h283l118 -475h3q-2 18 -9.5 63t-11 78t-3.5 65v269h203v-700h-288l-105 411h-3q16 -110 16 -167v-244h-203zM893 382q31 0 44 24.5t13 80.5t-13 80.5t-44 24.5t-44 -24.5
t-13 -80.5t13 -80.5t44 -24.5zM650 1v166h486v-166h-486z" />
    <glyph glyph-name="trademark" unicode="&#x2122;" horiz-adv-x="914" 
d="M122 294v288h-96v118h344v-118h-95v-288h-153zM386 294l14 406h190l39 -222h3l34 222h201l12 -406h-146l1 95q2 117 10 190h-3l-50 -236h-115l-55 236h-3q10 -124 9 -191l-1 -94h-140z" />
    <glyph glyph-name="uni2153" unicode="&#x2153;" horiz-adv-x="1069" 
d="M336 385h85v-111h-369v111h130v173l-88 -57l-79 95l181 104h140v-315zM321 0l364 700h154l-364 -700h-154zM860 -15q-48 0 -96 16.5t-80 45.5l75 91q35 -36 88 -36q44 0 44 31q0 37 -58 37h-50l-1 44l78 96h-153v116h328v-90l-83 -100q102 -27 102 -120q0 -59 -53.5 -95
t-140.5 -36z" />
    <glyph glyph-name="uni2154" unicode="&#x2154;" horiz-adv-x="995" 
d="M43 274v105q5 5 38 31t48 40t39 38t34.5 44t10.5 37q0 29 -34 29q-27 0 -51 -16.5t-37 -43.5l-71 86q26 39 77 63t108 24q77 0 123.5 -35.5t46.5 -94.5q0 -87 -157 -191h154v-116h-329zM247 0l364 700h154l-364 -700h-154zM786 -15q-48 0 -96 16.5t-80 45.5l75 91
q35 -36 88 -36q44 0 44 31q0 37 -58 37h-50l-1 44l78 96h-153v116h328v-90l-83 -100q102 -27 102 -120q0 -59 -53.5 -95t-140.5 -36z" />
    <glyph glyph-name="uni2155" unicode="&#x2155;" horiz-adv-x="1072" 
d="M336 385h85v-111h-369v111h130v173l-88 -57l-79 95l181 104h140v-315zM321 0l364 700h154l-364 -700h-154zM856 -15q-53 0 -100 20t-71 53l73 89q13 -21 38 -34t51 -13q48 0 48 52q0 41 -38 41q-26 0 -49 -15l-92 21l14 227h290v-103h-161l-3 -47q36 15 71 15
q61 0 95.5 -37.5t34.5 -104.5q0 -77 -53 -120.5t-148 -43.5z" />
    <glyph glyph-name="uni2156" unicode="&#x2156;" horiz-adv-x="999" 
d="M43 274v105q5 5 38 31t48 40t39 38t34.5 44t10.5 37q0 29 -34 29q-27 0 -51 -16.5t-37 -43.5l-71 86q26 39 77 63t108 24q77 0 123.5 -35.5t46.5 -94.5q0 -87 -157 -191h154v-116h-329zM246 0l364 700h154l-364 -700h-154zM783 -15q-53 0 -100 20t-71 53l73 89
q13 -21 38 -34t51 -13q48 0 48 52q0 41 -38 41q-26 0 -49 -15l-92 21l14 227h290v-103h-161l-3 -47q36 15 71 15q61 0 95.5 -37.5t34.5 -104.5q0 -77 -53 -120.5t-148 -43.5z" />
    <glyph glyph-name="uni2157" unicode="&#x2157;" horiz-adv-x="1003" 
d="M191 259q-48 0 -96 16.5t-80 45.5l75 91q35 -36 88 -36q44 0 44 31q0 37 -58 37h-50l-1 44l78 96h-153v116h328v-90l-83 -100q102 -27 102 -120q0 -59 -53.5 -95t-140.5 -36zM252 0l364 700h154l-364 -700h-154zM787 -15q-53 0 -100 20t-71 53l73 89q13 -21 38 -34
t51 -13q48 0 48 52q0 41 -38 41q-26 0 -49 -15l-92 21l14 227h290v-103h-161l-3 -47q36 15 71 15q61 0 95.5 -37.5t34.5 -104.5q0 -77 -53 -120.5t-148 -43.5z" />
    <glyph glyph-name="uni2158" unicode="&#x2158;" horiz-adv-x="999" 
d="M206 274v73h-196v101l109 255l132 -46l-83 -199h37l26 56h121v-56h44v-111h-44v-73h-146zM247 0l364 700h154l-364 -700h-154zM783 -15q-53 0 -100 20t-71 53l73 89q13 -21 38 -34t51 -13q48 0 48 52q0 41 -38 41q-26 0 -49 -15l-92 21l14 227h290v-103h-161l-3 -47
q36 15 71 15q61 0 95.5 -37.5t34.5 -104.5q0 -77 -53 -120.5t-148 -43.5z" />
    <glyph glyph-name="uni2159" unicode="&#x2159;" horiz-adv-x="1069" 
d="M52 385h130v173l-88 -57l-79 95l181 104h140v-315h85v-111h-369v111zM685 700h154l-364 -700h-154zM925 290q63 0 98.5 -37t35.5 -103q0 -74 -51.5 -119.5t-135.5 -45.5q-95 0 -144.5 52.5t-49.5 153.5q0 116 58.5 181t163.5 65q95 0 150 -45l-68 -82q-36 21 -71 21
q-28 0 -42 -13.5t-19 -48.5q38 21 75 21zM874 93q14 0 19.5 12.5t5.5 44.5q0 27 -6.5 36t-25.5 9q-10 0 -20 -2q0 -60 5.5 -80t21.5 -20z" />
    <glyph glyph-name="uni215A" unicode="&#x215a;" horiz-adv-x="989" 
d="M387 423q0 -77 -53 -120.5t-148 -43.5q-53 0 -100 20t-71 53l73 89q13 -21 38 -34t51 -13q48 0 48 52q0 41 -38 41q-26 0 -49 -15l-92 21l14 227h290v-103h-161l-3 -47q36 15 71 15q61 0 95.5 -37.5t34.5 -104.5zM605 700h154l-364 -700h-154zM845 290q63 0 98.5 -37
t35.5 -103q0 -74 -51.5 -119.5t-135.5 -45.5q-95 0 -144.5 52.5t-49.5 153.5q0 116 58.5 181t163.5 65q83 0 136 -35l-54 -92q-36 21 -71 21q-28 0 -42 -13.5t-19 -48.5q38 21 75 21zM794 93q14 0 19.5 12.5t5.5 44.5q0 27 -6.5 36t-25.5 9q-10 0 -20 -2q0 -60 5.5 -80
t21.5 -20z" />
    <glyph glyph-name="oneeighth" unicode="&#x215b;" horiz-adv-x="1070" 
d="M52 274v111h130v173l-88 -57l-79 95l181 104h140v-315h85v-111h-369zM321 0l364 700h154l-364 -700h-154zM866 -15q-87 0 -140 35.5t-53 94.5q0 37 21 63.5t57 36.5q-61 37 -61 97q0 56 49.5 90.5t129.5 34.5t129.5 -31t49.5 -81q0 -61 -69 -99q86 -37 86 -109
q0 -59 -55 -95.5t-144 -36.5zM874 268q23 22 23 40q0 33 -28 33t-28 -33q0 -24 33 -40zM874 91q37 0 37 30q0 22 -60 48q-23 -16 -23 -44q0 -34 46 -34z" />
    <glyph glyph-name="threeeighths" unicode="&#x215c;" horiz-adv-x="1001" 
d="M191 259q-48 0 -96 16.5t-80 45.5l75 91q35 -36 88 -36q44 0 44 31q0 37 -58 37h-50l-1 44l78 96h-153v116h328v-90l-83 -100q102 -27 102 -120q0 -59 -53.5 -95t-140.5 -36zM251 0l364 700h154l-364 -700h-154zM797 -15q-87 0 -140 35.5t-53 94.5q0 37 21 63.5t57 36.5
q-61 37 -61 97q0 56 49.5 90.5t129.5 34.5t129.5 -31t49.5 -81q0 -61 -69 -99q86 -37 86 -109q0 -59 -55 -95.5t-144 -36.5zM805 268q23 22 23 40q0 33 -28 33t-28 -33q0 -24 33 -40zM805 91q37 0 37 30q0 22 -60 48q-23 -16 -23 -44q0 -34 46 -34z" />
    <glyph glyph-name="fiveeighths" unicode="&#x215d;" horiz-adv-x="992" 
d="M186 259q-53 0 -100 20t-71 53l73 89q13 -21 38 -34t51 -13q48 0 48 52q0 41 -38 41q-26 0 -49 -15l-92 21l14 227h290v-103h-161l-3 -47q36 15 71 15q61 0 95.5 -37.5t34.5 -104.5q0 -77 -53 -120.5t-148 -43.5zM243 0l364 700h154l-364 -700h-154zM788 -15
q-87 0 -140 35.5t-53 94.5q0 37 21 63.5t57 36.5q-61 37 -61 97q0 56 49.5 90.5t129.5 34.5t129.5 -31t49.5 -81q0 -61 -69 -99q86 -37 86 -109q0 -59 -55 -95.5t-144 -36.5zM796 268q23 22 23 40q0 33 -28 33t-28 -33q0 -24 33 -40zM796 91q37 0 37 30q0 22 -60 48
q-23 -16 -23 -44q0 -34 46 -34z" />
    <glyph glyph-name="seveneighths" unicode="&#x215e;" horiz-adv-x="924" 
d="M114 266v84q0 64 30 116l69 122h-178v112h331v-121l-70 -124q-28 -49 -28 -105v-84h-154zM175 0l364 700h154l-364 -700h-154zM720 -15q-87 0 -140 35.5t-53 94.5q0 37 21 63.5t57 36.5q-61 37 -61 97q0 56 49.5 90.5t129.5 34.5t129.5 -31t49.5 -81q0 -61 -69 -99
q86 -37 86 -109q0 -59 -55 -95.5t-144 -36.5zM728 268q23 22 23 40q0 33 -28 33t-28 -33q0 -24 33 -40zM728 91q37 0 37 30q0 22 -60 48q-23 -16 -23 -44q0 -34 46 -34z" />
    <glyph glyph-name="arrowleft" unicode="&#x2190;" horiz-adv-x="878" 
d="M58 329v104l261 287l123 -119l-68 -72q-24 -25 -58 -49h470v-198h-470q34 -24 58 -49l68 -72l-123 -119z" />
    <glyph glyph-name="arrowup" unicode="&#x2191;" horiz-adv-x="848" 
d="M476 750l287 -261l-119 -123l-72 68q-25 24 -49 58v-492h-198v492q-24 -34 -49 -58l-72 -68l-119 123l287 261h104z" />
    <glyph glyph-name="arrowright" unicode="&#x2192;" horiz-adv-x="878" 
d="M820 329l-261 -287l-123 119l68 72q24 25 58 49h-470v198h470q-34 24 -58 49l-68 72l123 119l261 -287v-104z" />
    <glyph glyph-name="arrowdown" unicode="&#x2193;" horiz-adv-x="848" 
d="M476 13h-104l-287 261l119 123l72 -68q25 -24 49 -58v470h198v-470q24 34 49 58l72 68l119 -123z" />
    <glyph glyph-name="arrowboth" unicode="&#x2194;" horiz-adv-x="1283" 
d="M1225 433v-104l-261 -287l-123 119l68 72q24 25 58 49h-651q34 -24 58 -49l68 -72l-123 -119l-261 287v104l261 287l123 -119l-68 -72q-24 -25 -58 -49h651q-34 24 -58 49l-68 72l123 119z" />
    <glyph glyph-name="arrowupdn" unicode="&#x2195;" horiz-adv-x="849" 
d="M373 -293l-287 262l119 123l72 -68q25 -24 49 -58v601q-24 -34 -49 -58l-72 -68l-120 123l288 261h104l287 -261l-119 -123l-72 68q-25 24 -49 58v-601q24 34 49 58l72 68l119 -123l-287 -262h-104z" />
    <glyph glyph-name="uni2196" unicode="&#x2196;" horiz-adv-x="878" 
d="M159 621l77 69l388 -2l-6 -171l-99 3q-36 0 -75 10l314 -349l-147 -133l-315 349q6 -40 3 -76l-8 -98l-171 12z" />
    <glyph glyph-name="uni2197" unicode="&#x2197;" horiz-adv-x="878" 
d="M719 621l39 -386l-171 -12l-8 98q-3 36 3 76l-315 -349l-147 133l314 349q-39 -10 -75 -10l-99 -3l-6 171l388 2z" />
    <glyph glyph-name="uni2198" unicode="&#x2198;" horiz-adv-x="878" 
d="M254 50l6 171l99 -3q36 0 75 -10l-314 349l147 133l315 -349q-6 40 -3 76l8 98l171 -12l-39 -386l-77 -69z" />
    <glyph glyph-name="uni2199" unicode="&#x2199;" horiz-adv-x="878" 
d="M159 117l-39 386l171 12l8 -98q3 -36 -3 -76l315 349l147 -133l-314 -349q39 10 75 10l99 3l6 -171l-388 -2z" />
    <glyph glyph-name="uni21E6" unicode="&#x21e6;" horiz-adv-x="835" 
d="M322 80l-280 283q-3 3 0 6l280 282q11 3 15 -6v-148h408q23 0 36.5 -13.5t13.5 -36.5v-162q0 -23 -13.5 -36.5t-36.5 -13.5h-408v-149q-5 -9 -15 -6zM292 282h459v168h-459v107l-189 -191l189 -191v107z" />
    <glyph glyph-name="uni21E7" unicode="&#x21e7;" horiz-adv-x="693" 
d="M632 461q3 -11 -6 -15h-149v-408q0 -22 -13.5 -36t-36.5 -14h-162q-23 0 -36.5 14t-13.5 36v408h-148q-9 4 -6 15l282 280q3 3 6 0zM430 491h107l-191 189l-191 -189h107v-459h168v459z" />
    <glyph glyph-name="uni21E8" unicode="&#x21e8;" horiz-adv-x="835" 
d="M513 80q-11 -3 -15 6v149h-408q-22 0 -36 13.5t-14 36.5v162q0 23 14 36.5t36 13.5h408v148q4 9 15 6l280 -282q3 -3 0 -6zM543 282v-107l189 191l-189 191v-107h-459v-168h459z" />
    <glyph glyph-name="uni21E9" unicode="&#x21e9;" horiz-adv-x="693" 
d="M632 270l-283 -281q-3 -3 -6 0l-282 281q-3 11 6 15h148v408q0 23 13.5 36.5t36.5 13.5h162q23 0 36.5 -13.5t13.5 -36.5v-408h149q9 -5 6 -15zM430 240v459h-168v-459h-107l191 -189l191 189h-107z" />
    <glyph glyph-name="partialdiff" unicode="&#x2202;" horiz-adv-x="586" 
d="M92 770q215 -28 347 -153.5t132 -303.5q0 -157 -75 -245t-208 -88t-208 74t-75 206q0 112 63 180.5t166 68.5q41 0 80 -14q-27 60 -86.5 88.5t-178.5 46.5zM288 150q26 0 41.5 33.5t15.5 88.5q0 48 -3 87q-22 11 -47 11q-29 0 -46.5 -30.5t-17.5 -79.5t15.5 -79.5
t41.5 -30.5z" />
    <glyph glyph-name="product" unicode="&#x220f;" horiz-adv-x="617" 
d="M73 -230v769h-68v161h607v-161h-69v-769h-206v769h-58v-769h-206z" />
    <glyph glyph-name="summation" unicode="&#x2211;" horiz-adv-x="540" 
d="M15 0v155l177 195l-177 192v158h501v-158h-265l139 -162v-60l-139 -162h265v-158h-501z" />
    <glyph glyph-name="minus" unicode="&#x2212;" horiz-adv-x="460" 
d="M425 410v-157h-390v157h390z" />
    <glyph glyph-name="radical" unicode="&#x221a;" horiz-adv-x="548" 
d="M145 0l-160 437l207 56l70 -311h3l171 726h362v-161h-196l-204 -747h-253z" />
    <glyph glyph-name="infinity" unicode="&#x221e;" horiz-adv-x="897" 
d="M250 53q-108 0 -174 70t-66 185t66 185t174 70q126 0 209 -108q38 51 87 79.5t101 28.5q108 0 174 -70t66 -185t-66 -185t-174 -70q-57 0 -113 29.5t-100 82.5q-79 -112 -184 -112zM287 217q43 0 79 87q-12 95 -79 95q-60 0 -60 -91t60 -91zM610 217q60 0 60 91t-60 91
q-25 0 -45.5 -25t-33.5 -70q9 -39 31 -63t48 -24z" />
    <glyph glyph-name="integral" unicode="&#x222b;" horiz-adv-x="418" 
d="M98 -250q-99 0 -153 27l47 145q31 -14 59 -14q21 0 34 12t13 31v631q0 85 61 136.5t161 51.5q99 0 153 -27l-47 -145q-31 14 -59 14q-21 0 -34 -12t-13 -31v-631q0 -85 -61 -136.5t-161 -51.5z" />
    <glyph glyph-name="approxequal" unicode="&#x2248;" horiz-adv-x="538" 
d="M350 293q-41 0 -98 30t-76 30q-18 0 -37 -14t-30 -34l-109 60q29 68 78.5 109t102.5 41q50 0 107.5 -30t76.5 -30q34 0 64 43l109 -57q-26 -67 -78 -107.5t-110 -40.5zM350 53q-41 0 -98 30t-76 30q-18 0 -37 -14t-30 -34l-109 60q29 68 78.5 109t102.5 41
q50 0 107.5 -30t76.5 -30q34 0 64 43l109 -57q-26 -67 -78 -107.5t-110 -40.5z" />
    <glyph glyph-name="notequal" unicode="&#x2260;" horiz-adv-x="461" 
d="M426 372h-113l-25 -79h137v-157h-186l-40 -130h-138l40 130h-66v157h115l24 79h-139v157h188l38 124h139l-39 -124h65v-157z" />
    <glyph glyph-name="lessequal" unicode="&#x2264;" horiz-adv-x="512" 
d="M423 195l-384 160v202l384 160l68 -146l-283 -115l283 -115zM20 0v157h472v-157h-472z" />
    <glyph glyph-name="greaterequal" unicode="&#x2265;" horiz-adv-x="512" 
d="M89 195l-68 146l283 115l-283 115l68 146l384 -160v-202zM20 0v157h472v-157h-472z" />
    <glyph glyph-name="lozenge" unicode="&#x25ca;" horiz-adv-x="612" 
d="M179 0l-152 332v36l152 332h254l152 -332v-36l-152 -332h-254zM306 150l85 200l-85 200l-85 -200z" />
    <glyph glyph-name="uni2780" unicode="&#x2780;" horiz-adv-x="811" 
d="M404 -20q-155 0 -264.5 107.5t-109.5 261.5q0 155 109 263t265 108q155 0 266 -108.5t111 -262.5q0 -153 -111 -261t-266 -108zM404 37q131 0 225 91.5t94 220.5q0 131 -94 222.5t-225 91.5t-223.5 -91.5t-92.5 -222.5q0 -130 92.5 -221t223.5 -91zM254 137v111h100v173
l-88 -57l-79 95l181 104h140v-315h65v-111h-319z" />
    <glyph glyph-name="uni2781" unicode="&#x2781;" horiz-adv-x="811" 
d="M404 -20q-155 0 -264.5 107.5t-109.5 261.5q0 155 109 263t265 108q155 0 266 -108.5t111 -262.5q0 -153 -111 -261t-266 -108zM404 37q131 0 225 91.5t94 220.5q0 131 -94 222.5t-225 91.5t-223.5 -91.5t-92.5 -222.5q0 -130 92.5 -221t223.5 -91zM562 248v-116h-311
v105q5 5 38 31t48 40t39 38t34.5 44t10.5 37q0 29 -34 29q-27 0 -51 -16.5t-37 -43.5l-71 86q26 39 77 63t108 24q77 0 123.5 -35.5t46.5 -94.5q0 -87 -157 -191h136z" />
    <glyph glyph-name="uni2782" unicode="&#x2782;" horiz-adv-x="811" 
d="M404 -20q-155 0 -264.5 107.5t-109.5 261.5q0 155 109 263t265 108q155 0 266 -108.5t111 -262.5q0 -153 -111 -261t-266 -108zM404 37q131 0 225 91.5t94 220.5q0 131 -94 222.5t-225 91.5t-223.5 -91.5t-92.5 -222.5q0 -130 92.5 -221t223.5 -91zM484 381
q102 -27 102 -120q0 -59 -53.5 -95t-140.5 -36q-48 0 -96 16.5t-80 45.5l75 91q35 -36 88 -36q44 0 44 31q0 37 -58 37h-50l-1 44l78 96h-143v116h318v-90z" />
    <glyph glyph-name="uni2783" unicode="&#x2783;" horiz-adv-x="811" 
d="M404 -20q-155 0 -264.5 107.5t-109.5 261.5q0 155 109 263t265 108q155 0 266 -108.5t111 -262.5q0 -153 -111 -261t-266 -108zM404 37q131 0 225 91.5t94 220.5q0 131 -94 222.5t-225 91.5t-223.5 -91.5t-92.5 -222.5q0 -130 92.5 -221t223.5 -91zM408 137v73h-196v101
l108 252h151l-101 -242h37l26 56h121v-56h44v-111h-44v-73h-146z" />
    <glyph glyph-name="uni2784" unicode="&#x2784;" horiz-adv-x="811" 
d="M404 -20q-155 0 -264.5 107.5t-109.5 261.5q0 155 109 263t265 108q155 0 266 -108.5t111 -262.5q0 -153 -111 -261t-266 -108zM404 37q131 0 225 91.5t94 220.5q0 131 -94 222.5t-225 91.5t-223.5 -91.5t-92.5 -222.5q0 -130 92.5 -221t223.5 -91zM461 436
q61 0 95.5 -37.5t34.5 -104.5q0 -77 -53 -120.5t-148 -43.5q-53 0 -100 20t-71 53l73 89q13 -21 38 -34t51 -13q48 0 48 52q0 41 -38 41q-26 0 -49 -15l-92 21l14 227h290v-103h-161l-3 -47q36 15 71 15z" />
    <glyph glyph-name="uni2785" unicode="&#x2785;" horiz-adv-x="811" 
d="M404 720q155 0 266 -108.5t111 -262.5q0 -153 -111 -261t-266 -108t-264.5 107.5t-109.5 261.5q0 155 109 263t265 108zM404 37q131 0 225 91.5t94 220.5q0 131 -94 222.5t-225 91.5t-223.5 -91.5t-92.5 -222.5q0 -130 92.5 -221t223.5 -91zM452 429q63 0 98.5 -37
t35.5 -103q0 -74 -51.5 -119.5t-135.5 -45.5q-95 0 -144.5 52.5t-49.5 153.5q0 116 58.5 181t163.5 65q95 0 150 -45l-68 -82q-36 21 -71 21q-28 0 -42 -13.5t-19 -48.5q38 21 75 21zM401 232q14 0 19.5 12.5t5.5 44.5q0 27 -6.5 36t-25.5 9q-10 0 -20 -2q0 -60 5.5 -80
t21.5 -20z" />
    <glyph glyph-name="uni2786" unicode="&#x2786;" horiz-adv-x="811" 
d="M404 -20q-155 0 -264.5 107.5t-109.5 261.5q0 155 109 263t265 108q155 0 266 -108.5t111 -262.5q0 -153 -111 -261t-266 -108zM404 37q131 0 225 91.5t94 220.5q0 131 -94 222.5t-225 91.5t-223.5 -91.5t-92.5 -222.5q0 -130 92.5 -221t223.5 -91zM319 133v84
q0 63 30 116l69 122h-178v112h331v-121l-70 -124q-28 -49 -28 -105v-84h-154z" />
    <glyph glyph-name="uni2787" unicode="&#x2787;" horiz-adv-x="811" 
d="M404 -20q-155 0 -264.5 107.5t-109.5 261.5q0 155 109 263t265 108q155 0 266 -108.5t111 -262.5q0 -153 -111 -261t-266 -108zM404 37q131 0 225 91.5t94 220.5q0 131 -94 222.5t-225 91.5t-223.5 -91.5t-92.5 -222.5q0 -130 92.5 -221t223.5 -91zM403 124
q-87 0 -140 35.5t-53 94.5q0 37 21 63.5t57 36.5q-61 37 -61 97q0 56 49.5 90.5t129.5 34.5t129.5 -31t49.5 -81q0 -61 -69 -99q86 -37 86 -109q0 -59 -55 -95.5t-144 -36.5zM410 406q23 22 23 40q0 33 -28 33t-28 -33q0 -24 33 -40zM410 229q37 0 37 30q0 22 -60 48
q-23 -16 -23 -44q0 -34 46 -34z" />
    <glyph glyph-name="uni2788" unicode="&#x2788;" horiz-adv-x="811" 
d="M404 720q155 0 266 -108.5t111 -262.5q0 -153 -111 -261t-266 -108t-264.5 107.5t-109.5 261.5q0 155 109 263t265 108zM404 37q131 0 225 91.5t94 220.5q0 131 -94 222.5t-225 91.5t-223.5 -91.5t-92.5 -222.5q0 -130 92.5 -221t223.5 -91zM398 576q91 0 146.5 -52.5
t55.5 -138.5q0 -118 -63 -189.5t-167 -71.5q-39 0 -83 13t-73 35l68 83q42 -25 77 -25q29 0 45.5 13.5t23.5 47.5q-41 -20 -83 -20q-63 0 -98.5 37t-35.5 103q0 74 51.5 119.5t135.5 45.5zM371 415q0 -21 9.5 -35t24.5 -14q16 0 28 3q-1 57 -8.5 78t-24.5 21q-29 0 -29 -53z
" />
    <glyph glyph-name="uni278A" unicode="&#x278a;" horiz-adv-x="811" 
d="M404 -20q-155 0 -264.5 107.5t-109.5 261.5q0 155 109 263t265 108q155 0 266 -108.5t111 -262.5q0 -153 -111 -261t-266 -108zM254 137h319v111h-65v315h-140l-181 -104l79 -95l88 57v-173h-100v-111z" />
    <glyph glyph-name="uni278B" unicode="&#x278b;" horiz-adv-x="811" 
d="M404 -20q-155 0 -264.5 107.5t-109.5 261.5q0 155 109 263t265 108q155 0 266 -108.5t111 -262.5q0 -153 -111 -261t-266 -108zM251 132h311v116h-136q157 104 157 191q0 59 -46.5 94.5t-123.5 35.5q-57 0 -108 -24t-77 -63l71 -86q13 27 37 43.5t51 16.5q34 0 34 -29
q0 -17 -10.5 -37t-34.5 -44t-39 -38t-48 -40t-38 -31v-105z" />
    <glyph glyph-name="uni278C" unicode="&#x278c;" horiz-adv-x="811" 
d="M404 -20q-155 0 -264.5 107.5t-109.5 261.5q0 155 109 263t265 108q155 0 266 -108.5t111 -262.5q0 -153 -111 -261t-266 -108zM392 130q87 0 140.5 36t53.5 95q0 93 -102 120l83 100v90h-318v-116h143l-78 -96l1 -44h50q58 0 58 -37q0 -31 -44 -31q-53 0 -88 36l-75 -91
q32 -29 80 -45.5t96 -16.5z" />
    <glyph glyph-name="uni278D" unicode="&#x278d;" horiz-adv-x="811" 
d="M404 -20q-155 0 -264.5 107.5t-109.5 261.5q0 155 109 263t265 108q155 0 266 -108.5t111 -262.5q0 -153 -111 -261t-266 -108zM408 137h146v73h44v111h-44v56h-121l-26 -56h-37l101 242h-151l-108 -252v-101h196v-73z" />
    <glyph glyph-name="uni278E" unicode="&#x278e;" horiz-adv-x="811" 
d="M404 -20q-155 0 -264.5 107.5t-109.5 261.5q0 155 109 263t265 108q155 0 266 -108.5t111 -262.5q0 -153 -111 -261t-266 -108zM390 130q95 0 148 43.5t53 120.5q0 67 -34.5 104.5t-95.5 37.5q-35 0 -71 -15l3 47h161v103h-290l-14 -227l92 -21q23 15 49 15q38 0 38 -41
q0 -52 -48 -52q-26 0 -51 13t-38 34l-73 -89q24 -33 71 -53t100 -20z" />
    <glyph glyph-name="uni278F" unicode="&#x278f;" horiz-adv-x="811" 
d="M404 -20q-155 0 -264.5 107.5t-109.5 261.5q0 155 109 263t265 108q155 0 266 -108.5t111 -262.5q0 -153 -111 -261t-266 -108zM399 124q84 0 135.5 45.5t51.5 119.5q0 66 -35.5 103t-98.5 37q-37 0 -75 -21q5 35 19 48.5t42 13.5q35 0 71 -21l68 82q-55 45 -150 45
q-105 0 -163.5 -65t-58.5 -181q0 -101 49.5 -153.5t144.5 -52.5zM401 232q-16 0 -21.5 20t-5.5 80q10 2 20 2q19 0 25.5 -9t6.5 -36q0 -32 -5.5 -44.5t-19.5 -12.5z" />
    <glyph glyph-name="uni2790" unicode="&#x2790;" horiz-adv-x="811" 
d="M404 -20q-155 0 -264.5 107.5t-109.5 261.5q0 155 109 263t265 108q155 0 266 -108.5t111 -262.5q0 -153 -111 -261t-266 -108zM319 133h154v84q0 56 28 105l70 124v121h-331v-112h178l-69 -122q-30 -53 -30 -116v-84z" />
    <glyph glyph-name="uni2791" unicode="&#x2791;" horiz-adv-x="811" 
d="M404 -20q-155 0 -264.5 107.5t-109.5 261.5q0 155 109 263t265 108q155 0 266 -108.5t111 -262.5q0 -153 -111 -261t-266 -108zM403 124q89 0 144 36.5t55 95.5q0 72 -86 109q69 38 69 99q0 50 -49.5 81t-129.5 31t-129.5 -34.5t-49.5 -90.5q0 -60 61 -97
q-36 -10 -57 -36.5t-21 -63.5q0 -59 53 -94.5t140 -35.5zM410 406q-33 16 -33 40q0 33 28 33t28 -33q0 -18 -23 -40zM410 229q-46 0 -46 34q0 28 23 44q60 -26 60 -48q0 -30 -37 -30z" />
    <glyph glyph-name="uni2792" unicode="&#x2792;" horiz-adv-x="811" 
d="M404 -20q-155 0 -264.5 107.5t-109.5 261.5q0 155 109 263t265 108q155 0 266 -108.5t111 -262.5q0 -153 -111 -261t-266 -108zM370 124q104 0 167 71.5t63 189.5q0 86 -55.5 138.5t-146.5 52.5q-84 0 -135.5 -45.5t-51.5 -119.5q0 -66 35.5 -103t98.5 -37q42 0 83 20
q-7 -34 -23.5 -47.5t-45.5 -13.5q-35 0 -77 25l-68 -83q29 -22 73 -35t83 -13zM405 366q-15 0 -24.5 14t-9.5 35q0 53 29 53q17 0 24.5 -21t8.5 -78q-12 -3 -28 -3z" />
    <glyph glyph-name="uni27A1" unicode="&#x27a1;" horiz-adv-x="835" 
d="M513 80q-11 -3 -15 6v149h-408q-22 0 -36 13.5t-14 36.5v162q0 23 14 36.5t36 13.5h408v148q4 9 15 6l280 -282q3 -3 0 -6z" />
    <glyph glyph-name="uni2B05" unicode="&#x2b05;" horiz-adv-x="835" 
d="M322 80l-280 283q-3 3 0 6l280 282q11 3 15 -6v-148h408q23 0 36.5 -13.5t13.5 -36.5v-162q0 -23 -13.5 -36.5t-36.5 -13.5h-408v-149q-5 -9 -15 -6z" />
    <glyph glyph-name="uni2B06" unicode="&#x2b06;" horiz-adv-x="693" 
d="M632 461q3 -11 -6 -15h-149v-408q0 -22 -13.5 -36t-36.5 -14h-162q-23 0 -36.5 14t-13.5 36v408h-148q-9 4 -6 15l282 280q3 3 6 0z" />
    <glyph glyph-name="uni2B07" unicode="&#x2b07;" horiz-adv-x="693" 
d="M632 270l-283 -281q-3 -3 -6 0l-282 281q-3 11 6 15h148v408q0 23 13.5 36.5t36.5 13.5h162q23 0 36.5 -13.5t13.5 -36.5v-408h149q9 -5 6 -15z" />
    <glyph glyph-name="dotlessj" unicode="&#xf6be;" horiz-adv-x="285" 
d="M-25 -250l-43 155q101 48 101 129v516h222v-498q0 -121 -77 -204t-203 -98z" />
    <glyph glyph-name="uniF8FF" unicode="&#xf8ff;" horiz-adv-x="750" 
d="M650 -35h-550v768h550v-768zM575 44v610h-400v-610h400zM459 282h71v-4l-37 -185h-97l-11 60l-8 50h-5l-7 -50l-12 -60h-98l-36 185v4h72l15 -131h5l28 131h71l28 -131h6z" />
    <glyph glyph-name="Jacute" horiz-adv-x="483" 
d="M217 745l105 176h197l-131 -176h-171zM197 -20q-58 0 -112.5 20.5t-84.5 53.5l99 146q37 -39 74 -39q49 0 49 62v304h-161v173h392l-1 -467q-1 -114 -71 -183.5t-184 -69.5z" />
    <glyph glyph-name="IJ.ss01" horiz-adv-x="774" 
d="M261 700v-700h-231v700h231zM488 -20q-58 0 -112.5 20.5t-84.5 53.5l99 146q37 -39 74 -39q49 0 49 62v477h231l-1 -467q-1 -114 -71 -183.5t-184 -69.5z" />
    <glyph glyph-name="G.ss02" horiz-adv-x="650" 
d="M620 387v-323q-43 -38 -116.5 -61t-149.5 -23q-162 0 -253 97.5t-91 272.5t95.5 272.5t265.5 97.5q134 0 232 -87l-99 -136q-59 52 -120 52q-134 0 -134 -199q0 -98 29.5 -148.5t84.5 -50.5q19 0 41 5v231h215z" />
    <glyph glyph-name="Gbreve.ss02" horiz-adv-x="650" 
d="M401 935h117q0 -86 -53 -139t-140 -53t-140 53t-53 139h117q0 -29 21 -47t55 -18t55 18t21 47zM620 387v-323q-43 -38 -116.5 -61t-149.5 -23q-162 0 -253 97.5t-91 272.5t95.5 272.5t265.5 97.5q134 0 232 -87l-99 -136q-59 52 -120 52q-134 0 -134 -199
q0 -98 29.5 -148.5t84.5 -50.5q19 0 41 5v231h215z" />
    <glyph glyph-name="Gcommaaccent.ss02" horiz-adv-x="650" 
d="M620 387v-323q-43 -38 -116.5 -61t-149.5 -23q-162 0 -253 97.5t-91 272.5t95.5 272.5t265.5 97.5q134 0 232 -87l-99 -136q-59 52 -120 52q-134 0 -134 -199q0 -98 29.5 -148.5t84.5 -50.5q19 0 41 5v231h215zM233 -344l-8 74q89 10 93 93h-93v129h222v-94
q0 -95 -58.5 -148.5t-155.5 -53.5z" />
    <glyph glyph-name="Gdotaccent.ss02" horiz-adv-x="650" 
d="M234 750v179h182v-179h-182zM620 387v-323q-43 -38 -116.5 -61t-149.5 -23q-162 0 -253 97.5t-91 272.5t95.5 272.5t265.5 97.5q134 0 232 -87l-99 -136q-59 52 -120 52q-134 0 -134 -199q0 -98 29.5 -148.5t84.5 -50.5q19 0 41 5v231h215z" />
    <glyph glyph-name="J.ss02" horiz-adv-x="483" 
d="M197 -20q-58 0 -112.5 20.5t-84.5 53.5l99 146q37 -39 74 -39q49 0 49 62v477h231l-1 -467q-1 -114 -71 -183.5t-184 -69.5z" />
    <glyph glyph-name="Jacute.ss02" horiz-adv-x="483" 
d="M217 745l105 176h197l-131 -176h-171zM197 -20q-58 0 -112.5 20.5t-84.5 53.5l99 146q37 -39 74 -39q49 0 49 62v477h231l-1 -467q-1 -114 -71 -183.5t-184 -69.5z" />
    <glyph glyph-name="K.ss02" horiz-adv-x="665" 
d="M261 700v-700h-231v700h231zM270 383l169 317h237l-182 -313l196 -387h-251l-169 369v14z" />
    <glyph glyph-name="Kcommaaccent.ss02" horiz-adv-x="665" 
d="M261 700v-700h-231v700h231zM270 383l169 317h237l-182 -313l196 -387h-251l-169 369v14zM221 -344l-8 74q89 10 93 93h-93v129h222v-94q0 -95 -58.5 -148.5t-155.5 -53.5z" />
    <glyph glyph-name="Q.ss02" horiz-adv-x="696" 
d="M570 -147q-203 44 -332 121q-228 135 -228 376q0 176 86.5 273t247.5 97t247.5 -97t86.5 -273q0 -106 -48.5 -188t-130.5 -121v-3q67 -15 178 -26zM344 156q50 0 72 45t22 149t-22 149t-72 45t-72 -45t-22 -149t22 -149t72 -45z" />
    <glyph glyph-name="i.loclTRK" horiz-adv-x="282" 
d="M29 596v154h224v-154h-224zM30 0v550h222v-550h-222z" />
    <glyph glyph-name="jacute" horiz-adv-x="285" 
d="M39 608l105 176h197l-131 -176h-171zM-25 -250l-43 155q101 48 101 129v516h222v-498q0 -121 -77 -204t-203 -98z" />
    <glyph glyph-name="a.ss01" horiz-adv-x="602" 
d="M238 -20q-110 0 -166.5 74.5t-56.5 220.5q0 139 57 217t158 78q39 0 76 -18t63 -48v46h203v-550h-191v41q-59 -61 -143 -61zM294 150q34 0 56 38v175q-22 37 -56 37q-53 0 -53 -125t53 -125z" />
    <glyph glyph-name="aacute.ss01" horiz-adv-x="602" 
d="M205 608l105 176h197l-131 -176h-171zM238 -20q-110 0 -166.5 74.5t-56.5 220.5q0 139 57 217t158 78q39 0 76 -18t63 -48v46h203v-550h-191v41q-59 -61 -143 -61zM294 150q34 0 56 38v175q-22 37 -56 37q-53 0 -53 -125t53 -125z" />
    <glyph glyph-name="abreve.ss01" horiz-adv-x="602" 
d="M384 794h117q0 -86 -53 -139t-140 -53t-140 53t-53 139h117q0 -29 21 -47t55 -18t55 18t21 47zM238 -20q-110 0 -166.5 74.5t-56.5 220.5q0 139 57 217t158 78q39 0 76 -18t63 -48v46h203v-550h-191v41q-59 -61 -143 -61zM294 150q34 0 56 38v175q-22 37 -56 37
q-53 0 -53 -125t53 -125z" />
    <glyph glyph-name="acircumflex.ss01" horiz-adv-x="602" 
d="M79 598l138 176h162l138 -176h-186l-33 59l-33 -59h-186zM238 -20q-110 0 -166.5 74.5t-56.5 220.5q0 139 57 217t158 78q39 0 76 -18t63 -48v46h203v-550h-191v41q-59 -61 -143 -61zM294 150q34 0 56 38v175q-22 37 -56 37q-53 0 -53 -125t53 -125z" />
    <glyph glyph-name="adieresis.ss01" horiz-adv-x="602" 
d="M95 597v153h182v-153h-182zM338 597v153h182v-153h-182zM238 -20q-110 0 -166.5 74.5t-56.5 220.5q0 139 57 217t158 78q39 0 76 -18t63 -48v46h203v-550h-191v41q-59 -61 -143 -61zM294 150q34 0 56 38v175q-22 37 -56 37q-53 0 -53 -125t53 -125z" />
    <glyph glyph-name="agrave.ss01" horiz-adv-x="602" 
d="M411 608h-171l-131 176h197zM238 -20q-110 0 -166.5 74.5t-56.5 220.5q0 139 57 217t158 78q39 0 76 -18t63 -48v46h203v-550h-191v41q-59 -61 -143 -61zM294 150q34 0 56 38v175q-22 37 -56 37q-53 0 -53 -125t53 -125z" />
    <glyph glyph-name="amacron.ss01" horiz-adv-x="602" 
d="M473 752v-138h-330v138h330zM238 -20q-110 0 -166.5 74.5t-56.5 220.5q0 139 57 217t158 78q39 0 76 -18t63 -48v46h203v-550h-191v41q-59 -61 -143 -61zM294 150q34 0 56 38v175q-22 37 -56 37q-53 0 -53 -125t53 -125z" />
    <glyph glyph-name="aogonek.ss01" horiz-adv-x="602" 
d="M572 0q-58 -11 -93.5 -37.5t-35.5 -58.5q0 -17 12.5 -27.5t32.5 -10.5q46 0 74 14l-12 -120q-37 -10 -94 -10q-64 0 -102.5 34.5t-38.5 90.5q0 72 66 127v39q-59 -61 -143 -61q-110 0 -166.5 74.5t-56.5 220.5q0 139 57 217t158 78q39 0 76 -18t63 -48v46h203v-550z
M350 188v175q-22 37 -56 37q-53 0 -53 -125t53 -125q34 0 56 38z" />
    <glyph glyph-name="aring.ss01" horiz-adv-x="602" 
d="M308 584q-62 0 -106 44.5t-44 106.5t44 106t106 44t106 -44t44 -106t-44 -106.5t-106 -44.5zM308 684q21 0 35.5 15t14.5 36q0 20 -14.5 35t-35.5 15t-35.5 -15t-14.5 -35q0 -21 14.5 -36t35.5 -15zM238 -20q-110 0 -166.5 74.5t-56.5 220.5q0 139 57 217t158 78
q39 0 76 -18t63 -48v46h203v-550h-191v41q-59 -61 -143 -61zM294 150q34 0 56 38v175q-22 37 -56 37q-53 0 -53 -125t53 -125z" />
    <glyph glyph-name="atilde.ss01" horiz-adv-x="602" 
d="M363 598q-31 0 -63 21t-47 21q-35 0 -54 -40l-98 44q22 71 60.5 111t83.5 40q40 0 75 -21.5t49 -21.5q28 0 47 42l99 -35q-15 -76 -55 -118.5t-97 -42.5zM238 -20q-110 0 -166.5 74.5t-56.5 220.5q0 139 57 217t158 78q39 0 76 -18t63 -48v46h203v-550h-191v41
q-59 -61 -143 -61zM294 150q34 0 56 38v175q-22 37 -56 37q-53 0 -53 -125t53 -125z" />
    <glyph glyph-name="germandbls.ss01" horiz-adv-x="669" 
d="M432 -20q-84 0 -160 54l90 123q18 -10 40 -10q20 0 32.5 9t12.5 23q0 11 -5 20.5t-17 17t-20.5 12t-27.5 12.5q-106 45 -106 149q0 44 23.5 82t61.5 58v15q0 29 -14 46t-37 17q-24 0 -38.5 -16t-14.5 -42v-550h-222l2 550q0 99 75.5 159.5t199.5 60.5q129 0 208 -69
t79 -181v-73h-56q-73 0 -73 -39q0 -14 13 -25.5t26.5 -18t41.5 -17.5q57 -23 92.5 -61.5t35.5 -111.5q0 -87 -66.5 -140.5t-175.5 -53.5z" />
    <glyph glyph-name="y.ss01" horiz-adv-x="562" 
d="M238 -250q-62 0 -121.5 15.5t-95.5 39.5l23 156q108 -48 178 -48q88 0 88 83v49q-54 -65 -134 -65q-68 0 -109.5 45t-41.5 119v406h222v-365q0 -35 25 -35q23 0 38 26v374h222v-540q0 -128 -74.5 -194t-219.5 -66z" />
    <glyph glyph-name="yacute.ss01" horiz-adv-x="562" 
d="M178 608l105 176h197l-131 -176h-171zM238 -250q-62 0 -121.5 15.5t-95.5 39.5l23 156q108 -48 178 -48q88 0 88 83v49q-54 -65 -134 -65q-68 0 -109.5 45t-41.5 119v406h222v-365q0 -35 25 -35q23 0 38 26v374h222v-540q0 -128 -74.5 -194t-219.5 -66z" />
    <glyph glyph-name="ycircumflex.ss01" horiz-adv-x="562" 
d="M52 598l138 176h162l138 -176h-186l-33 59l-33 -59h-186zM238 -250q-62 0 -121.5 15.5t-95.5 39.5l23 156q108 -48 178 -48q88 0 88 83v49q-54 -65 -134 -65q-68 0 -109.5 45t-41.5 119v406h222v-365q0 -35 25 -35q23 0 38 26v374h222v-540q0 -128 -74.5 -194t-219.5 -66
z" />
    <glyph glyph-name="ydieresis.ss01" horiz-adv-x="562" 
d="M68 597v153h182v-153h-182zM311 597v153h182v-153h-182zM238 -250q-62 0 -121.5 15.5t-95.5 39.5l23 156q108 -48 178 -48q88 0 88 83v49q-54 -65 -134 -65q-68 0 -109.5 45t-41.5 119v406h222v-365q0 -35 25 -35q23 0 38 26v374h222v-540q0 -128 -74.5 -194t-219.5 -66z
" />
    <glyph glyph-name="ygrave.ss01" horiz-adv-x="562" 
d="M384 608h-171l-131 176h197zM238 -250q-62 0 -121.5 15.5t-95.5 39.5l23 156q108 -48 178 -48q88 0 88 83v49q-54 -65 -134 -65q-68 0 -109.5 45t-41.5 119v406h222v-365q0 -35 25 -35q23 0 38 26v374h222v-540q0 -128 -74.5 -194t-219.5 -66z" />
    <glyph glyph-name="uni1EF9.ss01" horiz-adv-x="562" 
d="M336 598q-31 0 -63 21t-47 21q-35 0 -54 -40l-98 44q22 71 60.5 111t83.5 40q40 0 75 -21.5t49 -21.5q28 0 47 42l99 -35q-15 -76 -55 -118.5t-97 -42.5zM238 -250q-62 0 -121.5 15.5t-95.5 39.5l23 156q108 -48 178 -48q88 0 88 83v49q-54 -65 -134 -65q-68 0 -109.5 45
t-41.5 119v406h222v-365q0 -35 25 -35q23 0 38 26v374h222v-540q0 -128 -74.5 -194t-219.5 -66z" />
    <glyph glyph-name="a.ss02" horiz-adv-x="602" 
d="M238 -20q-105 0 -164 78t-59 217q0 140 82 217.5t210 77.5q139 0 264 -71l1 -499h-191v41q-59 -61 -143 -61zM294 150q34 0 56 38v206q-22 6 -39 6q-70 0 -70 -125t53 -125z" />
    <glyph glyph-name="aacute.ss02" horiz-adv-x="602" 
d="M201 608l105 176h197l-131 -176h-171zM238 -20q-105 0 -164 78t-59 217q0 140 82 217.5t210 77.5q139 0 264 -71l1 -499h-191v41q-59 -61 -143 -61zM294 150q34 0 56 38v206q-22 6 -39 6q-70 0 -70 -125t53 -125z" />
    <glyph glyph-name="abreve.ss02" horiz-adv-x="602" 
d="M380 794h117q0 -86 -53 -139t-140 -53t-140 53t-53 139h117q0 -29 21 -47t55 -18t55 18t21 47zM238 -20q-105 0 -164 78t-59 217q0 140 82 217.5t210 77.5q139 0 264 -71l1 -499h-191v41q-59 -61 -143 -61zM294 150q34 0 56 38v206q-22 6 -39 6q-70 0 -70 -125t53 -125z
" />
    <glyph glyph-name="acircumflex.ss02" horiz-adv-x="602" 
d="M75 598l138 176h162l138 -176h-186l-33 59l-33 -59h-186zM238 -20q-105 0 -164 78t-59 217q0 140 82 217.5t210 77.5q139 0 264 -71l1 -499h-191v41q-59 -61 -143 -61zM294 150q34 0 56 38v206q-22 6 -39 6q-70 0 -70 -125t53 -125z" />
    <glyph glyph-name="adieresis.ss02" horiz-adv-x="602" 
d="M91 597v153h182v-153h-182zM334 597v153h182v-153h-182zM238 -20q-105 0 -164 78t-59 217q0 140 82 217.5t210 77.5q139 0 264 -71l1 -499h-191v41q-59 -61 -143 -61zM294 150q34 0 56 38v206q-22 6 -39 6q-70 0 -70 -125t53 -125z" />
    <glyph glyph-name="agrave.ss02" horiz-adv-x="602" 
d="M407 608h-171l-131 176h197zM238 -20q-105 0 -164 78t-59 217q0 140 82 217.5t210 77.5q139 0 264 -71l1 -499h-191v41q-59 -61 -143 -61zM294 150q34 0 56 38v206q-22 6 -39 6q-70 0 -70 -125t53 -125z" />
    <glyph glyph-name="amacron.ss02" horiz-adv-x="602" 
d="M469 752v-138h-330v138h330zM238 -20q-105 0 -164 78t-59 217q0 140 82 217.5t210 77.5q139 0 264 -71l1 -499h-191v41q-59 -61 -143 -61zM294 150q34 0 56 38v206q-22 6 -39 6q-70 0 -70 -125t53 -125z" />
    <glyph glyph-name="aogonek.ss02" horiz-adv-x="602" 
d="M443 -96q0 -17 12.5 -27.5t32.5 -10.5q46 0 74 14l-12 -120q-37 -10 -94 -10q-64 0 -102.5 34.5t-38.5 90.5q0 72 66 127v39q-59 -61 -143 -61q-105 0 -164 78t-59 217q0 140 82 217.5t210 77.5q139 0 264 -71l1 -499q-58 -11 -93.5 -37.5t-35.5 -58.5zM350 188v206
q-22 6 -39 6q-70 0 -70 -125t53 -125q34 0 56 38z" />
    <glyph glyph-name="aring.ss02" horiz-adv-x="602" 
d="M304 584q-62 0 -106 44.5t-44 106.5t44 106t106 44t106 -44t44 -106t-44 -106.5t-106 -44.5zM304 684q21 0 35.5 15t14.5 36q0 20 -14.5 35t-35.5 15t-35.5 -15t-14.5 -35q0 -21 14.5 -36t35.5 -15zM238 -20q-105 0 -164 78t-59 217q0 140 82 217.5t210 77.5
q139 0 264 -71l1 -499h-191v41q-59 -61 -143 -61zM294 150q34 0 56 38v206q-22 6 -39 6q-70 0 -70 -125t53 -125z" />
    <glyph glyph-name="atilde.ss02" horiz-adv-x="602" 
d="M359 598q-31 0 -63 21t-47 21q-35 0 -54 -40l-98 44q22 71 60.5 111t83.5 40q40 0 75 -21.5t49 -21.5q28 0 47 42l99 -35q-15 -76 -55 -118.5t-97 -42.5zM238 -20q-105 0 -164 78t-59 217q0 140 82 217.5t210 77.5q139 0 264 -71l1 -499h-191v41q-59 -61 -143 -61z
M294 150q34 0 56 38v206q-22 6 -39 6q-70 0 -70 -125t53 -125z" />
    <glyph glyph-name="b.ss02" horiz-adv-x="602" 
d="M294 -20q-65 0 -137.5 19t-126.5 52v699h222v-254q25 34 64.5 54t82.5 20q88 0 138 -78t50 -217t-77.5 -217t-215.5 -78zM290 150q71 0 71 125t-54 125q-33 0 -55 -38v-206q22 -6 38 -6z" />
    <glyph glyph-name="d.ss02" horiz-adv-x="602" 
d="M238 -20q-110 0 -166.5 74.5t-56.5 220.5q0 139 57 217t158 78q67 0 120 -47v227h222v-750h-191v41q-59 -61 -143 -61zM294 150q34 0 56 38v175q-22 37 -56 37q-53 0 -53 -125t53 -125z" />
    <glyph glyph-name="dcaron.ss02" horiz-adv-x="801" 
d="M238 -20q-110 0 -166.5 74.5t-56.5 220.5q0 139 57 217t158 78q67 0 120 -47v227h222v-750h-191v41q-59 -61 -143 -61zM622 478l9 254h155l-41 -254h-123zM294 150q34 0 56 38v175q-22 37 -56 37q-53 0 -53 -125t53 -125z" />
    <glyph glyph-name="dcroat.ss02" horiz-adv-x="602" 
d="M613 694v-105h-41v-589h-191v41q-59 -61 -143 -61q-110 0 -166.5 74.5t-56.5 220.5q0 139 57 217t158 78q67 0 120 -47v66h-122v105h122v56h222v-56h41zM350 188v175q-22 37 -56 37q-53 0 -53 -125t53 -125q34 0 56 38z" />
    <glyph glyph-name="g.ss02" horiz-adv-x="604" 
d="M280 -250q-60 0 -120 15t-97 40l23 156q112 -48 180 -48q86 0 86 83v48q-56 -64 -149 -64q-88 0 -138 78t-50 217q0 133 81 214t214 81q62 0 134.5 -19t129.5 -52v-489q0 -128 -74.5 -194t-219.5 -66zM294 150q36 0 58 38v206q-22 6 -40 6q-40 0 -55.5 -30t-15.5 -95
q0 -125 53 -125z" />
    <glyph glyph-name="gbreve.ss02" horiz-adv-x="604" 
d="M362 794h117q0 -86 -53 -139t-140 -53t-140 53t-53 139h117q0 -29 21 -47t55 -18t55 18t21 47zM280 -250q-60 0 -120 15t-97 40l23 156q112 -48 180 -48q86 0 86 83v48q-56 -64 -149 -64q-88 0 -138 78t-50 217q0 133 81 214t214 81q62 0 134.5 -19t129.5 -52v-489
q0 -128 -74.5 -194t-219.5 -66zM294 150q36 0 58 38v206q-22 6 -40 6q-40 0 -55.5 -30t-15.5 -95q0 -125 53 -125z" />
    <glyph glyph-name="gcommaaccent.ss02" horiz-adv-x="604" 
d="M401 914l8 -74q-89 -10 -93 -93h93v-129h-222v94q0 95 58.5 148.5t155.5 53.5zM280 -250q-60 0 -120 15t-97 40l23 156q112 -48 180 -48q86 0 86 83v48q-56 -64 -149 -64q-88 0 -138 78t-50 217q0 133 81 214t214 81q62 0 134.5 -19t129.5 -52v-489q0 -128 -74.5 -194
t-219.5 -66zM294 150q36 0 58 38v206q-22 6 -40 6q-40 0 -55.5 -30t-15.5 -95q0 -125 53 -125z" />
    <glyph glyph-name="gdotaccent.ss02" horiz-adv-x="604" 
d="M195 618v179h182v-179h-182zM280 -250q-60 0 -120 15t-97 40l23 156q112 -48 180 -48q86 0 86 83v48q-56 -64 -149 -64q-88 0 -138 78t-50 217q0 133 81 214t214 81q62 0 134.5 -19t129.5 -52v-489q0 -128 -74.5 -194t-219.5 -66zM294 150q36 0 58 38v206q-22 6 -40 6
q-40 0 -55.5 -30t-15.5 -95q0 -125 53 -125z" />
    <glyph glyph-name="k.ss02" horiz-adv-x="598" 
d="M30 0v750h222v-750h-222zM392 0l-135 285v9l136 256h219l-138 -260l144 -290h-226z" />
    <glyph glyph-name="kcommaaccent.ss02" horiz-adv-x="598" 
d="M30 0v750h222v-750h-222zM392 0l-135 285v9l136 256h219l-138 -260l144 -290h-226zM194 -344l-8 74q89 10 93 93h-93v129h222v-94q0 -95 -58.5 -148.5t-155.5 -53.5z" />
    <glyph glyph-name="kgreenlandic.ss02" horiz-adv-x="598" 
d="M30 0v550h222v-550h-222zM392 0l-135 285v9l136 256h219l-138 -260l144 -290h-226z" />
    <glyph glyph-name="l.ss02" horiz-adv-x="272" 
d="M25 0v750h222v-750h-222z" />
    <glyph glyph-name="lacute.ss02" horiz-adv-x="272" 
d="M40 795l105 176h197l-131 -176h-171zM25 0v750h222v-750h-222z" />
    <glyph glyph-name="lcaron.ss02" horiz-adv-x="481" 
d="M25 0v750h222v-750h-222zM317 478l9 254h155l-41 -254h-123z" />
    <glyph glyph-name="lcommaaccent.ss02" horiz-adv-x="272" 
d="M25 0v750h222v-750h-222zM32 -344l-8 74q89 10 93 93h-93v129h222v-94q0 -95 -58.5 -148.5t-155.5 -53.5z" />
    <glyph glyph-name="ldot.ss02" horiz-adv-x="505" 
d="M25 0v750h222v-750h-222zM278 298v209h222v-209h-222z" />
    <glyph glyph-name="lslash.ss02" horiz-adv-x="432" 
d="M442 433l-115 -66v-367h-222v239l-43 -25l-72 122l115 66v348h222v-220l44 25z" />
    <glyph glyph-name="q.ss02" horiz-adv-x="604" 
d="M352 -230v274q-27 -28 -67 -46t-82 -18q-88 0 -138 78t-50 217q0 133 81 214t214 81q64 0 136.5 -19.5t127.5 -51.5v-729h-222zM296 150q34 0 56 38v206q-22 6 -39 6q-72 0 -72 -125t55 -125z" />
    <glyph glyph-name="germandbls.ss02" horiz-adv-x="669" 
d="M432 -20q-84 0 -160 54l90 123q18 -10 40 -10q20 0 32.5 9t12.5 23q0 11 -5 20.5t-17 17t-20.5 12t-27.5 12.5q-106 45 -106 149q0 44 23.5 82t61.5 58v15q0 29 -14 46t-37 17q-24 0 -38.5 -16t-14.5 -42v-550h-222l2 550q0 99 75.5 159.5t199.5 60.5q129 0 208 -69
t79 -181v-73h-56q-73 0 -73 -39q0 -14 13 -25.5t26.5 -18t41.5 -17.5q57 -23 92.5 -61.5t35.5 -111.5q0 -87 -66.5 -140.5t-175.5 -53.5z" />
    <glyph glyph-name="y.ss02" horiz-adv-x="553" 
d="M340 550h233l-230 -780h-223l82 230h-75l-147 550h234l57 -353z" />
    <glyph glyph-name="yacute.ss02" horiz-adv-x="553" 
d="M476 784l-131 -176h-171l105 176h197zM340 550h233l-230 -780h-223l82 230h-75l-147 550h234l57 -353z" />
    <glyph glyph-name="ycircumflex.ss02" horiz-adv-x="553" 
d="M267 657l-33 -59h-186l138 176h162l138 -176h-186zM340 550h233l-230 -780h-223l82 230h-75l-147 550h234l57 -353z" />
    <glyph glyph-name="ydieresis.ss02" horiz-adv-x="553" 
d="M246 750v-153h-182v153h182zM489 750v-153h-182v153h182zM340 550h233l-230 -780h-223l82 230h-75l-147 550h234l57 -353z" />
    <glyph glyph-name="ygrave.ss02" horiz-adv-x="553" 
d="M380 608h-171l-131 176h197zM340 550h233l-230 -780h-223l82 230h-75l-147 550h234l57 -353z" />
    <glyph glyph-name="uni1EF9.ss02" horiz-adv-x="553" 
d="M222 640q-35 0 -54 -40l-98 44q22 71 60.5 111t83.5 40q40 0 75 -21.5t49 -21.5q28 0 47 42l99 -35q-15 -76 -55 -118.5t-97 -42.5q-31 0 -63 21t-47 21zM340 550h233l-230 -780h-223l82 230h-75l-147 550h234l57 -353z" />
    <glyph glyph-name="g.ss03" horiz-adv-x="575" 
d="M578 547v-151h-99q34 -12 34 -70q0 -77 -69 -124.5t-180 -47.5q-14 0 -40 2q-7 -7 -7 -16q0 -18 47 -18h85q97 0 156.5 -49.5t59.5 -130.5q0 -86 -86 -139t-226 -53q-113 0 -183 53.5t-70 137.5h175q0 -38 78 -38q40 0 64.5 11t24.5 28q0 15 -11 24.5t-30 9.5h-94
q-172 0 -172 113q0 65 70 104q-98 58 -98 169q0 93 71.5 150.5t185.5 57.5q87 0 149 -32q49 25 93 25q50 0 72 -16zM272 295q23 0 36 17.5t13 49.5t-13 49.5t-36 17.5t-36.5 -18t-13.5 -49t13.5 -49t36.5 -18z" />
    <glyph glyph-name="gbreve.ss03" horiz-adv-x="575" 
d="M275 602q-87 0 -140 53t-53 139h117q0 -29 21 -47t55 -18t55 18t21 47h117q0 -86 -53 -139t-140 -53zM578 547v-151h-99q34 -12 34 -70q0 -77 -69 -124.5t-180 -47.5q-14 0 -40 2q-7 -7 -7 -16q0 -18 47 -18h85q97 0 156.5 -49.5t59.5 -130.5q0 -86 -86 -139t-226 -53
q-113 0 -183 53.5t-70 137.5h175q0 -38 78 -38q40 0 64.5 11t24.5 28q0 15 -11 24.5t-30 9.5h-94q-172 0 -172 113q0 65 70 104q-98 58 -98 169q0 93 71.5 150.5t185.5 57.5q87 0 149 -32q49 25 93 25q50 0 72 -16zM272 295q23 0 36 17.5t13 49.5t-13 49.5t-36 17.5
t-36.5 -18t-13.5 -49t13.5 -49t36.5 -18z" />
    <glyph glyph-name="gcommaaccent.ss03" horiz-adv-x="575" 
d="M404 747v-129h-222v94q0 95 58.5 148.5t155.5 53.5l8 -74q-89 -10 -93 -93h93zM578 547v-151h-99q34 -12 34 -70q0 -77 -69 -124.5t-180 -47.5q-14 0 -40 2q-7 -7 -7 -16q0 -18 47 -18h85q97 0 156.5 -49.5t59.5 -130.5q0 -86 -86 -139t-226 -53q-113 0 -183 53.5
t-70 137.5h175q0 -38 78 -38q40 0 64.5 11t24.5 28q0 15 -11 24.5t-30 9.5h-94q-172 0 -172 113q0 65 70 104q-98 58 -98 169q0 93 71.5 150.5t185.5 57.5q87 0 149 -32q49 25 93 25q50 0 72 -16zM272 295q23 0 36 17.5t13 49.5t-13 49.5t-36 17.5t-36.5 -18t-13.5 -49
t13.5 -49t36.5 -18z" />
    <glyph glyph-name="gdotaccent.ss03" horiz-adv-x="575" 
d="M366 797v-179h-182v179h182zM578 547v-151h-99q34 -12 34 -70q0 -77 -69 -124.5t-180 -47.5q-14 0 -40 2q-7 -7 -7 -16q0 -18 47 -18h85q97 0 156.5 -49.5t59.5 -130.5q0 -86 -86 -139t-226 -53q-113 0 -183 53.5t-70 137.5h175q0 -38 78 -38q40 0 64.5 11t24.5 28
q0 15 -11 24.5t-30 9.5h-94q-172 0 -172 113q0 65 70 104q-98 58 -98 169q0 93 71.5 150.5t185.5 57.5q87 0 149 -32q49 25 93 25q50 0 72 -16zM272 295q23 0 36 17.5t13 49.5t-13 49.5t-36 17.5t-36.5 -18t-13.5 -49t13.5 -49t36.5 -18z" />
    <glyph glyph-name="g.ss04" horiz-adv-x="575" 
d="M578 547v-151h-99q34 -12 34 -70q0 -77 -69 -124.5t-180 -47.5q-14 0 -40 2q-7 -7 -7 -16q0 -18 47 -18h85q97 0 156.5 -46.5t59.5 -122.5q0 -92 -82.5 -147.5t-218.5 -55.5q-119 0 -191.5 41.5t-72.5 108.5q0 69 67 114q-32 27 -32 75q0 65 70 104q-98 58 -98 169
q0 93 71.5 150.5t185.5 57.5q87 0 149 -32q49 25 93 25q50 0 72 -16zM272 295q23 0 36 17.5t13 49.5t-13 49.5t-36 17.5t-36.5 -18t-13.5 -49t13.5 -49t36.5 -18zM301 -24h-94h-9q-23 -8 -23 -32q0 -19 21.5 -30t56.5 -11q40 0 64.5 11t24.5 28q0 15 -11 24.5t-30 9.5z" />
    <glyph glyph-name="gbreve.ss04" horiz-adv-x="575" 
d="M275 602q-87 0 -140 53t-53 139h117q0 -29 21 -47t55 -18t55 18t21 47h117q0 -86 -53 -139t-140 -53zM578 547v-151h-99q34 -12 34 -70q0 -77 -69 -124.5t-180 -47.5q-14 0 -40 2q-7 -7 -7 -16q0 -18 47 -18h85q97 0 156.5 -46.5t59.5 -122.5q0 -92 -82.5 -147.5
t-218.5 -55.5q-119 0 -191.5 41.5t-72.5 108.5q0 69 67 114q-32 27 -32 75q0 65 70 104q-98 58 -98 169q0 93 71.5 150.5t185.5 57.5q87 0 149 -32q49 25 93 25q50 0 72 -16zM272 295q23 0 36 17.5t13 49.5t-13 49.5t-36 17.5t-36.5 -18t-13.5 -49t13.5 -49t36.5 -18z
M301 -24h-94h-9q-23 -8 -23 -32q0 -19 21.5 -30t56.5 -11q40 0 64.5 11t24.5 28q0 15 -11 24.5t-30 9.5z" />
    <glyph glyph-name="gcommaaccent.ss04" horiz-adv-x="575" 
d="M404 747v-129h-222v94q0 95 58.5 148.5t155.5 53.5l8 -74q-89 -10 -93 -93h93zM578 547v-151h-99q34 -12 34 -70q0 -77 -69 -124.5t-180 -47.5q-14 0 -40 2q-7 -7 -7 -16q0 -18 47 -18h85q97 0 156.5 -46.5t59.5 -122.5q0 -92 -82.5 -147.5t-218.5 -55.5
q-119 0 -191.5 41.5t-72.5 108.5q0 69 67 114q-32 27 -32 75q0 65 70 104q-98 58 -98 169q0 93 71.5 150.5t185.5 57.5q87 0 149 -32q49 25 93 25q50 0 72 -16zM272 295q23 0 36 17.5t13 49.5t-13 49.5t-36 17.5t-36.5 -18t-13.5 -49t13.5 -49t36.5 -18zM301 -24h-94h-9
q-23 -8 -23 -32q0 -19 21.5 -30t56.5 -11q40 0 64.5 11t24.5 28q0 15 -11 24.5t-30 9.5z" />
    <glyph glyph-name="gdotaccent.ss04" horiz-adv-x="575" 
d="M366 797v-179h-182v179h182zM578 547v-151h-99q34 -12 34 -70q0 -77 -69 -124.5t-180 -47.5q-14 0 -40 2q-7 -7 -7 -16q0 -18 47 -18h85q97 0 156.5 -46.5t59.5 -122.5q0 -92 -82.5 -147.5t-218.5 -55.5q-119 0 -191.5 41.5t-72.5 108.5q0 69 67 114q-32 27 -32 75
q0 65 70 104q-98 58 -98 169q0 93 71.5 150.5t185.5 57.5q87 0 149 -32q49 25 93 25q50 0 72 -16zM272 295q23 0 36 17.5t13 49.5t-13 49.5t-36 17.5t-36.5 -18t-13.5 -49t13.5 -49t36.5 -18zM301 -24h-94h-9q-23 -8 -23 -32q0 -19 21.5 -30t56.5 -11q40 0 64.5 11t24.5 28
q0 15 -11 24.5t-30 9.5z" />
    <glyph glyph-name="f_b" horiz-adv-x="991" 
d="M788 570q88 0 138 -78t50 -217t-57 -217t-158 -78q-40 0 -78 18.5t-63 50.5v-49h-201v586q-41 19 -84 19q-30 0 -46.5 -13.5t-16.5 -37.5v-4h113v-157h-91v-393h-222v393h-72v130l38 14q34 15 34 47v3q0 82 63 132.5t166 50.5q89 0 154 -20h186v-254q25 34 64.5 54
t82.5 20zM697 150q53 0 53 125t-53 125q-34 0 -56 -38v-175q22 -37 56 -37z" />
    <glyph glyph-name="f_f_b" horiz-adv-x="1380" 
d="M1177 570q88 0 138 -78t50 -217t-57 -217t-158 -78q-40 0 -78 18.5t-63 50.5v-49h-201v586q-41 19 -84 19q-30 0 -46.5 -13.5t-16.5 -37.5v-4h113v-157h-91v-393h-222v393h-167v-393h-222v393h-72v130l38 14q34 15 34 47v3q0 82 63 132.5t166 50.5q76 0 133 -25l-23 -155
q-33 15 -76 15q-30 0 -46.5 -13.5t-16.5 -37.5v-4h155q34 0 34 36v1q0 82 63 132.5t166 50.5q89 0 154 -20h186v-254q25 34 64.5 54t82.5 20zM1086 150q53 0 53 125t-53 125q-34 0 -56 -38v-175q22 -37 56 -37z" />
    <glyph glyph-name="f_f_h" horiz-adv-x="1347" 
d="M1171 570q71 0 111.5 -43.5t39.5 -120.5l-3 -406h-219v365q0 35 -27 35q-25 0 -43 -32v-368h-222v586q-41 19 -84 19q-30 0 -46.5 -13.5t-16.5 -37.5v-4h113v-157h-91v-393h-222v393h-167v-393h-222v393h-72v130l38 14q34 15 34 47v3q0 82 63 132.5t166 50.5
q76 0 133 -25l-23 -155q-33 15 -76 15q-30 0 -46.5 -13.5t-16.5 -37.5v-4h155q34 0 34 36v1q0 82 63 132.5t166 50.5q89 0 154 -20h186v-254q25 34 63 54t78 20z" />
    <glyph glyph-name="f_f_j" horiz-adv-x="1062" 
d="M1033 550v-498q0 -119 -78.5 -206t-221.5 -96l-23 155q101 48 101 129v359h-128v-393h-222v393h-167v-393h-222v393h-72v130l38 14q34 15 34 47v3q0 82 63 132.5t166 50.5q76 0 133 -25l-23 -155q-33 15 -76 15q-30 0 -46.5 -13.5t-16.5 -37.5v-4h155q34 0 34 36v1
q0 87 71 135t191 48q100 0 219 -23l-25 -159q-23 8 -74 15.5t-79 7.5q-56 0 -79.5 -13t-23.5 -44v-4h372z" />
    <glyph glyph-name="f_f_k" horiz-adv-x="1353" 
d="M1242 287l131 -287h-225l-97 214h-21v-214h-222v586q-41 19 -84 19q-30 0 -46.5 -13.5t-16.5 -37.5v-4h113v-157h-91v-393h-222v393h-167v-393h-222v393h-72v130l38 14q34 15 34 47v3q0 82 63 132.5t166 50.5q76 0 133 -25l-23 -155q-33 15 -76 15q-30 0 -46.5 -13.5
t-16.5 -37.5v-4h155q34 0 34 36v1q0 82 63 132.5t166 50.5q89 0 154 -20h186v-418h25l95 218h221z" />
    <glyph glyph-name="f_f_thorn" horiz-adv-x="1380" 
d="M1177 570q88 0 138 -78t50 -217t-57 -217t-158 -78q-67 0 -120 47v-257h-222v816q-41 19 -84 19q-30 0 -46.5 -13.5t-16.5 -37.5v-4h113v-157h-91v-393h-222v393h-167v-393h-222v393h-72v130l38 14q34 15 34 47v3q0 82 63 132.5t166 50.5q76 0 133 -25l-23 -155
q-33 15 -76 15q-30 0 -46.5 -13.5t-16.5 -37.5v-4h155q34 0 34 36v1q0 82 63 132.5t166 50.5q89 0 154 -20h186v-254q25 34 64.5 54t82.5 20zM1086 150q53 0 53 125t-53 125q-34 0 -56 -38v-175q22 -37 56 -37z" />
    <glyph glyph-name="f_h" horiz-adv-x="958" 
d="M782 570q71 0 111.5 -43.5t39.5 -120.5l-3 -406h-219v365q0 35 -27 35q-25 0 -43 -32v-368h-222v586q-41 19 -84 19q-30 0 -46.5 -13.5t-16.5 -37.5v-4h113v-157h-91v-393h-222v393h-72v130l38 14q34 15 34 47v3q0 82 63 132.5t166 50.5q89 0 154 -20h186v-254
q25 34 63 54t78 20z" />
    <glyph glyph-name="f_j" horiz-adv-x="673" 
d="M644 550v-498q0 -123 -81 -208.5t-219 -93.5l-23 155q101 48 101 129v359h-128v-393h-222v393h-72v130l38 14q34 12 34 47v3q0 82 68.5 132.5t181.5 50.5q106 0 231 -23l-25 -159q-22 8 -73.5 15.5t-79.5 7.5q-56 0 -79.5 -13t-23.5 -44v-4h372z" />
    <glyph glyph-name="f_k" horiz-adv-x="964" 
d="M853 287l131 -287h-225l-97 214h-21v-214h-222v586q-41 19 -84 19q-30 0 -46.5 -13.5t-16.5 -37.5v-4h113v-157h-91v-393h-222v393h-72v130l38 14q34 15 34 47v3q0 82 63 132.5t166 50.5q89 0 154 -20h186v-418h25l95 218h221z" />
    <glyph glyph-name="f_thorn" horiz-adv-x="991" 
d="M788 570q88 0 138 -78t50 -217t-57 -217t-158 -78q-67 0 -120 47v-257h-222v816q-41 19 -84 19q-30 0 -46.5 -13.5t-16.5 -37.5v-4h113v-157h-91v-393h-222v393h-72v130l38 14q34 15 34 47v3q0 82 63 132.5t166 50.5q89 0 154 -20h186v-254q25 34 64.5 54t82.5 20z
M697 150q53 0 53 125t-53 125q-34 0 -56 -38v-175q22 -37 56 -37z" />
    <glyph glyph-name="f_b.ss02" horiz-adv-x="991" 
d="M788 570q88 0 138 -78t50 -217t-77.5 -217t-215.5 -78q-65 0 -137.5 19t-126.5 52v535q-41 19 -84 19q-30 0 -46.5 -13.5t-16.5 -37.5v-4h113v-157h-91v-393h-222v393h-72v130l38 14q34 15 34 47v3q0 82 63 132.5t166 50.5q89 0 154 -20h186v-254q25 34 64.5 54t82.5 20z
M679 150q71 0 71 125t-54 125q-33 0 -55 -38v-206q23 -6 38 -6z" />
    <glyph glyph-name="f_f_b.ss02" horiz-adv-x="1380" 
d="M1177 570q88 0 138 -78t50 -217t-77.5 -217t-215.5 -78q-65 0 -137.5 19t-126.5 52v535q-41 19 -84 19q-30 0 -46.5 -13.5t-16.5 -37.5v-4h113v-157h-91v-393h-222v393h-167v-393h-222v393h-72v130l38 14q34 15 34 47v3q0 82 63 132.5t166 50.5q76 0 133 -25l-23 -155
q-33 15 -76 15q-30 0 -46.5 -13.5t-16.5 -37.5v-4h155q34 0 34 36v1q0 82 63 132.5t166 50.5q89 0 154 -20h186v-254q25 34 64.5 54t82.5 20zM1068 150q71 0 71 125t-54 125q-33 0 -55 -38v-206q22 -6 38 -6z" />
    <glyph glyph-name="f_f_k.ss02" horiz-adv-x="1377" 
d="M690 770q89 0 154 -20h187v-750h-222v586q-42 19 -85 19q-30 0 -46.5 -13.5t-16.5 -37.5v-4h113v-157h-91v-393h-222v393h-167v-393h-222v393h-72v130l38 14q34 15 34 47v3q0 82 63 132.5t166 50.5q76 0 133 -25l-23 -155q-33 15 -76 15q-30 0 -46.5 -13.5t-16.5 -37.5
v-4h155q34 0 34 36v1q0 82 63 132.5t166 50.5zM1253 290l144 -290h-226l-135 285v9l136 256h219z" />
    <glyph glyph-name="f_f_l.ss02" horiz-adv-x="1050" 
d="M844 750h181v-750h-222v589q-37 16 -79 16q-30 0 -46.5 -13.5t-16.5 -37.5v-4h113v-157h-91v-393h-222v393h-167v-393h-222v393h-72v130l38 14q34 15 34 47v3q0 82 63 132.5t166 50.5q76 0 133 -25l-23 -155q-33 15 -76 15q-30 0 -46.5 -13.5t-16.5 -37.5v-4h155
q34 0 34 36v1q0 82 63 132.5t166 50.5q89 0 154 -20z" />
    <glyph glyph-name="f_k.ss02" horiz-adv-x="988" 
d="M301 770q89 0 154 -20h187v-750h-222v586q-42 19 -85 19q-30 0 -46.5 -13.5t-16.5 -37.5v-4h113v-157h-91v-393h-222v393h-72v130l38 14q34 15 34 47v3q0 82 63 132.5t166 50.5zM864 290l144 -290h-226l-135 285v9l136 256h219z" />
    <glyph glyph-name="fl.ss02" horiz-adv-x="661" 
d="M455 750h181v-750h-222v589q-37 16 -79 16q-30 0 -46.5 -13.5t-16.5 -37.5v-4h113v-157h-91v-393h-222v393h-72v130l38 14q34 15 34 47v3q0 82 63 132.5t166 50.5q89 0 154 -20z" />
    <glyph glyph-name="a.sc" horiz-adv-x="535" 
d="M408 550l157 -550h-228l-16 92h-107l-16 -92h-228l160 550h278zM240 242h55l-26 153h-3z" />
    <glyph glyph-name="aacute.sc" horiz-adv-x="535" 
d="M165 608l105 176h197l-131 -176h-171zM408 550l157 -550h-228l-16 92h-107l-16 -92h-228l160 550h278zM240 242h55l-26 153h-3z" />
    <glyph glyph-name="abreve.sc" horiz-adv-x="535" 
d="M344 794h117q0 -86 -53 -139t-140 -53t-140 53t-53 139h117q0 -29 21 -47t55 -18t55 18t21 47zM408 550l157 -550h-228l-16 92h-107l-16 -92h-228l160 550h278zM240 242h55l-26 153h-3z" />
    <glyph glyph-name="acircumflex.sc" horiz-adv-x="535" 
d="M39 598l138 176h162l138 -176h-186l-33 59l-33 -59h-186zM408 550l157 -550h-228l-16 92h-107l-16 -92h-228l160 550h278zM240 242h55l-26 153h-3z" />
    <glyph glyph-name="adieresis.sc" horiz-adv-x="535" 
d="M55 597v153h182v-153h-182zM298 597v153h182v-153h-182zM408 550l157 -550h-228l-16 92h-107l-16 -92h-228l160 550h278zM240 242h55l-26 153h-3z" />
    <glyph glyph-name="agrave.sc" horiz-adv-x="535" 
d="M371 608h-171l-131 176h197zM408 550l157 -550h-228l-16 92h-107l-16 -92h-228l160 550h278zM240 242h55l-26 153h-3z" />
    <glyph glyph-name="amacron.sc" horiz-adv-x="535" 
d="M433 752v-138h-330v138h330zM408 550l157 -550h-228l-16 92h-107l-16 -92h-228l160 550h278zM240 242h55l-26 153h-3z" />
    <glyph glyph-name="aogonek.sc" horiz-adv-x="535" 
d="M529 0q-58 -11 -93.5 -37.5t-35.5 -58.5q0 -17 12.5 -27.5t32.5 -10.5q46 0 74 14l-12 -120q-37 -10 -94 -10q-64 0 -102.5 34.5t-38.5 90.5q0 72 65 126l-16 91h-107l-16 -92h-228l160 550h278l157 -550h-36zM240 242h55l-26 153h-3z" />
    <glyph glyph-name="aring.sc" horiz-adv-x="535" 
d="M268 584q-62 0 -106 44.5t-44 106.5t44 106t106 44t106 -44t44 -106t-44 -106.5t-106 -44.5zM268 684q21 0 35.5 15t14.5 36q0 20 -14.5 35t-35.5 15t-35.5 -15t-14.5 -35q0 -21 14.5 -36t35.5 -15zM408 550l157 -550h-228l-16 92h-107l-16 -92h-228l160 550h278z
M240 242h55l-26 153h-3z" />
    <glyph glyph-name="atilde.sc" horiz-adv-x="535" 
d="M323 598q-31 0 -63 21t-47 21q-35 0 -54 -40l-98 44q22 71 60.5 111t83.5 40q40 0 75 -21.5t49 -21.5q28 0 47 42l99 -35q-15 -76 -55 -118.5t-97 -42.5zM408 550l157 -550h-228l-16 92h-107l-16 -92h-228l160 550h278zM240 242h55l-26 153h-3z" />
    <glyph glyph-name="ae.sc" horiz-adv-x="756" 
d="M746 149v-149h-381l-8 92h-129l-30 -92h-228l221 550h553v-149h-226l9 -53h185v-143h-161l10 -56h185zM277 242h66l-12 159h-3z" />
    <glyph glyph-name="aeacute.sc" horiz-adv-x="756" 
d="M281 608l105 176h197l-131 -176h-171zM746 149v-149h-381l-8 92h-129l-30 -92h-228l221 550h553v-149h-226l9 -53h185v-143h-161l10 -56h185zM277 242h66l-12 159h-3z" />
    <glyph glyph-name="b.sc" horiz-adv-x="567" 
d="M258 0h-228v550h231q271 0 271 -151q0 -35 -24.5 -65t-63.5 -42v-3q113 -35 113 -127q0 -162 -299 -162zM251 339h34q34 0 34 37q0 38 -34 38h-34v-75zM296 151q44 0 44 37q0 38 -45 38h-44v-75h45z" />
    <glyph glyph-name="c.sc" horiz-adv-x="503" 
d="M412 175l96 -131q-88 -64 -203 -64q-145 0 -220 75t-75 220t75 220t220 75q115 0 203 -64l-97 -133q-34 42 -86 42q-85 0 -85 -140t85 -140q54 0 87 40z" />
    <glyph glyph-name="cacute.sc" horiz-adv-x="503" 
d="M167 608l105 176h197l-131 -176h-171zM412 175l96 -131q-88 -64 -203 -64q-145 0 -220 75t-75 220t75 220t220 75q115 0 203 -64l-97 -133q-34 42 -86 42q-85 0 -85 -140t85 -140q54 0 87 40z" />
    <glyph glyph-name="ccaron.sc" horiz-adv-x="503" 
d="M189 598l-138 176h186l33 -59l33 59h186l-138 -176h-162zM412 175l96 -131q-88 -64 -203 -64q-145 0 -220 75t-75 220t75 220t220 75q115 0 203 -64l-97 -133q-34 42 -86 42q-85 0 -85 -140t85 -140q54 0 87 40z" />
    <glyph glyph-name="ccedilla.sc" horiz-adv-x="503" 
d="M412 175l96 -131q-82 -59 -186 -64l2 -17q94 -19 94 -101q0 -50 -41.5 -81t-109.5 -31q-73 0 -123 33l31 100q39 -21 73 -21q42 0 42 23q0 19 -60 19h-36v16l21 68q-205 43 -205 287q0 145 75 220t220 75q115 0 203 -64l-97 -133q-34 42 -86 42q-85 0 -85 -140t85 -140
q54 0 87 40z" />
    <glyph glyph-name="cdotaccent.sc" horiz-adv-x="503" 
d="M179 618v179h182v-179h-182zM412 175l96 -131q-88 -64 -203 -64q-145 0 -220 75t-75 220t75 220t220 75q115 0 203 -64l-97 -133q-34 42 -86 42q-85 0 -85 -140t85 -140q54 0 87 40z" />
    <glyph glyph-name="d.sc" horiz-adv-x="597" 
d="M252 550q166 0 248 -65.5t82 -209.5t-82 -210.5t-248 -66.5l-222 2v550h222zM291 147q67 0 67 128q0 123 -67 123h-39v-251h39z" />
    <glyph glyph-name="eth.sc" horiz-adv-x="597" 
d="M252 550q166 0 248 -65.5t82 -209.5t-82 -210.5t-248 -66.5l-222 2v202h-50v128h50v220h222zM291 147q67 0 67 128q0 123 -67 123h-39v-68h61v-128h-61v-55h39z" />
    <glyph glyph-name="dcaron.sc" horiz-adv-x="597" 
d="M208 598l-138 176h186l33 -59l33 59h186l-138 -176h-162zM252 550q166 0 248 -65.5t82 -209.5t-82 -210.5t-248 -66.5l-222 2v550h222zM291 147q67 0 67 128q0 123 -67 123h-39v-251h39z" />
    <glyph glyph-name="dcroat.sc" horiz-adv-x="597" 
d="M252 550q166 0 248 -65.5t82 -209.5t-82 -210.5t-248 -66.5l-222 2v202h-50v128h50v220h222zM291 147q67 0 67 128q0 123 -67 123h-39v-68h61v-128h-61v-55h39z" />
    <glyph glyph-name="e.sc" horiz-adv-x="443" 
d="M433 149v-149h-403v550h401v-149h-180v-53h147v-143h-147v-56h182z" />
    <glyph glyph-name="eacute.sc" horiz-adv-x="443" 
d="M125 608l105 176h197l-131 -176h-171zM433 149v-149h-403v550h401v-149h-180v-53h147v-143h-147v-56h182z" />
    <glyph glyph-name="ecaron.sc" horiz-adv-x="443" 
d="M147 598l-138 176h186l33 -59l33 59h186l-138 -176h-162zM433 149v-149h-403v550h401v-149h-180v-53h147v-143h-147v-56h182z" />
    <glyph glyph-name="ecircumflex.sc" horiz-adv-x="443" 
d="M-1 598l138 176h162l138 -176h-186l-33 59l-33 -59h-186zM433 149v-149h-403v550h401v-149h-180v-53h147v-143h-147v-56h182z" />
    <glyph glyph-name="edieresis.sc" horiz-adv-x="443" 
d="M15 597v153h182v-153h-182zM258 597v153h182v-153h-182zM433 149v-149h-403v550h401v-149h-180v-53h147v-143h-147v-56h182z" />
    <glyph glyph-name="edotaccent.sc" horiz-adv-x="443" 
d="M137 618v179h182v-179h-182zM433 149v-149h-403v550h401v-149h-180v-53h147v-143h-147v-56h182z" />
    <glyph glyph-name="egrave.sc" horiz-adv-x="443" 
d="M331 608h-171l-131 176h197zM433 149v-149h-403v550h401v-149h-180v-53h147v-143h-147v-56h182z" />
    <glyph glyph-name="emacron.sc" horiz-adv-x="443" 
d="M393 752v-138h-330v138h330zM433 149v-149h-403v550h401v-149h-180v-53h147v-143h-147v-56h182z" />
    <glyph glyph-name="eogonek.sc" horiz-adv-x="443" 
d="M433 0q-58 -11 -93.5 -37.5t-35.5 -58.5q0 -17 12.5 -27.5t32.5 -10.5q46 0 74 14l-12 -120q-37 -10 -94 -10q-64 0 -102.5 34.5t-38.5 90.5q0 72 64 125h-210v550h401v-149h-180v-53h147v-143h-147v-56h182v-149z" />
    <glyph glyph-name="f.sc" horiz-adv-x="410" 
d="M415 401h-164v-62h131v-143h-131v-196h-221v550h385v-149z" />
    <glyph glyph-name="f_b.sc" horiz-adv-x="977" 
d="M415 401h-164v-62h131v-143h-131v-196h-221v550h385v-149zM668 0h-228v550h231q271 0 271 -151q0 -35 -24.5 -65t-63.5 -42v-3q113 -35 113 -127q0 -162 -299 -162zM661 339h34q34 0 34 37q0 38 -34 38h-34v-75zM706 151q44 0 44 37q0 38 -45 38h-44v-75h45z" />
    <glyph glyph-name="f_h.sc" horiz-adv-x="999" 
d="M415 401h-164v-62h131v-143h-131v-196h-221v550h385v-149zM969 550v-550h-221v201h-87v-201h-221v550h221v-182h87v182h221z" />
    <glyph glyph-name="f_k.sc" horiz-adv-x="1020" 
d="M415 401h-164v-62h131v-143h-131v-196h-221v550h385v-149zM876 302l169 -302h-242l-102 206h-40v-206h-221v550h221v-202h26l102 202h221z" />
    <glyph glyph-name="fi.sc" horiz-adv-x="691" 
d="M415 401h-164v-62h131v-143h-131v-196h-221v550h385v-149zM440 0v550h221v-550h-221z" />
    <glyph glyph-name="fl.sc" horiz-adv-x="864" 
d="M415 401h-164v-62h131v-143h-131v-196h-221v550h385v-149zM859 164v-164h-419v550h221v-386h198z" />
    <glyph glyph-name="g.sc" horiz-adv-x="591" 
d="M321 -20q-140 0 -225.5 81t-85.5 214q0 145 80 220t235 75q111 0 204 -66l-87 -119q-52 36 -97 36q-55 0 -81 -35.5t-26 -110.5q0 -144 91 -144q19 0 30 2v58h-39v136h241v-269q-40 -35 -106 -56.5t-134 -21.5z" />
    <glyph glyph-name="gbreve.sc" horiz-adv-x="591" 
d="M376 794h117q0 -86 -53 -139t-140 -53t-140 53t-53 139h117q0 -29 21 -47t55 -18t55 18t21 47zM321 -20q-140 0 -225.5 81t-85.5 214q0 145 80 220t235 75q111 0 204 -66l-87 -119q-52 36 -97 36q-55 0 -81 -35.5t-26 -110.5q0 -144 91 -144q19 0 30 2v58h-39v136h241
v-269q-40 -35 -106 -56.5t-134 -21.5z" />
    <glyph glyph-name="gcommaaccent.sc" horiz-adv-x="591" 
d="M321 -20q-140 0 -225.5 81t-85.5 214q0 145 80 220t235 75q111 0 204 -66l-87 -119q-52 36 -97 36q-55 0 -81 -35.5t-26 -110.5q0 -144 91 -144q19 0 30 2v58h-39v136h241v-269q-40 -35 -106 -56.5t-134 -21.5zM195 -344l-8 74q89 10 93 93h-93v129h222v-94
q0 -95 -58.5 -148.5t-155.5 -53.5z" />
    <glyph glyph-name="gdotaccent.sc" horiz-adv-x="591" 
d="M209 618v179h182v-179h-182zM321 -20q-140 0 -225.5 81t-85.5 214q0 145 80 220t235 75q111 0 204 -66l-87 -119q-52 36 -97 36q-55 0 -81 -35.5t-26 -110.5q0 -144 91 -144q19 0 30 2v58h-39v136h241v-269q-40 -35 -106 -56.5t-134 -21.5z" />
    <glyph glyph-name="h.sc" horiz-adv-x="589" 
d="M559 550v-550h-221v201h-87v-201h-221v550h221v-182h87v182h221z" />
    <glyph glyph-name="hbar.sc" horiz-adv-x="589" 
d="M595 475v-78h-36v-397h-221v201h-87v-201h-221v397h-36v78h36v75h221v-75h87v75h221v-75h36zM338 368v29h-87v-29h87z" />
    <glyph glyph-name="i.sc" horiz-adv-x="281" 
d="M30 0v550h221v-550h-221z" />
    <glyph glyph-name="iacute.sc" horiz-adv-x="281" 
d="M38 608l105 176h197l-131 -176h-171zM30 0v550h221v-550h-221z" />
    <glyph glyph-name="icircumflex.sc" horiz-adv-x="281" 
d="M-88 598l138 176h162l138 -176h-186l-33 59l-33 -59h-186zM30 0v550h221v-550h-221z" />
    <glyph glyph-name="idieresis.sc" horiz-adv-x="281" 
d="M-72 597v153h182v-153h-182zM171 597v153h182v-153h-182zM30 0v550h221v-550h-221z" />
    <glyph glyph-name="i.sc.loclTRK" horiz-adv-x="281" 
d="M50 618v179h182v-179h-182zM30 0v550h221v-550h-221z" />
    <glyph glyph-name="igrave.sc" horiz-adv-x="281" 
d="M244 608h-171l-131 176h197zM30 0v550h221v-550h-221z" />
    <glyph glyph-name="ij.sc" horiz-adv-x="731" 
d="M30 0v550h221v-550h-221zM479 -20q-52 0 -108 17.5t-95 46.5l90 135q41 -44 79 -44q35 0 35 47v208h-145v160h366v-369q0 -95 -58.5 -148t-163.5 -53z" />
    <glyph glyph-name="imacron.sc" horiz-adv-x="281" 
d="M306 752v-138h-330v138h330zM30 0v550h221v-550h-221z" />
    <glyph glyph-name="iogonek.sc" horiz-adv-x="281" 
d="M30 550h221v-550h-11q-58 -11 -93.5 -37.5t-35.5 -58.5q0 -17 12.5 -27.5t32.5 -10.5q46 0 74 14l-12 -120q-37 -10 -94 -10q-64 0 -102.5 34.5t-38.5 90.5q0 72 64 125h-17v550z" />
    <glyph glyph-name="j.sc" horiz-adv-x="450" 
d="M198 -20q-52 0 -108 17.5t-95 46.5l90 135q41 -44 79 -44q35 0 35 47v208h-145v160h366v-369q0 -95 -58.5 -148t-163.5 -53z" />
    <glyph glyph-name="jacute.sc" horiz-adv-x="450" 
d="M209 608l105 176h197l-131 -176h-171zM198 -20q-52 0 -108 17.5t-95 46.5l90 135q41 -44 79 -44q35 0 35 47v208h-145v160h366v-369q0 -95 -58.5 -148t-163.5 -53z" />
    <glyph glyph-name="k.sc" horiz-adv-x="610" 
d="M466 302l169 -302h-242l-102 206h-40v-206h-221v550h221v-202h26l102 202h221z" />
    <glyph glyph-name="kcommaaccent.sc" horiz-adv-x="610" 
d="M466 302l169 -302h-242l-102 206h-40v-206h-221v550h221v-202h26l102 202h221zM195 -344l-8 74q89 10 93 93h-93v129h222v-94q0 -95 -58.5 -148.5t-155.5 -53.5z" />
    <glyph glyph-name="kgreenlandic.sc" horiz-adv-x="610" 
d="M466 302l169 -302h-242l-102 206h-40v-206h-221v550h221v-202h26l102 202h221z" />
    <glyph glyph-name="l.sc" horiz-adv-x="454" 
d="M449 164v-164h-419v550h221v-386h198z" />
    <glyph glyph-name="lacute.sc" horiz-adv-x="454" 
d="M38 608l105 176h197l-131 -176h-171zM449 164v-164h-419v550h221v-386h198z" />
    <glyph glyph-name="lcaron.sc" horiz-adv-x="454" 
d="M298 337l9 254h155l-41 -254h-123zM449 164v-164h-419v550h221v-386h198z" />
    <glyph glyph-name="lcommaaccent.sc" horiz-adv-x="454" 
d="M449 164v-164h-419v550h221v-386h198zM133 -344l-8 74q89 10 93 93h-93v129h222v-94q0 -95 -58.5 -148.5t-155.5 -53.5z" />
    <glyph glyph-name="ldot.sc" horiz-adv-x="454" 
d="M449 164v-164h-419v550h221v-386h198zM287 246v209h222v-209h-222z" />
    <glyph glyph-name="lslash.sc" horiz-adv-x="473" 
d="M251 164h198v-164h-419v172l-28 -16l-52 111l80 47v236h221v-104l80 47l63 -107l-143 -84v-138z" />
    <glyph glyph-name="m.sc" horiz-adv-x="717" 
d="M30 0v550h276l52 -347l53 347h276v-550h-193v117q1 39 2.5 116.5t2.5 116.5h-3l-64 -350h-148l-63 350h-3q1 -39 2.5 -116.5t2.5 -116.5v-117h-193z" />
    <glyph glyph-name="n.sc" horiz-adv-x="580" 
d="M550 550v-550h-270l-82 350h-3q25 -157 25 -233v-117h-190v550h272l83 -340h3q-28 170 -28 211v129h190z" />
    <glyph glyph-name="nacute.sc" horiz-adv-x="580" 
d="M187 608l105 176h197l-131 -176h-171zM550 550v-550h-270l-82 350h-3q25 -157 25 -233v-117h-190v550h272l83 -340h3q-28 170 -28 211v129h190z" />
    <glyph glyph-name="ncaron.sc" horiz-adv-x="580" 
d="M209 598l-138 176h186l33 -59l33 59h186l-138 -176h-162zM550 550v-550h-270l-82 350h-3q25 -157 25 -233v-117h-190v550h272l83 -340h3q-28 170 -28 211v129h190z" />
    <glyph glyph-name="ncommaaccent.sc" horiz-adv-x="580" 
d="M550 550v-550h-270l-82 350h-3q25 -157 25 -233v-117h-190v550h272l83 -340h3q-28 170 -28 211v129h190zM186 -344l-8 74q89 10 93 93h-93v129h222v-94q0 -95 -58.5 -148.5t-155.5 -53.5z" />
    <glyph glyph-name="eng.sc" horiz-adv-x="580" 
d="M357 550h193v-550v-6q0 -95 -58.5 -148t-163.5 -53q-52 0 -108 17.5t-95 46.5l106 124q35 -33 63 -33q35 0 35 47v5h-52l-76 350h-3q25 -157 25 -233v-117h-193v550h275l77 -340h3q-28 170 -28 211v129z" />
    <glyph glyph-name="uni01CC.sc" horiz-adv-x="1030" 
d="M550 550v-550h-270l-82 350h-3q25 -157 25 -233v-117h-190v550h272l83 -340h3q-28 170 -28 211v129h190zM778 -20q-52 0 -108 17.5t-95 46.5l90 135q41 -44 79 -44q35 0 35 47v208h-145v160h366v-369q0 -95 -58.5 -148t-163.5 -53z" />
    <glyph glyph-name="ntilde.sc" horiz-adv-x="580" 
d="M345 598q-31 0 -63 21t-47 21q-35 0 -54 -40l-98 44q22 71 60.5 111t83.5 40q40 0 75 -21.5t49 -21.5q28 0 47 42l99 -35q-15 -76 -55 -118.5t-97 -42.5zM550 550v-550h-270l-82 350h-3q25 -157 25 -233v-117h-190v550h272l83 -340h3q-28 170 -28 211v129h190z" />
    <glyph glyph-name="o.sc" horiz-adv-x="604" 
d="M302 570q138 0 215 -78t77 -217t-77 -217t-215 -78t-215 78t-77 217t77 217t215 78zM302 131q63 0 63 144t-63 144t-63 -144t63 -144z" />
    <glyph glyph-name="oacute.sc" horiz-adv-x="604" 
d="M199 608l105 176h197l-131 -176h-171zM302 570q138 0 215 -78t77 -217t-77 -217t-215 -78t-215 78t-77 217t77 217t215 78zM302 131q63 0 63 144t-63 144t-63 -144t63 -144z" />
    <glyph glyph-name="ocircumflex.sc" horiz-adv-x="604" 
d="M73 598l138 176h162l138 -176h-186l-33 59l-33 -59h-186zM302 570q138 0 215 -78t77 -217t-77 -217t-215 -78t-215 78t-77 217t77 217t215 78zM302 131q63 0 63 144t-63 144t-63 -144t63 -144z" />
    <glyph glyph-name="odieresis.sc" horiz-adv-x="604" 
d="M89 597v153h182v-153h-182zM332 597v153h182v-153h-182zM302 570q138 0 215 -78t77 -217t-77 -217t-215 -78t-215 78t-77 217t77 217t215 78zM302 131q63 0 63 144t-63 144t-63 -144t63 -144z" />
    <glyph glyph-name="ograve.sc" horiz-adv-x="604" 
d="M405 608h-171l-131 176h197zM302 570q138 0 215 -78t77 -217t-77 -217t-215 -78t-215 78t-77 217t77 217t215 78zM302 131q63 0 63 144t-63 144t-63 -144t63 -144z" />
    <glyph glyph-name="ohungarumlaut.sc" horiz-adv-x="604" 
d="M104 608l105 176h187l-124 -176h-168zM324 608l105 176h187l-124 -176h-168zM302 570q138 0 215 -78t77 -217t-77 -217t-215 -78t-215 78t-77 217t77 217t215 78zM302 131q63 0 63 144t-63 144t-63 -144t63 -144z" />
    <glyph glyph-name="omacron.sc" horiz-adv-x="604" 
d="M467 752v-138h-330v138h330zM302 570q138 0 215 -78t77 -217t-77 -217t-215 -78t-215 78t-77 217t77 217t215 78zM302 131q63 0 63 144t-63 144t-63 -144t63 -144z" />
    <glyph glyph-name="uni01EB.sc" horiz-adv-x="604" 
d="M376 -13q-38 -14 -59.5 -36t-21.5 -47q0 -17 12.5 -27.5t32.5 -10.5q46 0 74 14l-12 -120q-37 -10 -94 -10q-64 0 -102.5 34.5t-38.5 90.5q0 63 51 114q-99 22 -153.5 96t-54.5 190q0 139 77 217t215 78t215 -78t77 -217q0 -118 -57 -193t-161 -95zM302 419
q-63 0 -63 -144t63 -144t63 144t-63 144z" />
    <glyph glyph-name="oslash.sc" horiz-adv-x="604" 
d="M481 521q113 -76 113 -246q0 -139 -77 -217t-215 -78h-6l-28 -80h-190l44 129q-112 76 -112 246q0 139 77 217t215 78h6l28 81h190zM302 419q-63 0 -63 -144q0 -44 4 -69l71 212q-4 1 -12 1zM302 131q63 0 63 144q0 38 -5 70l-74 -212q10 -2 16 -2z" />
    <glyph glyph-name="oslashacute.sc" horiz-adv-x="604" 
d="M392 784l-131 -176h-171l105 176h197zM481 521q113 -76 113 -246q0 -139 -77 -217t-215 -78h-6l-28 -80h-190l44 129q-112 76 -112 246q0 139 77 217t215 78h6l28 81h190zM302 419q-63 0 -63 -144q0 -44 4 -69l71 212q-4 1 -12 1zM302 131q63 0 63 144q0 38 -5 70
l-74 -212q10 -2 16 -2z" />
    <glyph glyph-name="otilde.sc" horiz-adv-x="604" 
d="M357 598q-31 0 -63 21t-47 21q-35 0 -54 -40l-98 44q22 71 60.5 111t83.5 40q40 0 75 -21.5t49 -21.5q28 0 47 42l99 -35q-15 -76 -55 -118.5t-97 -42.5zM302 570q138 0 215 -78t77 -217t-77 -217t-215 -78t-215 78t-77 217t77 217t215 78zM302 131q63 0 63 144t-63 144
t-63 -144t63 -144z" />
    <glyph glyph-name="oe.sc" horiz-adv-x="791" 
d="M781 149v-149h-356q-55 -20 -123 -20q-138 0 -215 78t-77 217t77 217t215 78q68 0 123 -20h354v-149h-205q7 -20 14 -53h159v-143h-159q-4 -28 -14 -56h207zM302 131q63 0 63 144t-63 144t-63 -144t63 -144z" />
    <glyph glyph-name="p.sc" horiz-adv-x="558" 
d="M251 550q159 0 228 -45.5t69 -151.5q0 -102 -63.5 -154.5t-187.5 -52.5h-46v-146h-221v550h221zM275 297q50 0 50 52t-47 52h-27v-104h24z" />
    <glyph glyph-name="thorn.sc" horiz-adv-x="558" 
d="M297 478q124 0 187.5 -51.5t63.5 -151.5t-63.5 -151.5t-187.5 -51.5h-46v-72h-221v550h221v-72h46zM275 223q50 0 50 52t-50 52h-24v-104h24z" />
    <glyph glyph-name="q.sc" horiz-adv-x="608" 
d="M484 53v-3q95 -36 168 -70l-113 -155q-83 70 -148.5 112.5t-88.5 42.5q-138 0 -215 78t-77 217t77 217t215 78t215 -78t77 -217q0 -137 -110 -222zM302 131q63 0 63 144t-63 144t-63 -144t63 -144z" />
    <glyph glyph-name="r.sc" horiz-adv-x="565" 
d="M595 0h-243l-82 171h-19v-171h-221v550h221q161 0 231 -43t70 -143q0 -96 -86 -149zM251 401v-94h28q50 0 50 47t-47 47h-31z" />
    <glyph glyph-name="racute.sc" horiz-adv-x="565" 
d="M475 784l-131 -176h-171l105 176h197zM595 0h-243l-82 171h-19v-171h-221v550h221q161 0 231 -43t70 -143q0 -96 -86 -149zM251 401v-94h28q50 0 50 47t-47 47h-31z" />
    <glyph glyph-name="rcaron.sc" horiz-adv-x="565" 
d="M357 598h-162l-138 176h186l33 -59l33 59h186zM595 0h-243l-82 171h-19v-171h-221v550h221q161 0 231 -43t70 -143q0 -96 -86 -149zM251 401v-94h28q50 0 50 47t-47 47h-31z" />
    <glyph glyph-name="rcommaaccent.sc" horiz-adv-x="565" 
d="M251 171v-171h-221v550h221q161 0 231 -43t70 -143q0 -96 -86 -149l129 -215h-243l-82 171h-19zM251 401v-94h28q50 0 50 47t-47 47h-31zM164 -177v129h222v-94q0 -95 -58.5 -148.5t-155.5 -53.5l-8 74q89 10 93 93h-93z" />
    <glyph glyph-name="s.sc" horiz-adv-x="511" 
d="M245 397q0 -10 10 -15t50 -15q31 -8 50.5 -14t50.5 -21.5t49 -34t32 -51t14 -73.5q0 -87 -73 -140t-192 -53q-79 0 -149.5 22t-105.5 57l92 125q30 -22 69.5 -36t66.5 -14q62 0 62 24q0 15 -13 21t-59 19q-32 9 -49 14t-47 20t-46 32.5t-29 48t-13 69.5q0 85 70 136.5
t185 51.5q64 0 124 -18t100 -48l-84 -115q-56 29 -112 29q-53 0 -53 -21z" />
    <glyph glyph-name="sacute.sc" horiz-adv-x="511" 
d="M153 608l105 176h197l-131 -176h-171zM245 397q0 -10 10 -15t50 -15q31 -8 50.5 -14t50.5 -21.5t49 -34t32 -51t14 -73.5q0 -87 -73 -140t-192 -53q-79 0 -149.5 22t-105.5 57l92 125q30 -22 69.5 -36t66.5 -14q62 0 62 24q0 15 -13 21t-59 19q-32 9 -49 14t-47 20
t-46 32.5t-29 48t-13 69.5q0 85 70 136.5t185 51.5q64 0 124 -18t100 -48l-84 -115q-56 29 -112 29q-53 0 -53 -21z" />
    <glyph glyph-name="scaron.sc" horiz-adv-x="511" 
d="M175 598l-138 176h186l33 -59l33 59h186l-138 -176h-162zM245 397q0 -10 10 -15t50 -15q31 -8 50.5 -14t50.5 -21.5t49 -34t32 -51t14 -73.5q0 -87 -73 -140t-192 -53q-79 0 -149.5 22t-105.5 57l92 125q30 -22 69.5 -36t66.5 -14q62 0 62 24q0 15 -13 21t-59 19
q-32 9 -49 14t-47 20t-46 32.5t-29 48t-13 69.5q0 85 70 136.5t185 51.5q64 0 124 -18t100 -48l-84 -115q-56 29 -112 29q-53 0 -53 -21z" />
    <glyph glyph-name="scedilla.sc" horiz-adv-x="511" 
d="M501 173q0 -71 -50 -120t-136 -66l3 -24q94 -19 94 -101q0 -50 -41.5 -81t-109.5 -31q-73 0 -123 33l31 100q39 -21 73 -21q42 0 42 23q0 19 -60 19h-36v16l19 61q-71 4 -132.5 25t-93.5 53l92 125q30 -22 69.5 -36t66.5 -14q62 0 62 24q0 15 -13 21t-59 19q-32 9 -49 14
t-47 20t-46 32.5t-29 48t-13 69.5q0 85 70 136.5t185 51.5q64 0 124 -18t100 -48l-84 -115q-56 29 -112 29q-53 0 -53 -21q0 -10 10 -15t50 -15q31 -8 50.5 -14t50.5 -21.5t49 -34t32 -51t14 -73.5z" />
    <glyph glyph-name="scommaaccent.sc" horiz-adv-x="511" 
d="M245 397q0 -10 10 -15t50 -15q31 -8 50.5 -14t50.5 -21.5t49 -34t32 -51t14 -73.5q0 -87 -73 -140t-192 -53q-79 0 -149.5 22t-105.5 57l92 125q30 -22 69.5 -36t66.5 -14q62 0 62 24q0 15 -13 21t-59 19q-32 9 -49 14t-47 20t-46 32.5t-29 48t-13 69.5q0 85 70 136.5
t185 51.5q64 0 124 -18t100 -48l-84 -115q-56 29 -112 29q-53 0 -53 -21zM152 -344l-8 74q89 10 93 93h-93v129h222v-94q0 -95 -58.5 -148.5t-155.5 -53.5z" />
    <glyph glyph-name="germandbls.sc" horiz-adv-x="610" 
d="M469 312q61 -13 96 -53.5t35 -96.5q0 -82 -61.5 -132t-162.5 -50q-68 0 -99 13l35 153q12 -4 23 -4q17 0 27.5 10.5t10.5 25.5q0 21 -20.5 35.5t-54.5 16.5v99l58 73q-24 12 -59 12q-46 0 -46 -50v-364h-221l2 354q2 216 253 216q142 0 259 -44v-128z" />
    <glyph glyph-name="t.sc" horiz-adv-x="489" 
d="M134 0v390h-129v160h479v-160h-129v-390h-221z" />
    <glyph glyph-name="tbar.sc" horiz-adv-x="489" 
d="M484 390h-129v-51h76v-118h-76v-221h-221v221h-76v118h76v51h-129v160h479v-160z" />
    <glyph glyph-name="tcaron.sc" horiz-adv-x="489" 
d="M164 598l-138 176h186l33 -59l33 59h186l-138 -176h-162zM134 0v390h-129v160h479v-160h-129v-390h-221z" />
    <glyph glyph-name="uni0163.sc" horiz-adv-x="489" 
d="M355 390v-390h-52l4 -37q94 -19 94 -101q0 -50 -41.5 -81t-109.5 -31q-74 0 -123 33l31 100q39 -21 73 -21q42 0 42 23q0 19 -60 19h-36v16l25 80h-68v390h-129v160h479v-160h-129z" />
    <glyph glyph-name="uni021B.sc" horiz-adv-x="489" 
d="M134 0v390h-129v160h479v-160h-129v-390h-221zM141 -344l-8 74q89 10 93 93h-93v129h222v-94q0 -95 -58.5 -148.5t-155.5 -53.5z" />
    <glyph glyph-name="u.sc" horiz-adv-x="578" 
d="M558 550v-349q0 -109 -68 -165t-201 -56t-201 56t-68 165v349h221v-357q0 -60 48 -60t48 60v357h221z" />
    <glyph glyph-name="uacute.sc" horiz-adv-x="578" 
d="M186 608l105 176h197l-131 -176h-171zM558 550v-349q0 -109 -68 -165t-201 -56t-201 56t-68 165v349h221v-357q0 -60 48 -60t48 60v357h221z" />
    <glyph glyph-name="ucircumflex.sc" horiz-adv-x="578" 
d="M60 598l138 176h162l138 -176h-186l-33 59l-33 -59h-186zM558 550v-349q0 -109 -68 -165t-201 -56t-201 56t-68 165v349h221v-357q0 -60 48 -60t48 60v357h221z" />
    <glyph glyph-name="udieresis.sc" horiz-adv-x="578" 
d="M76 597v153h182v-153h-182zM319 597v153h182v-153h-182zM558 550v-349q0 -109 -68 -165t-201 -56t-201 56t-68 165v349h221v-357q0 -60 48 -60t48 60v357h221z" />
    <glyph glyph-name="ugrave.sc" horiz-adv-x="578" 
d="M392 608h-171l-131 176h197zM558 550v-349q0 -109 -68 -165t-201 -56t-201 56t-68 165v349h221v-357q0 -60 48 -60t48 60v357h221z" />
    <glyph glyph-name="uhungarumlaut.sc" horiz-adv-x="578" 
d="M91 608l105 176h187l-124 -176h-168zM311 608l105 176h187l-124 -176h-168zM558 550v-349q0 -109 -68 -165t-201 -56t-201 56t-68 165v349h221v-357q0 -60 48 -60t48 60v357h221z" />
    <glyph glyph-name="umacron.sc" horiz-adv-x="578" 
d="M454 752v-138h-330v138h330zM558 550v-349q0 -109 -68 -165t-201 -56t-201 56t-68 165v349h221v-357q0 -60 48 -60t48 60v357h221z" />
    <glyph glyph-name="uogonek.sc" horiz-adv-x="578" 
d="M337 550h221v-349q0 -181 -182 -214q-83 -31 -83 -83q0 -17 12.5 -27.5t32.5 -10.5q46 0 74 14l-12 -120q-37 -10 -94 -10q-64 0 -102.5 34.5t-38.5 90.5q0 62 48 110q-193 30 -193 216v349h221v-357q0 -60 48 -60t48 60v357z" />
    <glyph glyph-name="uring.sc" horiz-adv-x="578" 
d="M289 584q-62 0 -106 44.5t-44 106.5t44 106t106 44t106 -44t44 -106t-44 -106.5t-106 -44.5zM289 684q21 0 35.5 15t14.5 36q0 20 -14.5 35t-35.5 15t-35.5 -15t-14.5 -35q0 -21 14.5 -36t35.5 -15zM558 550v-349q0 -109 -68 -165t-201 -56t-201 56t-68 165v349h221v-357
q0 -60 48 -60t48 60v357h221z" />
    <glyph glyph-name="utilde.sc" horiz-adv-x="578" 
d="M344 598q-31 0 -63 21t-47 21q-35 0 -54 -40l-98 44q22 71 60.5 111t83.5 40q40 0 75 -21.5t49 -21.5q28 0 47 42l99 -35q-15 -76 -55 -118.5t-97 -42.5zM558 550v-349q0 -109 -68 -165t-201 -56t-201 56t-68 165v349h221v-357q0 -60 48 -60t48 60v357h221z" />
    <glyph glyph-name="v.sc" horiz-adv-x="497" 
d="M110 0l-140 550h227l56 -422h3l58 422h213l-126 -550h-291z" />
    <glyph glyph-name="w.sc" horiz-adv-x="763" 
d="M68 0l-73 550h223l11 -297l1 -123h3l48 420h211l37 -420h3l2 123l21 297h213l-71 -550h-283l-32 365h-3l-33 -365h-278z" />
    <glyph glyph-name="wacute.sc" horiz-adv-x="763" 
d="M279 608l105 176h197l-131 -176h-171zM68 0l-73 550h223l11 -297l1 -123h3l48 420h211l37 -420h3l2 123l21 297h213l-71 -550h-283l-32 365h-3l-33 -365h-278z" />
    <glyph glyph-name="wcircumflex.sc" horiz-adv-x="763" 
d="M153 598l138 176h162l138 -176h-186l-33 59l-33 -59h-186zM68 0l-73 550h223l11 -297l1 -123h3l48 420h211l37 -420h3l2 123l21 297h213l-71 -550h-283l-32 365h-3l-33 -365h-278z" />
    <glyph glyph-name="wdieresis.sc" horiz-adv-x="763" 
d="M169 597v153h182v-153h-182zM412 597v153h182v-153h-182zM68 0l-73 550h223l11 -297l1 -123h3l48 420h211l37 -420h3l2 123l21 297h213l-71 -550h-283l-32 365h-3l-33 -365h-278z" />
    <glyph glyph-name="wgrave.sc" horiz-adv-x="763" 
d="M485 608h-171l-131 176h197zM68 0l-73 550h223l11 -297l1 -123h3l48 420h211l37 -420h3l2 123l21 297h213l-71 -550h-283l-32 365h-3l-33 -365h-278z" />
    <glyph glyph-name="x.sc" horiz-adv-x="545" 
d="M-15 0l153 294l-148 256h238l41 -127l49 127h236l-159 -248l165 -302h-247l-43 141l-43 -141h-242z" />
    <glyph glyph-name="y.sc" horiz-adv-x="530" 
d="M154 0v208l-174 342h233l52 -183l61 183h224l-175 -340v-210h-221z" />
    <glyph glyph-name="yacute.sc" horiz-adv-x="530" 
d="M162 608l105 176h197l-131 -176h-171zM154 0v208l-174 342h233l52 -183l61 183h224l-175 -340v-210h-221z" />
    <glyph glyph-name="ycircumflex.sc" horiz-adv-x="530" 
d="M36 598l138 176h162l138 -176h-186l-33 59l-33 -59h-186zM154 0v208l-174 342h233l52 -183l61 183h224l-175 -340v-210h-221z" />
    <glyph glyph-name="ydieresis.sc" horiz-adv-x="530" 
d="M52 597v153h182v-153h-182zM295 597v153h182v-153h-182zM154 0v208l-174 342h233l52 -183l61 183h224l-175 -340v-210h-221z" />
    <glyph glyph-name="ygrave.sc" horiz-adv-x="530" 
d="M368 608h-171l-131 176h197zM154 0v208l-174 342h233l52 -183l61 183h224l-175 -340v-210h-221z" />
    <glyph glyph-name="uni1EF9.sc" horiz-adv-x="530" 
d="M320 598q-31 0 -63 21t-47 21q-35 0 -54 -40l-98 44q22 71 60.5 111t83.5 40q40 0 75 -21.5t49 -21.5q28 0 47 42l99 -35q-15 -76 -55 -118.5t-97 -42.5zM154 0v208l-174 342h233l52 -183l61 183h224l-175 -340v-210h-221z" />
    <glyph glyph-name="z.sc" horiz-adv-x="488" 
d="M278 169h202v-169h-475v146l196 240h-181v164h463v-132z" />
    <glyph glyph-name="zacute.sc" horiz-adv-x="488" 
d="M141 608l105 176h197l-131 -176h-171zM278 169h202v-169h-475v146l196 240h-181v164h463v-132z" />
    <glyph glyph-name="zcaron.sc" horiz-adv-x="488" 
d="M163 598l-138 176h186l33 -59l33 59h186l-138 -176h-162zM278 169h202v-169h-475v146l196 240h-181v164h463v-132z" />
    <glyph glyph-name="zdotaccent.sc" horiz-adv-x="488" 
d="M153 618v179h182v-179h-182zM278 169h202v-169h-475v146l196 240h-181v164h463v-132z" />
    <glyph glyph-name="ij.sc.ss01" horiz-adv-x="731" 
d="M30 0v550h221v-550h-221zM480 550h221v-369q0 -95 -58.5 -148t-163.5 -53q-52 0 -108 17.5t-95 46.5l90 135q41 -44 79 -44q35 0 35 47v368z" />
    <glyph glyph-name="j.sc.ss01" horiz-adv-x="450" 
d="M199 550h221v-369q0 -95 -58.5 -148t-163.5 -53q-52 0 -108 17.5t-95 46.5l90 135q41 -44 79 -44q35 0 35 47v368z" />
    <glyph glyph-name="jacute.sc.ss01" horiz-adv-x="450" 
d="M207 608l105 176h197l-131 -176h-171zM199 550h221v-369q0 -95 -58.5 -148t-163.5 -53q-52 0 -108 17.5t-95 46.5l90 135q41 -44 79 -44q35 0 35 47v368z" />
    <glyph glyph-name="germandbls.sc.ss01" horiz-adv-x="610" 
d="M469 312q61 -13 96 -53.5t35 -96.5q0 -82 -61.5 -132t-162.5 -50q-68 0 -99 13l35 153q12 -4 23 -4q17 0 27.5 9.5t10.5 24.5q0 21 -23 35.5t-61 18.5v88l67 84q-24 12 -59 12q-46 0 -46 -50v-364h-221l2 354q2 216 253 216q161 0 273 -51v-105z" />
    <glyph glyph-name="g.sc.ss02" horiz-adv-x="591" 
d="M561 317v-259q-40 -35 -106 -56.5t-134 -21.5q-140 0 -225.5 81t-85.5 214q0 145 80 220t235 75q108 0 197 -62l-80 -123q-52 36 -97 36q-55 0 -81 -35.5t-26 -110.5q0 -144 91 -144q19 0 30 2v184h202z" />
    <glyph glyph-name="gbreve.sc.ss02" horiz-adv-x="591" 
d="M381 794h117q0 -86 -53 -139t-140 -53t-140 53t-53 139h117q0 -29 21 -47t55 -18t55 18t21 47zM561 317v-259q-40 -35 -106 -56.5t-134 -21.5q-140 0 -225.5 81t-85.5 214q0 145 80 220t235 75q108 0 197 -62l-80 -123q-52 36 -97 36q-55 0 -81 -35.5t-26 -110.5
q0 -144 91 -144q19 0 30 2v184h202z" />
    <glyph glyph-name="gcommaaccent.sc.ss02" horiz-adv-x="591" 
d="M561 317v-259q-40 -35 -106 -56.5t-134 -21.5q-140 0 -225.5 81t-85.5 214q0 145 80 220t235 75q108 0 197 -62l-80 -123q-52 36 -97 36q-55 0 -81 -35.5t-26 -110.5q0 -144 91 -144q19 0 30 2v184h202zM195 -344l-8 74q89 10 93 93h-93v129h222v-94q0 -95 -58.5 -148.5
t-155.5 -53.5z" />
    <glyph glyph-name="gdotaccent.sc.ss02" horiz-adv-x="591" 
d="M214 618v179h182v-179h-182zM561 317v-259q-40 -35 -106 -56.5t-134 -21.5q-140 0 -225.5 81t-85.5 214q0 145 80 220t235 75q108 0 197 -62l-80 -123q-52 36 -97 36q-55 0 -81 -35.5t-26 -110.5q0 -144 91 -144q19 0 30 2v184h202z" />
    <glyph glyph-name="k.sc.ss02" horiz-adv-x="610" 
d="M30 0v550h221v-550h-221zM392 0l-134 297v7l127 246h220l-134 -241l164 -309h-243z" />
    <glyph glyph-name="kcommaaccent.sc.ss02" horiz-adv-x="610" 
d="M30 0v550h221v-550h-221zM392 0l-134 297v7l127 246h220l-134 -241l164 -309h-243zM195 -344l-8 74q89 10 93 93h-93v129h222v-94q0 -95 -58.5 -148.5t-155.5 -53.5z" />
    <glyph glyph-name="kgreenlandic.sc.ss02" horiz-adv-x="610" 
d="M30 0v550h221v-550h-221zM392 0l-134 297v7l127 246h220l-134 -241l164 -309h-243z" />
    <glyph glyph-name="q.sc.ss02" horiz-adv-x="604" 
d="M480 -165q-163 43 -279 121q-191 129 -191 319q0 139 77 217t215 78t215 -78t77 -217q0 -81 -41.5 -145t-113.5 -101v-3q69 -21 155 -34zM302 131q63 0 63 144t-63 144t-63 -144t63 -144z" />
    <glyph glyph-name="germandbls.sc.ss02" horiz-adv-x="610" 
d="M469 312q61 -13 96 -53.5t35 -96.5q0 -82 -61.5 -132t-162.5 -50q-68 0 -99 13l35 153q12 -4 23 -4q17 0 27.5 10.5t10.5 25.5q0 21 -20.5 35.5t-54.5 16.5v99l58 73q-24 12 -59 12q-46 0 -46 -50v-364h-221l2 354q2 216 253 216q142 0 259 -44v-128z" />
    <glyph glyph-name="zero.closecirc" horiz-adv-x="811" 
d="M404 -20q-155 0 -264.5 107.5t-109.5 261.5q0 155 109 263t265 108q155 0 266 -108.5t111 -262.5q0 -153 -111 -261t-266 -108zM406 124q91 0 142 60t51 166t-51 166t-142 60t-142 -60t-51 -166t51 -166t142 -60zM406 236q-18 0 -24 23t-6 91t6 91t24 23t24 -23t6 -91
t-6 -91t-24 -23z" />
    <glyph glyph-name="zero.opencirc" horiz-adv-x="811" 
d="M404 -20q-155 0 -264.5 107.5t-109.5 261.5q0 155 109 263t265 108q155 0 266 -108.5t111 -262.5q0 -153 -111 -261t-266 -108zM404 37q131 0 225 91.5t94 220.5q0 131 -94 222.5t-225 91.5t-223.5 -91.5t-92.5 -222.5q0 -130 92.5 -221t223.5 -91zM406 124
q-91 0 -142 60t-51 166t51 166t142 60t142 -60t51 -166t-51 -166t-142 -60zM406 236q18 0 24 23t6 91t-6 91t-24 23t-24 -23t-6 -91t6 -91t24 -23z" />
    <glyph glyph-name="zero.osf" horiz-adv-x="644" 
d="M322 570q138 0 222.5 -81t84.5 -214t-84.5 -214t-222.5 -81t-222.5 81t-84.5 214t84.5 214t222.5 81zM322 133q88 0 88 142t-88 142t-88 -142t88 -142z" />
    <glyph glyph-name="one.osf" horiz-adv-x="535" 
d="M525 160v-160h-472v160h148v183l-107 -61l-109 131l244 137h186v-390h110z" />
    <glyph glyph-name="two.osf" horiz-adv-x="510" 
d="M491 159v-159h-491v150q148 94 196 133q63 53 64 84q0 43 -44 43q-27 0 -61 -16.5t-63 -42.5l-95 115q45 50 113.5 77t140.5 27q98 0 165 -47.5t67 -133.5q0 -71 -61 -133.5t-143 -96.5h212z" />
    <glyph glyph-name="three.osf" horiz-adv-x="515" 
d="M337 267q163 -23 163 -181q0 -100 -75.5 -158t-188.5 -58q-156 0 -256 83l106 129q54 -49 114 -49q33 0 53.5 17t20.5 52q0 71 -87 71h-75v86l133 127h-225v164h468v-126z" />
    <glyph glyph-name="four.osf" horiz-adv-x="568" 
d="M301 -127v127h-290v130l175 420h218l-167 -387h64l36 97h177v-96h54v-164h-54v-127h-213z" />
    <glyph glyph-name="five.osf" horiz-adv-x="543" 
d="M338 321q190 0 190 -214q0 -110 -76 -173.5t-194 -63.5q-163 0 -263 84l105 128q66 -52 126 -52q35 0 56.5 20t21.5 56q0 72 -79 72q-51 0 -87 -25l-110 47l18 350h448v-164h-251l-4 -85q44 20 99 20z" />
    <glyph glyph-name="six.osf" horiz-adv-x="593" 
d="M384 469q89 0 144 -64t55 -169q0 -115 -77 -185.5t-203 -70.5q-134 0 -208.5 88.5t-74.5 246.5q0 182 92 293.5t242 111.5q123 0 212 -73l-94 -114q-47 30 -92 30q-97 0 -119 -128q56 34 123 34zM307 131q54 0 54 103q0 51 -12 71t-41 20q-26 0 -55 -17
q1 -102 12.5 -139.5t41.5 -37.5z" />
    <glyph glyph-name="seven.osf" horiz-adv-x="491" 
d="M90 -101v99q0 75 37 157l107 233h-234v162h476v-144l-126 -260q-19 -40 -25.5 -54.5t-13 -40t-6.5 -51.5v-101h-215z" />
    <glyph glyph-name="eight.osf" horiz-adv-x="612" 
d="M304 -20q-130 0 -209.5 55.5t-79.5 146.5q0 53 33.5 97t91.5 69q-99 60 -99 159q0 100 70.5 156.5t195.5 56.5t195 -52.5t70 -145.5q0 -50 -28.5 -90.5t-80.5 -65.5q63 -27 98.5 -68t35.5 -112q0 -93 -80.5 -149.5t-212.5 -56.5zM319 424q38 29 38 85q0 28 -13.5 44
t-36.5 16q-24 0 -37.5 -16t-13.5 -44q0 -53 63 -85zM308 131q33 0 51.5 16t18.5 45q0 30 -25.5 50.5t-77.5 42.5q-40 -34 -40 -83q0 -34 19 -52.5t54 -18.5z" />
    <glyph glyph-name="nine.osf" horiz-adv-x="599" 
d="M297 570q134 0 208.5 -88.5t74.5 -246.5q0 -163 -92 -263t-242 -100q-64 0 -129.5 24.5t-106.5 63.5l95 115q62 -46 115 -46q61 0 89 26t35 93q-59 -36 -128 -36q-92 0 -148.5 60.5t-56.5 159.5q0 107 78.5 172.5t207.5 65.5zM233 334q0 -35 16.5 -56.5t42.5 -21.5
q29 0 54 17q-2 83 -13.5 114.5t-39.5 31.5q-27 0 -43.5 -23.5t-16.5 -61.5z" />
    <glyph glyph-name="one.ss01" horiz-adv-x="485" 
d="M430 700v-700h-214v483l-113 -74l-108 130l240 161h195z" />
    <glyph glyph-name="seven.ss01" horiz-adv-x="509" 
d="M20 0l241 536h-261v164h504v-146l-250 -554h-234z" />
    <glyph glyph-name="one.osf.ss01" horiz-adv-x="469" 
d="M424 550v-550h-214v323l-117 -67l-108 132l276 162h163z" />
    <glyph glyph-name="seven.osf.ss01" horiz-adv-x="491" 
d="M17 -101l223 489h-240v162h476v-144l-231 -507h-228z" />
    <glyph glyph-name="seven.tf.ss01" 
d="M41 0l241 536h-261v164h504v-146l-250 -554h-234z" />
    <glyph glyph-name="seven.tosf.ss01" 
d="M58 -101l223 489h-240v162h476v-144l-231 -507h-228z" />
    <glyph glyph-name="zero.tf" 
d="M275 720q133 0 201.5 -94t68.5 -276t-68.5 -276t-201.5 -94t-201.5 94t-68.5 276t68.5 276t201.5 94zM275 156q23 0 33.5 45t10.5 149t-10.5 149t-33.5 45t-33.5 -45t-10.5 -149t10.5 -149t33.5 -45z" />
    <glyph glyph-name="one.tf" 
d="M533 165v-165h-484v165h152v308l-114 -59l-107 129l272 157h163v-535h118z" />
    <glyph glyph-name="two.tf" 
d="M529 164v-164h-493v150q13 12 56 51.5t63 59t54 55.5t50.5 60t30 54t13.5 55q0 29 -16.5 47t-43.5 18q-67 0 -140 -75l-96 116q47 65 116 97t141 32q119 0 191.5 -56t72.5 -147q0 -79 -45 -155.5t-171 -197.5h217z" />
    <glyph glyph-name="three.tf" 
d="M383 385q77 -14 117.5 -63t40.5 -126q0 -100 -76.5 -158t-189.5 -58q-79 0 -150.5 24t-119.5 67l103 125q58 -53 130 -53q35 0 56 17t21 52q0 71 -87 71h-76l-2 81l146 172h-249v164h483v-141z" />
    <glyph glyph-name="four.tf" 
d="M281 0v127h-286v143l182 430h217l-172 -410h59l20 97h193v-96h56v-164h-56v-127h-213z" />
    <glyph glyph-name="five.tf" 
d="M271 -20q-77 0 -148.5 26t-117.5 70l103 125q73 -61 133 -61q37 0 59 23t22 68q0 41 -23 63.5t-63 22.5q-44 0 -80 -25l-110 47l18 361h446v-164h-248l-5 -96q44 20 99 20q85 0 137.5 -61.5t52.5 -162.5q0 -118 -78.5 -187t-196.5 -69z" />
    <glyph glyph-name="six.tf" 
d="M348 469q89 0 144 -64t55 -169q0 -115 -75 -185.5t-198 -70.5q-132 0 -201 87.5t-69 247.5q0 184 85 294.5t233 110.5q56 0 117 -21.5t106 -56.5l-95 -116q-60 37 -102 37q-46 0 -70.5 -28.5t-33.5 -89.5q51 24 104 24zM280 131q45 0 45 103q0 51 -12 71t-41 20
q-23 0 -35 -6q1 -108 10 -148t33 -40z" />
    <glyph glyph-name="seven.tf" 
d="M128 0v110q0 82 33 149l136 277h-276v164h504v-146l-142 -289q-41 -83 -41 -149v-116h-214z" />
    <glyph glyph-name="eight.tf" 
d="M273 -20q-131 0 -205 52t-74 144q0 54 32 99t89 71q-95 61 -95 161q0 101 66 157t190 56t189.5 -52t65.5 -146q0 -105 -110 -155q63 -28 99 -71t36 -116q0 -94 -74.5 -147t-208.5 -53zM279 432q37 32 37 77q0 27 -11 43.5t-29 16.5q-41 0 -41 -60q0 -46 44 -77zM277 131
q60 0 60 61q0 28 -22 48t-66 41q-35 -33 -35 -79q0 -71 63 -71z" />
    <glyph glyph-name="nine.tf" 
d="M276 720q132 0 201 -87.5t69 -247.5q0 -184 -87.5 -294.5t-236.5 -110.5q-59 0 -120 21t-101 57l95 115q50 -36 100 -36q46 0 72 28.5t37 88.5q-49 -23 -103 -23q-89 0 -144 64t-55 169q0 115 75 185.5t198 70.5zM225 466q0 -51 12 -71t41 -20q23 0 35 6q-1 108 -10 148
t-33 40q-45 0 -45 -103z" />
    <glyph glyph-name="zero.tosf" 
d="M275 570q270 0 270 -295t-270 -295t-270 295t270 295zM275 133q29 0 40 33t11 109t-11 109t-40 33t-40 -33t-11 -109t11 -109t40 -33z" />
    <glyph glyph-name="one.tosf" 
d="M540 160v-160h-472v160h148v183l-107 -61l-109 131l244 137h186v-390h110z" />
    <glyph glyph-name="two.tosf" 
d="M518 159v-159h-491v150q148 94 196 133q63 53 64 84q0 43 -44 43q-27 0 -61 -16.5t-63 -42.5l-95 115q45 50 113.5 77t140.5 27q98 0 165 -47.5t67 -133.5q0 -71 -61 -133.5t-143 -96.5h212z" />
    <glyph glyph-name="three.tosf" 
d="M367 267q163 -23 163 -181q0 -100 -75.5 -158t-188.5 -58q-156 0 -256 83l106 129q54 -49 114 -49q33 0 53.5 17t20.5 52q0 71 -87 71h-75v86l133 127h-225v164h468v-126z" />
    <glyph glyph-name="four.tosf" 
d="M291 -127v127h-290v130l175 420h218l-167 -387h64l20 97h193v-96h45v-164h-45v-127h-213z" />
    <glyph glyph-name="five.tosf" 
d="M350 321q190 0 190 -214q0 -110 -76 -173.5t-194 -63.5q-163 0 -263 84l105 128q66 -52 126 -52q35 0 56.5 20t21.5 56q0 72 -79 72q-51 0 -87 -25l-110 47l18 350h448v-164h-251l-4 -85q44 20 99 20z" />
    <glyph glyph-name="six.tosf" 
d="M344 469q89 0 144 -64t55 -169q0 -126 -66 -191t-194 -65q-134 0 -208.5 88.5t-74.5 246.5q0 185 83 295t231 110q130 0 225 -81l-94 -115q-53 39 -105 39q-46 0 -69.5 -28t-31.5 -90q51 24 105 24zM280 131q41 0 41 103q0 51 -12 71t-41 20q-16 0 -35 -7
q1 -108 11 -147.5t36 -39.5z" />
    <glyph glyph-name="seven.tosf" 
d="M131 -101v99q0 75 37 157l107 233h-234v162h476v-144l-126 -260q-19 -40 -25.5 -54.5t-13 -40t-6.5 -51.5v-101h-215z" />
    <glyph glyph-name="eight.tosf" 
d="M273 -20q-131 0 -205 52t-74 144q0 54 32 99t89 71q-95 61 -95 161q0 101 66 157t190 56t189.5 -52t65.5 -146q0 -105 -110 -155q63 -28 99 -71t36 -116q0 -94 -74.5 -147t-208.5 -53zM279 432q37 32 37 77q0 27 -11 43.5t-29 16.5q-41 0 -41 -60q0 -46 44 -77zM277 131
q60 0 60 61q0 28 -22 48t-66 41q-35 -33 -35 -79q0 -71 63 -71z" />
    <glyph glyph-name="nine.tosf" 
d="M267 570q139 0 211 -85t72 -250q0 -166 -83.5 -264.5t-231.5 -98.5q-58 0 -120 21t-102 56l95 116q52 -36 101 -36q48 0 72 25t31 83q-52 -25 -107 -25q-92 0 -148.5 60.5t-56.5 159.5q0 107 73.5 172.5t193.5 65.5zM222 334q0 -35 16.5 -56.5t42.5 -21.5q15 0 36 7
q-2 90 -11 123t-34 33q-23 0 -36.5 -22.5t-13.5 -62.5z" />
    <glyph glyph-name="zero.zero" horiz-adv-x="620" 
d="M310 720q143 0 216.5 -94t73.5 -276t-73.5 -276t-216.5 -94t-216.5 94t-73.5 276t73.5 276t216.5 94zM310 544q-36 0 -50 -43t-14 -151v-36l94 220q-11 10 -30 10zM310 156q36 0 50 43t14 151q0 36 -1 52l-98 -231q13 -15 35 -15z" />
    <glyph glyph-name="zero.osf.zero" horiz-adv-x="644" 
d="M322 570q138 0 222.5 -81t84.5 -214t-84.5 -214t-222.5 -81t-222.5 81t-84.5 214t84.5 214t222.5 81zM322 417q-88 0 -88 -142q0 -41 8 -73l92 214q-4 1 -12 1zM322 133q88 0 88 142q0 48 -11 83l-96 -223q12 -2 19 -2z" />
    <glyph glyph-name="zero.tf.zero" 
d="M275 720q133 0 201.5 -94t68.5 -276t-68.5 -276t-201.5 -94t-201.5 94t-68.5 276t68.5 276t201.5 94zM275 544q-23 0 -33.5 -45t-10.5 -149v-12l69 186q-9 20 -25 20zM275 156q23 0 33.5 45t10.5 149v30l-73 -194q10 -30 29 -30z" />
    <glyph glyph-name="zero.tosf.zero" 
d="M275 570q270 0 270 -295t-270 -295t-270 295t270 295zM275 417q-29 0 -40 -33t-11 -109v-30l64 170q-8 2 -13 2zM275 133q29 0 40 33t11 109q0 32 -1 46l-69 -183q8 -5 19 -5z" />
    <glyph glyph-name="zero.dnom" horiz-adv-x="406" 
d="M203 437q91 0 142 -60t51 -166t-51 -166t-142 -60t-142 60t-51 166t51 166t142 60zM203 97q18 0 24 23t6 91t-6 91t-24 23t-24 -23t-6 -91t6 -91t24 -23z" />
    <glyph glyph-name="one.dnom" horiz-adv-x="431" 
d="M336 111h85v-111h-369v111h130v173l-88 -57l-79 95l181 104h140v-315z" />
    <glyph glyph-name="two.dnom" horiz-adv-x="390" 
d="M366 116v-116h-329v105q5 5 38 31t48 40t39 38t34.5 44t10.5 37q0 29 -34 29q-27 0 -51 -16.5t-37 -43.5l-71 86q26 39 77 63t108 24q77 0 123.5 -35.5t46.5 -94.5q0 -87 -157 -191h154z" />
    <glyph glyph-name="three.dnom" horiz-adv-x="391" 
d="M274 236q102 -27 102 -120q0 -59 -53.5 -95t-140.5 -36q-48 0 -96 16.5t-80 45.5l75 91q35 -36 88 -36q44 0 44 31q0 37 -58 37h-50l-1 44l78 96h-153v116h328v-90z" />
    <glyph glyph-name="four.dnom" horiz-adv-x="406" 
d="M206 0v73h-196v101l108 252h151l-101 -242h37l26 56h121v-56h44v-111h-44v-73h-146z" />
    <glyph glyph-name="five.dnom" horiz-adv-x="394" 
d="M249 291q61 0 95.5 -37.5t34.5 -104.5q0 -77 -53 -120.5t-148 -43.5q-53 0 -100 20t-71 53l73 89q13 -21 38 -34t51 -13q48 0 48 52q0 41 -38 41q-26 0 -49 -15l-92 21l14 227h290v-103h-161l-3 -47q36 15 71 15z" />
    <glyph glyph-name="six.dnom" horiz-adv-x="401" 
d="M257 290q63 0 98.5 -37t35.5 -103q0 -74 -51.5 -119.5t-135.5 -45.5q-95 0 -144.5 52.5t-49.5 153.5q0 116 58.5 181t163.5 65q95 0 150 -45l-68 -82q-36 21 -71 21q-28 0 -42 -13.5t-19 -48.5q38 21 75 21zM206 93q14 0 19.5 12.5t5.5 44.5q0 27 -6.5 36t-25.5 9
q-10 0 -20 -2q0 -60 5.5 -80t21.5 -20z" />
    <glyph glyph-name="seven.dnom" horiz-adv-x="403" 
d="M116 0v84q0 64 30 116l69 122h-178v112h331v-121l-70 -124q-28 -49 -28 -105v-84h-154z" />
    <glyph glyph-name="eight.dnom" horiz-adv-x="402" 
d="M198 -15q-87 0 -140 35.5t-53 94.5q0 37 21 63.5t57 36.5q-61 37 -61 97q0 56 49.5 90.5t129.5 34.5t129.5 -31t49.5 -81q0 -61 -69 -99q86 -37 86 -109q0 -59 -55 -95.5t-144 -36.5zM206 268q23 22 23 40q0 33 -28 33t-28 -33q0 -24 33 -40zM206 91q37 0 37 30
q0 22 -60 48q-23 -16 -23 -44q0 -34 46 -34z" />
    <glyph glyph-name="nine.dnom" horiz-adv-x="399" 
d="M192 437q91 0 146.5 -52.5t55.5 -138.5q0 -118 -63 -189.5t-167 -71.5q-39 0 -83 13t-73 35l68 83q42 -25 77 -25q29 0 45.5 13.5t23.5 47.5q-41 -20 -83 -20q-63 0 -98.5 37t-35.5 103q0 74 51.5 119.5t135.5 45.5zM165 276q0 -21 9.5 -35t24.5 -14q16 0 28 3
q-1 57 -8.5 78t-24.5 21q-29 0 -29 -53z" />
    <glyph glyph-name="zero.numr" horiz-adv-x="406" 
d="M203 711q91 0 142 -60t51 -166t-51 -166t-142 -60t-142 60t-51 166t51 166t142 60zM203 371q18 0 24 23t6 91t-6 91t-24 23t-24 -23t-6 -91t6 -91t24 -23z" />
    <glyph glyph-name="one.numr" horiz-adv-x="431" 
d="M336 385h85v-111h-369v111h130v173l-88 -57l-79 95l181 104h140v-315z" />
    <glyph glyph-name="two.numr" horiz-adv-x="390" 
d="M366 390v-116h-329v105q5 5 38 31t48 40t39 38t34.5 44t10.5 37q0 29 -34 29q-27 0 -51 -16.5t-37 -43.5l-71 86q26 39 77 63t108 24q77 0 123.5 -35.5t46.5 -94.5q0 -87 -157 -191h154z" />
    <glyph glyph-name="three.numr" horiz-adv-x="391" 
d="M274 510q102 -27 102 -120q0 -59 -53.5 -95t-140.5 -36q-48 0 -96 16.5t-80 45.5l75 91q35 -36 88 -36q44 0 44 31q0 37 -58 37h-50l-1 44l78 96h-153v116h328v-90z" />
    <glyph glyph-name="four.numr" horiz-adv-x="406" 
d="M206 274v73h-196v101l108 252h151l-101 -242h37l26 56h121v-56h44v-111h-44v-73h-146z" />
    <glyph glyph-name="five.numr" horiz-adv-x="394" 
d="M249 565q61 0 95.5 -37.5t34.5 -104.5q0 -77 -53 -120.5t-148 -43.5q-53 0 -100 20t-71 53l73 89q13 -21 38 -34t51 -13q48 0 48 52q0 41 -38 41q-26 0 -49 -15l-92 21l14 227h290v-103h-161l-3 -47q36 15 71 15z" />
    <glyph glyph-name="six.numr" horiz-adv-x="401" 
d="M257 564q63 0 98.5 -37t35.5 -103q0 -74 -51.5 -119.5t-135.5 -45.5q-95 0 -144.5 52.5t-49.5 153.5q0 116 58.5 181t163.5 65q95 0 150 -45l-68 -82q-36 21 -71 21q-28 0 -42 -13.5t-19 -48.5q38 21 75 21zM206 367q14 0 19.5 12.5t5.5 44.5q0 27 -6.5 36t-25.5 9
q-10 0 -20 -2q0 -60 5.5 -80t21.5 -20z" />
    <glyph glyph-name="seven.numr" horiz-adv-x="403" 
d="M116 266v84q0 64 30 116l69 122h-178v112h331v-121l-70 -124q-28 -49 -28 -105v-84h-154z" />
    <glyph glyph-name="eight.numr" horiz-adv-x="402" 
d="M198 259q-87 0 -140 35.5t-53 94.5q0 37 21 63.5t57 36.5q-61 37 -61 97q0 56 49.5 90.5t129.5 34.5t129.5 -31t49.5 -81q0 -61 -69 -99q86 -37 86 -109q0 -59 -55 -95.5t-144 -36.5zM206 542q23 22 23 40q0 33 -28 33t-28 -33q0 -24 33 -40zM206 365q37 0 37 30
q0 22 -60 48q-23 -16 -23 -44q0 -34 46 -34z" />
    <glyph glyph-name="nine.numr" horiz-adv-x="399" 
d="M192 711q91 0 146.5 -52.5t55.5 -138.5q0 -118 -63 -189.5t-167 -71.5q-39 0 -83 13t-73 35l68 83q42 -25 77 -25q29 0 45.5 13.5t23.5 47.5q-41 -20 -83 -20q-63 0 -98.5 37t-35.5 103q0 74 51.5 119.5t135.5 45.5zM165 550q0 -21 9.5 -35t24.5 -14q16 0 28 3
q-1 57 -8.5 78t-24.5 21q-29 0 -29 -53z" />
    <glyph glyph-name="onehalf.ss01" horiz-adv-x="976" 
d="M182 274v284l-88 -57l-79 95l181 104h140v-426h-154zM232 0l364 700h154l-364 -700h-154zM624 0v105q5 5 38 31t48 40t39 38t34.5 44t10.5 37q0 29 -34 29q-27 0 -51 -16.5t-37 -43.5l-71 86q26 39 77 63t108 24q76 0 123 -35.5t47 -94.5q0 -87 -157 -191h154v-116h-329z
" />
    <glyph glyph-name="uni2153.ss01" horiz-adv-x="980" 
d="M182 274v284l-88 -57l-79 95l181 104h140v-426h-154zM232 0l364 700h154l-364 -700h-154zM771 -15q-48 0 -96 16.5t-80 45.5l75 91q35 -36 88 -36q44 0 44 31q0 37 -58 37h-50l-1 44l78 96h-153v116h328v-90l-83 -100q102 -27 102 -120q0 -59 -53.5 -95t-140.5 -36z" />
    <glyph glyph-name="onequarter.ss01" horiz-adv-x="956" 
d="M182 274v284l-88 -57l-79 95l181 104h140v-426h-154zM232 0l364 700h154l-364 -700h-154zM756 0v73h-196v101l108 252h151l-101 -242h37l26 56h121v-56h44v-111h-44v-73h-146z" />
    <glyph glyph-name="uni2155.ss01" horiz-adv-x="984" 
d="M182 274v284l-88 -57l-79 95l181 104h140v-426h-154zM233 0l364 700h154l-364 -700h-154zM768 -15q-53 0 -100 20t-71 53l73 89q13 -21 38 -34t51 -13q48 0 48 52q0 41 -38 41q-26 0 -49 -15l-92 21l14 227h290v-103h-161l-3 -47q36 15 71 15q61 0 95.5 -37.5
t34.5 -104.5q0 -77 -53 -120.5t-148 -43.5z" />
    <glyph glyph-name="uni2159.ss01" horiz-adv-x="980" 
d="M336 274h-154v284l-88 -57l-79 95l181 104h140v-426zM596 700h154l-364 -700h-154zM836 290q63 0 98.5 -37t35.5 -103q0 -74 -51.5 -119.5t-135.5 -45.5q-95 0 -144.5 52.5t-49.5 153.5q0 116 58.5 181t163.5 65q95 0 150 -45l-68 -82q-36 21 -71 21q-28 0 -42 -13.5
t-19 -48.5q38 21 75 21zM785 93q14 0 19.5 12.5t5.5 44.5q0 27 -6.5 36t-25.5 9q-10 0 -20 -2q0 -60 5.5 -80t21.5 -20z" />
    <glyph glyph-name="oneeighth.ss01" horiz-adv-x="981" 
d="M182 274v284l-88 -57l-79 95l181 104h140v-426h-154zM232 0l364 700h154l-364 -700h-154zM777 -15q-87 0 -140 35.5t-53 94.5q0 37 21 63.5t57 36.5q-61 37 -61 97q0 56 49.5 90.5t129.5 34.5t129.5 -31t49.5 -81q0 -61 -69 -99q86 -37 86 -109q0 -59 -55 -95.5
t-144 -36.5zM785 268q23 22 23 40q0 33 -28 33t-28 -33q0 -24 33 -40zM785 91q37 0 37 30q0 22 -60 48q-23 -16 -23 -44q0 -34 46 -34z" />
    <glyph glyph-name="seveneighths.ss01" horiz-adv-x="914" 
d="M49 266l164 322h-178v112h331v-108l-151 -326h-166zM165 0l364 700h154l-364 -700h-154zM710 -15q-87 0 -140 35.5t-53 94.5q0 37 21 63.5t57 36.5q-61 37 -61 97q0 56 49.5 90.5t129.5 34.5t129.5 -31t49.5 -81q0 -61 -69 -99q86 -37 86 -109q0 -59 -55 -95.5
t-144 -36.5zM718 268q23 22 23 40q0 33 -28 33t-28 -33q0 -24 33 -40zM718 91q37 0 37 30q0 22 -60 48q-23 -16 -23 -44q0 -34 46 -34z" />
    <glyph glyph-name="one.dnom.ss01" horiz-adv-x="411" 
d="M182 0v284l-88 -57l-79 95l181 104h140v-426h-154z" />
    <glyph glyph-name="seven.dnom.ss01" horiz-adv-x="403" 
d="M51 0l164 322h-178v112h331v-108l-151 -326h-166z" />
    <glyph glyph-name="one.numr.ss01" horiz-adv-x="411" 
d="M182 274v284l-88 -57l-79 95l181 104h140v-426h-154z" />
    <glyph glyph-name="seven.numr.ss01" horiz-adv-x="403" 
d="M51 266l164 322h-178v112h331v-108l-151 -326h-166z" />
    <glyph glyph-name="uni2081.ss01" horiz-adv-x="411" 
d="M182 -150v284l-88 -57l-79 95l181 104h140v-426h-154z" />
    <glyph glyph-name="uni2087.ss01" horiz-adv-x="403" 
d="M51 -150l164 322h-178v112h331v-108l-151 -326h-166z" />
    <glyph glyph-name="uni00B9.ss01" horiz-adv-x="402" 
d="M182 420v284l-88 -57l-79 95l181 104h140v-426h-154z" />
    <glyph glyph-name="uni2077.ss01" horiz-adv-x="403" 
d="M51 412l164 322h-178v112h331v-108l-151 -326h-166z" />
    <glyph glyph-name="exclamdown.case" horiz-adv-x="243" 
d="M11 491v209h222v-209h-222zM5 0l21 416h191l21 -416h-233z" />
    <glyph glyph-name="questiondown.case" horiz-adv-x="471" 
d="M145 490v209h222v-209h-222zM233 -20q-105 0 -169 46.5t-64 122.5q0 48 16.5 84.5t40 57.5t46.5 39t39.5 39t16.5 47h195q0 -54 -12.5 -93t-30.5 -58t-36 -32t-30.5 -26.5t-12.5 -31.5q0 -24 36 -24q24 0 53 13.5t50 36.5l100 -136q-39 -38 -104.5 -61.5t-133.5 -23.5z
" />
    <glyph glyph-name="numbersign.osf" horiz-adv-x="639" 
d="M606 433h-71l-23 -166h54v-137h-72l-18 -130h-185l18 130h-45l-18 -130h-185l18 130h-46v137h64l23 166h-47v137h65l18 130h185l-18 -130h45l18 130h185l-18 -130h53v-137zM327 267l23 166h-45l-23 -166h45z" />
    <glyph glyph-name="numbersign.tf" horiz-adv-x="560" 
d="M569 433h-71l-23 -166h54v-137h-72l-18 -130h-185l18 130h-45l-18 -130h-185l18 130h-46v137h64l23 166h-47v137h65l18 130h185l-18 -130h45l18 130h185l-18 -130h53v-137zM290 267l23 166h-45l-23 -166h45z" />
    <glyph glyph-name="numbersign.tosf" 
d="M565 433h-71l-23 -166h54v-137h-72l-18 -130h-185l18 130h-45l-18 -130h-185l18 130h-46v137h64l23 166h-47v137h65l18 130h185l-18 -130h45l18 130h185l-18 -130h53v-137zM286 267l23 166h-45l-23 -166h45z" />
    <glyph glyph-name="braceleft.case" horiz-adv-x="345" 
d="M268 43q0 -27 11 -39t36 -12v-149q-146 0 -199.5 37t-53.5 140v141q0 45 -11 64.5t-36 19.5v186q25 0 36 19.5t11 64.5v141q0 103 53.5 140t199.5 37v-149q-25 0 -36 -12t-11 -39v-130q0 -130 -124 -163v-3q124 -35 124 -164v-130z" />
    <glyph glyph-name="braceright.case" horiz-adv-x="345" 
d="M77 43v130q0 129 124 164v4q-124 31 -124 162v130q0 27 -11 39t-36 12v149q146 0 199.5 -37t53.5 -140v-141q0 -45 11 -64.5t36 -19.5v-186q-25 0 -36 -19.5t-11 -64.5v-141q0 -103 -53.5 -140t-199.5 -37v149q25 0 36 12t11 39z" />
    <glyph glyph-name="bracketleft.case" horiz-adv-x="312" 
d="M5 -139v958h307v-157h-96v-644h96v-157h-307z" />
    <glyph glyph-name="bracketright.case" horiz-adv-x="312" 
d="M0 -139v157h96v644h-96v157h307v-958h-307z" />
    <glyph glyph-name="parenleft.case" horiz-adv-x="319" 
d="M186 -168q-96 109 -141 234t-45 281t45 281t141 234l148 -85q-53 -66 -84.5 -182t-31.5 -248t31.5 -248t84.5 -182z" />
    <glyph glyph-name="parenright.case" horiz-adv-x="319" 
d="M133 -168l-148 85q53 66 84.5 182t31.5 248t-31.5 248t-84.5 182l148 85q96 -109 141 -234t45 -281t-45 -281t-141 -234z" />
    <glyph glyph-name="guillemotleft.case" horiz-adv-x="674" 
d="M213 74l-193 206v136l193 206l143 -99l-131 -175l131 -175zM511 74l-193 206v136l193 206l143 -99l-131 -175l131 -175z" />
    <glyph glyph-name="guillemotright.case" horiz-adv-x="674" 
d="M163 74l-143 99l131 175l-131 175l143 99l193 -206v-136zM461 74l-143 99l131 175l-131 175l143 99l193 -206v-136z" />
    <glyph glyph-name="guilsinglleft.case" horiz-adv-x="376" 
d="M213 74l-193 206v136l193 206l143 -99l-131 -175l131 -175z" />
    <glyph glyph-name="guilsinglright.case" horiz-adv-x="376" 
d="M163 74l-143 99l131 175l-131 175l143 99l193 -206v-136z" />
    <glyph glyph-name="cent.osf" horiz-adv-x="488" 
d="M404 188l99 -135q-54 -54 -145 -68v-155h-157v164q-89 27 -140 101.5t-51 179.5t51 179.5t140 101.5v164h157v-155q91 -14 145 -68l-99 -135q-24 31 -69 31q-49 0 -72 -28.5t-23 -89.5t23 -89.5t72 -28.5q45 0 69 31z" />
    <glyph glyph-name="currency.osf" horiz-adv-x="538" 
d="M269 116q-67 0 -118 28l-63 -63l-83 83l63 62q-28 51 -28 117q0 65 28 118l-63 62l83 83l64 -63q52 27 117 27t117 -27l64 63l83 -83l-63 -62q28 -53 28 -118q0 -63 -27 -117l62 -62l-83 -83l-63 62q-52 -27 -118 -27zM269 261q74 0 74 82t-74 82t-74 -82t74 -82z" />
    <glyph glyph-name="dollar.osf" horiz-adv-x="505" 
d="M495 174q0 -62 -38.5 -108t-106.5 -69v-145h-157v130q-119 10 -183 69l68 133q63 -45 138 -45q52 0 52 26q0 10 -25.5 18.5t-61.5 19.5t-72.5 28.5t-62 55t-25.5 89.5q0 69 46 118.5t126 66.5v137h157v-138q67 -16 117 -48l-68 -133q-42 32 -113 32q-46 0 -46 -25
q0 -13 19 -22t47 -14.5t61.5 -17t61.5 -28t47 -50t19 -80.5z" />
    <glyph glyph-name="Euro.osf" horiz-adv-x="617" 
d="M307 224q30 -93 112 -93q87 0 169 52v-156q-69 -47 -179 -47q-130 0 -215 63.5t-114 180.5h-85v105h70v21v21h-70v105h85q29 117 114 180.5t215 63.5q63 0 122 -17.5t91 -46.5l-95 -140q-34 32 -108 32q-75 0 -107 -72h186v-105h-207v-21v-21h207v-105h-191z" />
    <glyph glyph-name="florin.osf" horiz-adv-x="410" 
d="M45 -250l-74 155q101 48 101 129v359h-72v130l38 14q34 14 34 50v4q1 81 64 130t165 49q74 0 126 -23l-34 -151q-27 9 -58 9q-30 0 -46.5 -13.5t-16.5 -37.5v-4h113v-157h-91v-341q0 -130 -63 -206.5t-186 -95.5z" />
    <glyph glyph-name="uni20BA.osf" horiz-adv-x="613" 
d="M613 148q-32 -67 -116.5 -107.5t-189.5 -40.5h-197v184l-54 -25l-41 89l95 44v51l-53 -25l-42 89l95 44v249h217v-148l117 55l41 -89l-158 -74v-50l116 54l42 -89l-158 -74v-122h25q50 0 95 31t76 87z" />
    <glyph glyph-name="uni20B9.osf" horiz-adv-x="570" 
d="M550 700v-114h-81q17 -22 24 -44h57v-114h-55q-12 -42 -48 -84t-81 -61l181 -283h-242l-167 270h-103v114h155q54 0 76 44h-231v114h231q-23 44 -76 44h-155v114h515z" />
    <glyph glyph-name="sterling.osf" horiz-adv-x="528" 
d="M320 298q-3 -67 -63 -136h261v-162h-484v154q73 75 76 144h-95v114h68q-20 53 -20 91q0 91 72 154t185 63q67 0 124.5 -15t86.5 -40l-92 -125q-37 20 -87 20q-32 0 -51.5 -20t-19.5 -50q0 -22 18 -78h171v-114h-150z" />
    <glyph glyph-name="yen.osf" horiz-adv-x="613" 
d="M644 700l-170 -341h69v-105h-121v-52h121v-105h-121v-97h-231v97h-121v105h121v52h-121v105h70l-171 341h252l86 -264l85 264h252z" />
    <glyph glyph-name="Euro.ss03" horiz-adv-x="617" 
d="M498 476v-105h-503v105h85q29 117 114.5 180.5t214.5 63.5q63 0 122 -17.5t91 -46.5l-95 -140q-34 32 -108 32q-75 0 -107 -72h186zM307 224q30 -93 112 -93q87 0 169 52v-156q-69 -47 -179 -47q-130 0 -215.5 63.5t-114.5 180.5h-84v105h503v-105h-191z" />
    <glyph glyph-name="uni20BA.ss03" horiz-adv-x="613" 
d="M57 328l-42 89l95 44v239h217v-138l117 55l41 -89zM523 281l90 -133q-32 -67 -116.5 -107.5t-189.5 -40.5h-197v194l-54 -25l-41 89l428 200l42 -89l-158 -74v-132h25q50 0 95 31t76 87z" />
    <glyph glyph-name="Euro.osf.ss03" horiz-adv-x="617" 
d="M498 476v-105h-503v105h85q29 117 114 180.5t215 63.5q63 0 122 -17.5t91 -46.5l-95 -140q-34 32 -108 32q-75 0 -107 -72h186zM307 224q30 -93 112 -93q87 0 169 52v-156q-69 -47 -179 -47q-130 0 -215 63t-115 181h-84v105h503v-105h-191z" />
    <glyph glyph-name="uni20BA.osf.ss03" horiz-adv-x="613" 
d="M57 318l-42 89l95 44v249h217v-148l117 55l41 -89zM523 281l90 -133q-32 -67 -116.5 -107.5t-189.5 -40.5h-197v184l-54 -25l-41 89l428 200l42 -89l-158 -74v-122h25q50 0 95 31t76 87z" />
    <glyph glyph-name="yen.osf.ss03" horiz-adv-x="635" 
d="M655 700l-170 -341h69v-105h-473v105h70l-171 341h252l86 -264l85 264h252zM81 97v105h473v-105h-121v-97h-231v97h-121z" />
    <glyph glyph-name="Euro.tf.ss03" horiz-adv-x="560" 
d="M451 476v-105h-503v105h84q30 117 115.5 180.5t214.5 63.5q63 0 122 -17.5t91 -46.5l-95 -140q-34 32 -108 32q-75 0 -107 -72h186zM260 224q30 -93 112 -93q87 0 169 52v-156q-69 -47 -179 -47q-130 0 -215 63.5t-114 180.5h-85v105h503v-105h-191z" />
    <glyph glyph-name="uni20BA.tf.ss03" horiz-adv-x="560" 
d="M23 328l-42 89l95 44v239h217v-138l117 55l41 -89zM489 281l90 -133q-32 -67 -116.5 -107.5t-189.5 -40.5h-197v194l-54 -25l-41 89l428 200l42 -89l-158 -74v-132h25q50 0 95 31t76 87z" />
    <glyph glyph-name="yen.tf.ss03" horiz-adv-x="560" 
d="M618 700l-170 -341h69v-105h-473v105h69l-170 341h252l86 -264l85 264h252zM44 97v105h473v-105h-121v-97h-231v97h-121z" />
    <glyph glyph-name="Euro.tosf.ss03" 
d="M461 476v-105h-503v105h84q30 117 115.5 180.5t214.5 63.5q63 0 122 -17.5t91 -46.5l-95 -140q-34 32 -108 32q-75 0 -107 -72h186zM271 224q29 -93 111 -93q87 0 169 52v-156q-69 -47 -179 -47q-129 0 -214.5 63.5t-114.5 180.5h-85v105h503v-105h-190z" />
    <glyph glyph-name="uni20BA.tosf.ss03" 
d="M18 328l-42 89l95 44v239h217v-138l117 55l41 -89zM484 281l90 -133q-32 -67 -116.5 -107.5t-189.5 -40.5h-197v194l-54 -25l-41 89l428 200l42 -89l-158 -74v-132h25q50 0 95 31t76 87z" />
    <glyph glyph-name="yen.tosf.ss03" 
d="M613 700l-170 -341h69v-105h-473v105h70l-171 341h252l86 -264l85 264h252zM39 97v105h473v-105h-121v-97h-231v97h-121z" />
    <glyph glyph-name="yen.ss03" horiz-adv-x="635" 
d="M655 700l-170 -341h69v-105h-473v105h70l-171 341h252l86 -264l85 264h252zM81 97v105h473v-105h-121v-97h-231v97h-121z" />
    <glyph glyph-name="cent.tf" horiz-adv-x="560" 
d="M428 188l99 -135q-54 -54 -145 -68v-155h-157v164q-89 27 -140 101.5t-51 179.5t51 179.5t140 101.5v164h157v-155q91 -14 145 -68l-99 -135q-24 31 -69 31q-49 0 -72 -28.5t-23 -89.5t23 -89.5t72 -28.5q45 0 69 31z" />
    <glyph glyph-name="currency.tf" horiz-adv-x="560" 
d="M16 164l63 62q-28 51 -28 117q0 65 28 118l-63 62l83 83l64 -63q52 27 117 27t117 -27l64 63l83 -83l-63 -62q28 -53 28 -118q0 -63 -27 -117l62 -62l-83 -83l-63 62q-52 -27 -118 -27q-67 0 -118 28l-63 -63zM280 261q74 0 74 82t-74 82t-74 -82t74 -82z" />
    <glyph glyph-name="dollar.tf" horiz-adv-x="560" 
d="M566 222q0 -190 -197 -231v-137h-157v128q-138 13 -217 84l92 136q67 -50 141 -50q46 0 72 11t26 31q0 18 -18 31t-46.5 22t-63 19t-69.5 26.5t-63.5 39t-46.5 62t-18 90.5q0 91 55 150.5t156 77.5v134h157v-132q108 -20 176 -80l-89 -132q-69 42 -150 42q-65 0 -65 -32
q0 -20 33.5 -36t81 -32.5t95.5 -40t81.5 -70t33.5 -111.5z" />
    <glyph glyph-name="Euro.tf" horiz-adv-x="560" 
d="M260 224q30 -93 112 -93q87 0 169 52v-156q-69 -47 -179 -47q-130 0 -215 63.5t-114 180.5h-85v105h70v21v21h-70v105h85q29 117 114 180.5t215 63.5q63 0 122 -17.5t91 -46.5l-95 -140q-34 32 -108 32q-76 0 -107 -72h186v-105h-207v-21v-21h207v-105h-191z" />
    <glyph glyph-name="florin.tf" horiz-adv-x="560" 
d="M132 -250l-74 155q101 48 101 129v359h-72v130l38 14q34 14 34 50v4q1 81 64 130t165 49q74 0 126 -23l-34 -151q-27 9 -58 9q-30 0 -46.5 -13.5t-16.5 -37.5v-4h113v-157h-91v-341q0 -130 -63 -206.5t-186 -95.5z" />
    <glyph glyph-name="uni20BA.tf" horiz-adv-x="560" 
d="M579 148q-32 -67 -116.5 -107.5t-189.5 -40.5h-197v194l-54 -25l-41 89l95 44v51l-53 -25l-42 89l95 44v239h217v-138l117 55l41 -89l-158 -74v-50l116 54l42 -89l-158 -74v-132h25q50 0 95 31t76 87z" />
    <glyph glyph-name="uni20B9.tf" horiz-adv-x="560" 
d="M550 700v-114h-81q17 -22 24 -44h57v-114h-55q-12 -42 -48 -84t-81 -61l181 -283h-242l-167 270h-103v114h155q54 0 76 44h-231v114h231q-23 44 -76 44h-155v114h515z" />
    <glyph glyph-name="sterling.tf" horiz-adv-x="560" 
d="M337 298q-3 -67 -63 -136h261v-162h-484v154q73 75 76 144h-95v114h68q-20 53 -20 91q0 91 72 154t185 63q67 0 124.5 -15t86.5 -40l-92 -125q-37 20 -87 20q-32 0 -51.5 -20t-19.5 -50q0 -22 18 -78h171v-114h-150z" />
    <glyph glyph-name="yen.tf" horiz-adv-x="560" 
d="M618 700l-170 -341h69v-105h-121v-52h121v-105h-121v-97h-231v97h-121v105h121v52h-121v105h70l-171 341h252l86 -264l85 264h252z" />
    <glyph glyph-name="cent.tosf" 
d="M423 188l99 -135q-54 -54 -145 -68v-155h-157v164q-89 27 -140 101.5t-51 179.5t51 179.5t140 101.5v164h157v-155q91 -14 145 -68l-99 -135q-24 31 -69 31q-49 0 -72 -28.5t-23 -89.5t23 -89.5t72 -28.5q45 0 69 31z" />
    <glyph glyph-name="currency.tosf" 
d="M504 343q0 -63 -27 -117l62 -62l-83 -83l-63 62q-52 -27 -118 -27q-67 0 -118 28l-63 -63l-83 83l63 62q-28 51 -28 117q0 65 28 118l-63 62l83 83l64 -63q52 27 117 27t117 -27l64 63l83 -83l-63 -62q28 -53 28 -118zM275 261q74 0 74 82t-74 82t-74 -82t74 -82z" />
    <glyph glyph-name="dollar.tosf" 
d="M515 174q0 -62 -38.5 -108t-106.5 -69v-145h-157v130q-119 10 -183 69l68 133q63 -45 138 -45q52 0 52 26q0 10 -25.5 18.5t-62 19.5t-72.5 28.5t-61.5 55t-25.5 89.5q0 69 46 118.5t126 66.5v137h157v-138q67 -16 117 -48l-68 -133q-42 32 -113 32q-46 0 -46 -25
q0 -13 19 -22t47 -14.5t61.5 -17t61.5 -28t47 -50t19 -80.5z" />
    <glyph glyph-name="Euro.tosf" 
d="M270 224q30 -93 112 -93q87 0 169 52v-156q-69 -47 -179 -47q-130 0 -215 63.5t-114 180.5h-85v105h70v21v21h-70v105h85q29 117 114 180.5t215 63.5q63 0 122 -17.5t91 -46.5l-95 -140q-34 32 -108 32q-76 0 -107 -72h186v-105h-207v-21v-21h207v-105h-191z" />
    <glyph glyph-name="florin.tosf" 
d="M422 605q-30 0 -46.5 -13.5t-16.5 -37.5v-4h113v-157h-91v-341q0 -130 -63 -206.5t-186 -95.5l-74 155q101 48 101 129v359h-72v130l38 14q34 14 34 50v9q2 78 65.5 126t163.5 48q74 0 126 -23l-34 -151q-27 9 -58 9z" />
    <glyph glyph-name="uni20BA.tosf" 
d="M574 148q-32 -67 -116.5 -107.5t-189.5 -40.5h-197v194l-54 -25l-41 89l95 44v51l-53 -25l-42 89l95 44v239h217v-138l117 55l41 -89l-158 -74v-50l116 54l42 -89l-158 -74v-132h25q50 0 95 31t76 87z" />
    <glyph glyph-name="uni20B9.tosf" 
d="M536 700v-114h-81q17 -22 24 -44h57v-114h-55q-12 -42 -48 -84t-81 -61l181 -283h-242l-167 270h-103v114h155q54 0 76 44h-231v114h231q-23 44 -76 44h-155v114h515z" />
    <glyph glyph-name="sterling.tosf" 
d="M337 298q-3 -67 -63 -136h261v-162h-484v154q73 75 76 144h-95v114h68q-20 53 -20 91q0 91 72 154t185 63q67 0 124.5 -15t86.5 -40l-92 -125q-37 20 -87 20q-32 0 -51.5 -20t-19.5 -50q0 -22 18 -78h171v-114h-150z" />
    <glyph glyph-name="yen.tosf" 
d="M613 700l-170 -341h69v-105h-121v-52h121v-105h-121v-97h-231v97h-121v105h121v52h-121v105h70l-171 341h252l86 -264l85 264h252z" />
    <glyph glyph-name="ampersand.ss01" horiz-adv-x="906" 
d="M397 797q209 0 344 -116t135 -302q0 -188 -114.5 -293.5t-319.5 -105.5q-151 0 -250.5 65t-120.5 175h-71v125h72q20 110 95.5 174.5t187.5 64.5q114 0 176 -73.5t62 -206.5q0 -41 -10 -84h-295q12 -42 49 -61t105 -19q121 0 183 59t62 174q0 127 -88.5 200t-231.5 73z
M347 435q-47 0 -61 -90h117q-1 42 -16 66t-40 24z" />
    </font>
</defs>
</svg>
